<svg version="1.1" id="Layer_1" xmlns="http://www.w3.org/2000/svg" xmlns:xlink="http://www.w3.org/1999/xlink" x="0px" y="0px"
	 width="100%" viewBox="0 0 256 256" enable-background="new 0 0 256 256" xml:space="preserve">
<path fill="#010101" opacity="1.000000" stroke="none" 
	d="
M115.000000,257.000000 
	C76.666672,257.000000 38.833340,257.000000 1.000005,257.000000 
	C1.000003,171.666672 1.000003,86.333351 1.000002,1.000016 
	C86.333321,1.000011 171.666641,1.000011 257.000000,1.000005 
	C257.000000,86.333313 257.000000,171.666626 257.000000,256.999969 
	C209.833328,257.000000 162.666672,257.000000 115.000000,257.000000 
M231.562561,188.818726 
	C212.689957,148.015289 193.555695,107.329124 175.169495,66.307671 
	C171.568985,58.274555 167.587891,54.449001 158.685150,55.862129 
	C155.588470,56.353661 153.705185,56.802616 152.283325,59.911236 
	C131.159943,106.093582 109.890503,152.209137 88.677811,198.350677 
	C88.237320,199.308823 88.061058,200.388458 87.629181,201.863434 
	C99.121880,201.863434 110.097084,201.681091 121.060204,201.965195 
	C124.751892,202.060852 126.264893,200.633469 127.576500,197.453781 
	C137.925400,172.365326 148.435226,147.343216 158.908020,122.305916 
	C159.762726,120.262589 160.709854,118.257927 162.000687,115.370331 
	C163.079193,117.653893 163.671234,118.800270 164.172729,119.984985 
	C175.142075,145.898361 186.151245,171.795181 196.996246,197.760544 
	C198.277130,200.827271 199.819214,202.045639 203.243179,201.960983 
	C213.230453,201.714035 223.227814,201.887909 233.221039,201.851074 
	C234.424332,201.846649 235.626617,201.561203 237.318161,201.342926 
	C235.330215,197.021362 233.601059,193.262390 231.562561,188.818726 
M68.983055,96.464264 
	C52.962021,131.317734 36.940990,166.171219 20.518270,201.898560 
	C31.707636,201.898560 41.822186,201.786041 51.931667,201.962982 
	C55.223690,202.020599 56.918026,200.948547 58.335018,197.859100 
	C76.310837,158.666748 94.458763,119.553360 112.537041,80.407936 
	C116.135185,72.616768 119.624886,64.775513 123.589355,56.019157 
	C112.525002,56.019157 102.435951,56.149166 92.353653,55.945152 
	C89.045418,55.878208 87.267685,56.904930 85.888847,59.982361 
	C80.511642,71.983727 74.858574,83.861496 68.983055,96.464264 
z"/>
<path fill="#FAFAFA" opacity="1.000000" stroke="none" 
	d="
M231.717224,189.161072 
	C233.601059,193.262390 235.330215,197.021362 237.318161,201.342926 
	C235.626617,201.561203 234.424332,201.846649 233.221039,201.851074 
	C223.227814,201.887909 213.230453,201.714035 203.243179,201.960983 
	C199.819214,202.045639 198.277130,200.827271 196.996246,197.760544 
	C186.151245,171.795181 175.142075,145.898361 164.172729,119.984985 
	C163.671234,118.800270 163.079193,117.653893 162.000687,115.370331 
	C160.709854,118.257927 159.762726,120.262589 158.908020,122.305916 
	C148.435226,147.343216 137.925400,172.365326 127.576500,197.453781 
	C126.264893,200.633469 124.751892,202.060852 121.060204,201.965195 
	C110.097084,201.681091 99.121880,201.863434 87.629181,201.863434 
	C88.061058,200.388458 88.237320,199.308823 88.677811,198.350677 
	C109.890503,152.209137 131.159943,106.093582 152.283325,59.911236 
	C153.705185,56.802616 155.588470,56.353661 158.685150,55.862129 
	C167.587891,54.449001 171.568985,58.274555 175.169495,66.307671 
	C193.555695,107.329124 212.689957,148.015289 231.717224,189.161072 
z"/>
<path fill="#76BB21" opacity="1.000000" stroke="none" 
	d="
M69.145576,96.124741 
	C74.858574,83.861496 80.511642,71.983727 85.888847,59.982361 
	C87.267685,56.904930 89.045418,55.878208 92.353653,55.945152 
	C102.435951,56.149166 112.525002,56.019157 123.589355,56.019157 
	C119.624886,64.775513 116.135185,72.616768 112.537041,80.407936 
	C94.458763,119.553360 76.310837,158.666748 58.335018,197.859100 
	C56.918026,200.948547 55.223690,202.020599 51.931667,201.962982 
	C41.822186,201.786041 31.707636,201.898560 20.518270,201.898560 
	C36.940990,166.171219 52.962021,131.317734 69.145576,96.124741 
z"/>
</svg>