<svg version="1.1" id="Layer_1" xmlns="http://www.w3.org/2000/svg" xmlns:xlink="http://www.w3.org/1999/xlink" x="0px" y="0px"
	 width="100%" viewBox="0 0 189 106" enable-background="new 0 0 189 106" xml:space="preserve">
<path fill="#FEFEFE" opacity="1.000000" stroke="none" 
	d="
M137.000000,107.000000 
	C91.333344,107.000000 46.166695,107.000000 1.000030,107.000000 
	C1.000020,71.666687 1.000020,36.333382 1.000010,1.000054 
	C63.999958,1.000036 126.999916,1.000036 189.999908,1.000018 
	C189.999939,36.333279 189.999939,71.666557 189.999969,106.999924 
	C172.500000,107.000000 155.000000,107.000000 137.000000,107.000000 
M160.017517,70.287071 
	C149.163452,64.252594 137.010986,71.912422 135.968033,82.438507 
	C135.192734,90.263206 139.947540,97.158638 147.615112,99.395905 
	C155.021774,101.557037 163.179474,98.020103 166.571243,91.177086 
	C170.194138,83.867783 167.972137,76.207756 160.017517,70.287071 
M95.637161,94.868141 
	C98.384201,87.511688 96.672417,83.703468 89.337608,80.863449 
	C88.252800,80.443420 87.022728,80.231209 86.114395,79.572083 
	C85.285492,78.970596 84.178001,77.757004 84.329773,77.061012 
	C84.505676,76.254387 85.874237,75.249725 86.808868,75.154610 
	C89.371559,74.893822 91.978180,75.064697 94.512848,75.064697 
	C94.512848,73.011398 94.512848,71.105797 94.512848,68.144478 
	C89.869308,68.541611 85.326492,68.067574 81.561974,69.558578 
	C79.096748,70.534988 76.987984,74.117355 76.107002,76.962204 
	C74.967995,80.640274 77.180115,83.720894 80.635124,85.497574 
	C82.248810,86.327385 84.139656,86.648422 85.687073,87.566986 
	C86.850662,88.257690 87.667099,89.533218 88.638077,90.548409 
	C87.332672,91.373680 86.079735,92.778046 84.710785,92.902092 
	C81.973038,93.150169 79.171745,92.696983 76.156982,92.519218 
	C76.156982,94.575073 76.156982,96.677376 76.156982,99.111626 
	C83.040527,100.307228 89.729065,101.463745 95.637161,94.868141 
M119.699226,68.150848 
	C112.407875,68.862984 107.141075,72.300400 105.000938,79.542145 
	C103.143730,85.826546 104.580032,91.516647 109.469643,95.869835 
	C114.768532,100.587395 120.981110,101.090317 127.615334,98.796684 
	C127.615334,96.117157 127.615334,93.690063 127.615334,90.989105 
	C122.615341,92.276085 117.420593,93.724022 114.400688,88.576759 
	C113.128181,86.407845 112.962082,82.534012 114.032799,80.251152 
	C116.842827,74.259872 122.458786,75.984970 127.595039,77.016418 
	C127.595039,74.259926 127.595039,71.833618 127.595039,69.083984 
	C125.104195,68.750908 122.829514,68.446732 119.699226,68.150848 
M23.958740,81.895714 
	C23.695877,92.593361 29.231586,99.342743 38.793087,99.982368 
	C46.982975,100.530235 48.016651,99.364731 46.590809,91.128830 
	C42.007820,92.299217 37.323223,93.475708 33.850651,88.895409 
	C31.625309,85.960197 31.579035,82.637337 33.653217,79.597458 
	C37.051235,74.617386 41.925789,75.860725 46.900299,77.102837 
	C46.900299,74.409554 46.900299,71.976967 46.900299,69.593605 
	C35.726803,65.795891 27.449945,69.990845 23.958740,81.895714 
M141.988388,35.498718 
	C141.988022,27.832169 142.225769,20.152933 141.818558,12.508058 
	C141.717758,10.615699 139.805344,7.625266 138.233047,7.259968 
	C135.166000,6.547387 134.146896,9.300851 134.145035,12.104090 
	C134.136475,24.937218 134.002304,37.773819 134.319809,50.599102 
	C134.359375,52.197369 136.818573,53.735737 138.156631,55.301857 
	C139.433350,53.700367 141.618546,52.200508 141.811279,50.477753 
	C142.326889,45.868778 141.987854,41.164196 141.988388,35.498718 
M57.861145,14.763414 
	C57.655437,11.613254 58.860752,7.169792 53.917877,7.164342 
	C48.933342,7.158847 50.061359,11.621150 50.041050,14.754904 
	C49.966827,26.206190 50.024982,37.658276 50.002518,49.109997 
	C49.996769,52.041813 49.897240,55.247715 53.928761,55.216919 
	C57.904606,55.186546 57.871304,51.994534 57.867290,49.061314 
	C57.852089,37.941502 57.861179,26.821657 57.861145,14.763414 
M57.780235,97.628067 
	C60.171215,98.406456 62.562199,99.184853 65.200356,100.043716 
	C65.200356,88.758240 65.200356,78.875938 65.200356,69.066925 
	C62.543846,69.066925 60.289574,69.066925 57.768955,69.066925 
	C57.768955,78.500244 57.768955,87.636253 57.780235,97.628067 
M113.683044,23.694799 
	C113.505554,30.279564 113.086624,36.873425 113.334000,43.442184 
	C113.390190,44.934299 115.755608,46.339447 117.058128,47.784622 
	C118.369270,46.205860 120.667480,44.711506 120.811028,43.032898 
	C121.288536,37.448818 121.117859,31.794863 120.952782,26.174829 
	C120.819115,21.624474 118.433708,20.604050 113.683044,23.694799 
M71.083580,27.881794 
	C71.083878,32.711899 70.725288,37.582233 71.260048,42.352421 
	C71.475739,44.276409 73.646568,45.981209 74.927628,47.785759 
	C76.270081,46.036823 78.573776,44.388950 78.770325,42.519535 
	C79.307228,37.412727 79.286377,32.180305 78.788124,27.065664 
	C78.597374,25.107573 76.758904,22.031475 75.238251,21.742346 
	C71.866585,21.101278 70.944626,23.977917 71.083580,27.881794 
M160.931015,47.242775 
	C161.627304,45.864277 162.866455,44.508194 162.924469,43.103344 
	C163.156250,37.490223 163.310104,31.837889 162.845840,26.253855 
	C162.705704,24.568375 160.473358,23.056847 159.199402,21.465639 
	C157.864532,23.048853 155.525528,24.544624 155.378647,26.231291 
	C154.892700,31.811481 155.110199,37.462467 155.233841,43.082417 
	C155.301666,46.165627 156.733154,48.119095 160.931015,47.242775 
M29.006792,34.502380 
	C29.011194,37.495628 28.570459,40.585602 29.191746,43.444805 
	C29.548044,45.084518 31.628469,46.349598 32.932705,47.783337 
	C34.239082,46.336201 36.559715,44.963558 36.672443,43.428753 
	C37.109745,37.474743 37.110775,31.448505 36.648987,25.497673 
	C36.537392,24.059654 34.031837,22.807413 32.627155,21.469738 
	C31.426619,22.829676 29.540323,24.031210 29.181293,25.585527 
	C28.597534,28.112751 29.013044,30.870790 29.006792,34.502380 
M10.050087,47.242790 
	C11.813962,46.580250 14.941529,46.147808 15.099055,45.214226 
	C15.692701,41.695961 15.549015,37.989147 15.150946,34.411972 
	C15.049146,33.497166 12.906767,32.059025 11.865183,32.187290 
	C10.533794,32.351242 8.318361,33.852566 8.312626,34.788734 
	C8.288000,38.807777 8.934279,42.830933 10.050087,47.242790 
M176.704788,45.361549 
	C178.339798,46.047733 180.158020,47.505009 181.551315,47.173943 
	C182.648209,46.913303 183.594299,44.526794 183.930847,42.940987 
	C184.336487,41.029530 184.504227,38.803986 183.895264,37.013603 
	C183.263077,35.154915 181.796509,32.515015 180.311127,32.232239 
	C177.174973,31.635195 176.250351,34.340927 176.260788,37.127403 
	C176.270142,39.621883 176.341827,42.116135 176.704788,45.361549 
M92.955170,46.158554 
	C97.176193,48.648922 99.636925,47.594830 99.928970,43.063751 
	C100.078705,40.740669 100.470734,38.225483 99.772995,36.122314 
	C99.230904,34.488300 97.170540,33.357971 95.784996,32.003769 
	C94.555977,33.344753 92.488518,34.564381 92.273186,36.052086 
	C91.830383,39.111427 92.378258,42.314156 92.955170,46.158554 
z"/>
<path fill="#CB262D" opacity="1.000000" stroke="none" 
	d="
M160.326263,70.499817 
	C167.972137,76.207756 170.194138,83.867783 166.571243,91.177086 
	C163.179474,98.020103 155.021774,101.557037 147.615112,99.395905 
	C139.947540,97.158638 135.192734,90.263206 135.968033,82.438507 
	C137.010986,71.912422 149.163452,64.252594 160.326263,70.499817 
M158.891388,88.153831 
	C160.769135,84.657524 160.613403,81.024200 157.573090,78.669029 
	C155.617264,77.153946 151.906693,75.874786 150.052536,76.751823 
	C147.517700,77.950821 144.723709,81.155190 144.427307,83.770424 
	C144.163818,86.095436 146.598450,89.596054 148.835068,91.131416 
	C152.218658,93.454132 155.821686,92.016518 158.891388,88.153831 
z"/>
<path fill="#CC272E" opacity="1.000000" stroke="none" 
	d="
M95.402939,95.173683 
	C89.729065,101.463745 83.040527,100.307228 76.156982,99.111626 
	C76.156982,96.677376 76.156982,94.575073 76.156982,92.519218 
	C79.171745,92.696983 81.973038,93.150169 84.710785,92.902092 
	C86.079735,92.778046 87.332672,91.373680 88.638077,90.548409 
	C87.667099,89.533218 86.850662,88.257690 85.687073,87.566986 
	C84.139656,86.648422 82.248810,86.327385 80.635124,85.497574 
	C77.180115,83.720894 74.967995,80.640274 76.107002,76.962204 
	C76.987984,74.117355 79.096748,70.534988 81.561974,69.558578 
	C85.326492,68.067574 89.869308,68.541611 94.512848,68.144478 
	C94.512848,71.105797 94.512848,73.011398 94.512848,75.064697 
	C91.978180,75.064697 89.371559,74.893822 86.808868,75.154610 
	C85.874237,75.249725 84.505676,76.254387 84.329773,77.061012 
	C84.178001,77.757004 85.285492,78.970596 86.114395,79.572083 
	C87.022728,80.231209 88.252800,80.443420 89.337608,80.863449 
	C96.672417,83.703468 98.384201,87.511688 95.402939,95.173683 
z"/>
<path fill="#CC2930" opacity="1.000000" stroke="none" 
	d="
M120.127029,68.146698 
	C122.829514,68.446732 125.104195,68.750908 127.595039,69.083984 
	C127.595039,71.833618 127.595039,74.259926 127.595039,77.016418 
	C122.458786,75.984970 116.842827,74.259872 114.032799,80.251152 
	C112.962082,82.534012 113.128181,86.407845 114.400688,88.576759 
	C117.420593,93.724022 122.615341,92.276085 127.615334,90.989105 
	C127.615334,93.690063 127.615334,96.117157 127.615334,98.796684 
	C120.981110,101.090317 114.768532,100.587395 109.469643,95.869835 
	C104.580032,91.516647 103.143730,85.826546 105.000938,79.542145 
	C107.141075,72.300400 112.407875,68.862984 120.127029,68.146698 
z"/>
<path fill="#CB262D" opacity="1.000000" stroke="none" 
	d="
M23.998100,81.475571 
	C27.449945,69.990845 35.726803,65.795891 46.900299,69.593605 
	C46.900299,71.976967 46.900299,74.409554 46.900299,77.102837 
	C41.925789,75.860725 37.051235,74.617386 33.653217,79.597458 
	C31.579035,82.637337 31.625309,85.960197 33.850651,88.895409 
	C37.323223,93.475708 42.007820,92.299217 46.590809,91.128830 
	C48.016651,99.364731 46.982975,100.530235 38.793087,99.982368 
	C29.231586,99.342743 23.695877,92.593361 23.998100,81.475571 
z"/>
<path fill="#1E4145" opacity="1.000000" stroke="none" 
	d="
M141.988388,35.998161 
	C141.987854,41.164196 142.326889,45.868778 141.811279,50.477753 
	C141.618546,52.200508 139.433350,53.700367 138.156631,55.301857 
	C136.818573,53.735737 134.359375,52.197369 134.319809,50.599102 
	C134.002304,37.773819 134.136475,24.937218 134.145035,12.104090 
	C134.146896,9.300851 135.166000,6.547387 138.233047,7.259968 
	C139.805344,7.625266 141.717758,10.615699 141.818558,12.508058 
	C142.225769,20.152933 141.988022,27.832169 141.988388,35.998161 
z"/>
<path fill="#1E4145" opacity="1.000000" stroke="none" 
	d="
M57.861164,15.232619 
	C57.861179,26.821657 57.852089,37.941502 57.867290,49.061314 
	C57.871304,51.994534 57.904606,55.186546 53.928761,55.216919 
	C49.897240,55.247715 49.996769,52.041813 50.002518,49.109997 
	C50.024982,37.658276 49.966827,26.206190 50.041050,14.754904 
	C50.061359,11.621150 48.933342,7.158847 53.917877,7.164342 
	C58.860752,7.169792 57.655437,11.613254 57.861164,15.232619 
z"/>
<path fill="#CD2E35" opacity="1.000000" stroke="none" 
	d="
M57.774597,97.200165 
	C57.768955,87.636253 57.768955,78.500244 57.768955,69.066925 
	C60.289574,69.066925 62.543846,69.066925 65.200356,69.066925 
	C65.200356,78.875938 65.200356,88.758240 65.200356,100.043716 
	C62.562199,99.184853 60.171215,98.406456 57.774597,97.200165 
z"/>
<path fill="#204347" opacity="1.000000" stroke="none" 
	d="
M113.876968,23.343607 
	C118.433708,20.604050 120.819115,21.624474 120.952782,26.174829 
	C121.117859,31.794863 121.288536,37.448818 120.811028,43.032898 
	C120.667480,44.711506 118.369270,46.205860 117.058128,47.784622 
	C115.755608,46.339447 113.390190,44.934299 113.334000,43.442184 
	C113.086624,36.873425 113.505554,30.279564 113.876968,23.343607 
z"/>
<path fill="#204347" opacity="1.000000" stroke="none" 
	d="
M71.083694,27.436405 
	C70.944626,23.977917 71.866585,21.101278 75.238251,21.742346 
	C76.758904,22.031475 78.597374,25.107573 78.788124,27.065664 
	C79.286377,32.180305 79.307228,37.412727 78.770325,42.519535 
	C78.573776,44.388950 76.270081,46.036823 74.927628,47.785759 
	C73.646568,45.981209 71.475739,44.276409 71.260048,42.352421 
	C70.725288,37.582233 71.083878,32.711899 71.083694,27.436405 
z"/>
<path fill="#204347" opacity="1.000000" stroke="none" 
	d="
M160.578644,47.425816 
	C156.733154,48.119095 155.301666,46.165627 155.233841,43.082417 
	C155.110199,37.462467 154.892700,31.811481 155.378647,26.231291 
	C155.525528,24.544624 157.864532,23.048853 159.199402,21.465637 
	C160.473358,23.056847 162.705704,24.568375 162.845840,26.253855 
	C163.310104,31.837889 163.156250,37.490223 162.924469,43.103344 
	C162.866455,44.508194 161.627304,45.864277 160.578644,47.425816 
z"/>
<path fill="#204347" opacity="1.000000" stroke="none" 
	d="
M29.006790,34.016895 
	C29.013044,30.870790 28.597534,28.112751 29.181293,25.585527 
	C29.540323,24.031210 31.426619,22.829676 32.627155,21.469738 
	C34.031837,22.807413 36.537392,24.059654 36.648987,25.497673 
	C37.110775,31.448505 37.109745,37.474743 36.672443,43.428753 
	C36.559715,44.963558 34.239082,46.336201 32.932705,47.783337 
	C31.628469,46.349598 29.548044,45.084518 29.191746,43.444805 
	C28.570459,40.585602 29.011194,37.495628 29.006790,34.016895 
z"/>
<path fill="#224549" opacity="1.000000" stroke="none" 
	d="
M9.693089,47.047691 
	C8.934279,42.830933 8.288000,38.807777 8.312626,34.788734 
	C8.318361,33.852566 10.533794,32.351242 11.865183,32.187290 
	C12.906767,32.059025 15.049146,33.497166 15.150946,34.411972 
	C15.549015,37.989147 15.692701,41.695961 15.099055,45.214226 
	C14.941529,46.147808 11.813962,46.580250 9.693089,47.047691 
z"/>
<path fill="#224549" opacity="1.000000" stroke="none" 
	d="
M176.545410,44.986015 
	C176.341827,42.116135 176.270142,39.621883 176.260788,37.127403 
	C176.250351,34.340927 177.174973,31.635195 180.311127,32.232239 
	C181.796509,32.515015 183.263077,35.154915 183.895264,37.013603 
	C184.504227,38.803986 184.336487,41.029530 183.930847,42.940987 
	C183.594299,44.526794 182.648209,46.913303 181.551315,47.173943 
	C180.158020,47.505009 178.339798,46.047733 176.545410,44.986015 
z"/>
<path fill="#214448" opacity="1.000000" stroke="none" 
	d="
M92.736786,45.808212 
	C92.378258,42.314156 91.830383,39.111427 92.273186,36.052086 
	C92.488518,34.564381 94.555977,33.344753 95.784996,32.003769 
	C97.170540,33.357971 99.230904,34.488300 99.772995,36.122314 
	C100.470734,38.225483 100.078705,40.740669 99.928970,43.063751 
	C99.636925,47.594830 97.176193,48.648922 92.736786,45.808212 
z"/>
<path fill="#FDF8F8" opacity="1.000000" stroke="none" 
	d="
M158.680496,88.484894 
	C155.821686,92.016518 152.218658,93.454132 148.835068,91.131416 
	C146.598450,89.596054 144.163818,86.095436 144.427307,83.770424 
	C144.723709,81.155190 147.517700,77.950821 150.052536,76.751823 
	C151.906693,75.874786 155.617264,77.153946 157.573090,78.669029 
	C160.613403,81.024200 160.769135,84.657524 158.680496,88.484894 
z"/>
</svg>