<svg version="1.1" id="Layer_1" xmlns="http://www.w3.org/2000/svg" xmlns:xlink="http://www.w3.org/1999/xlink" x="0px" y="0px"
	 width="100%" viewBox="0 0 1605 1259" enable-background="new 0 0 1605 1259" xml:space="preserve">
<path fill="#000000" opacity="1.000000" stroke="none" 
	d="
M1258.227051,1259.718018 
	C840.572815,1260.000000 423.145691,1259.991943 5.718548,1260.114136 
	C1.599599,1260.115356 0.892822,1259.209839 0.893914,1255.220215 
	C1.007186,841.125916 1.000000,427.031616 1.000000,12.468657 
	C4.681142,10.025730 5.615416,12.623744 6.524354,15.303514 
	C10.430263,26.819071 14.733596,38.178692 19.790926,49.245453 
	C29.927210,71.426285 42.487354,92.200806 56.266846,112.273621 
	C69.759613,131.928772 85.052971,150.164993 100.393402,168.364883 
	C109.093735,178.686951 118.806770,188.063644 128.205139,197.717010 
	C168.938538,239.555527 213.734558,276.724945 260.536682,311.501770 
	C298.100006,339.413605 336.827118,365.618347 376.605682,390.317780 
	C396.264801,402.524536 415.598907,415.269836 435.692535,426.758728 
	C463.727570,442.788269 491.971039,458.458160 519.644287,475.110199 
	C547.619019,491.943665 574.840881,509.878662 600.393188,530.298584 
	C615.884460,542.678406 630.860840,555.630066 644.905884,569.586731 
	C660.964539,585.544189 676.220825,602.275085 689.907410,620.364868 
	C692.315002,623.546997 694.994629,626.533630 697.075867,630.342163 
	C697.362488,630.825256 697.455811,631.050720 697.447693,631.033569 
	C693.193054,623.531738 690.710999,615.534180 687.393250,607.910583 
	C675.009521,579.454834 658.618225,553.498352 639.320923,529.316895 
	C624.657471,510.942047 608.749023,493.657684 591.570251,477.631653 
	C569.775635,457.299469 546.797913,438.339874 523.051331,420.308380 
	C491.059387,396.015869 457.667480,373.776611 423.887604,352.084717 
	C395.868073,334.091888 367.959869,315.929413 340.198517,297.534546 
	C308.810486,276.736572 278.110901,254.995728 248.066986,232.321167 
	C222.013794,212.658447 196.774261,191.977661 171.900284,170.847397 
	C151.348251,153.388611 131.389969,135.282120 111.767273,116.781189 
	C92.508827,98.623680 73.158264,80.555183 54.766556,61.527191 
	C37.996838,44.177292 21.214903,26.824986 5.012650,8.930363 
	C3.520280,7.282110 2.767421,5.253702 1.245227,3.260588 
	C1.411825,2.372642 0.026496,0.879008 2.000154,0.988243 
	C3.163065,1.052606 4.332450,1.000000 5.498924,1.000000 
	C537.410828,1.000000 1069.322754,1.005756 1601.234619,0.892098 
	C1605.254639,0.891239 1606.113892,1.644762 1606.112427,5.733122 
	C1605.990479,347.176300 1606.000000,688.619507 1606.000000,1030.531372 
	C1602.921753,1032.556152 1602.241089,1030.273193 1601.601929,1028.159424 
	C1599.770386,1022.102539 1598.107666,1016.005981 1595.795166,1010.089600 
	C1587.192383,988.080322 1573.654785,969.162231 1558.985474,950.951660 
	C1553.029297,943.557617 1546.692139,936.487000 1539.941895,929.800720 
	C1537.970337,927.848022 1536.809570,925.796631 1536.952881,922.774902 
	C1537.545532,910.276062 1532.970215,899.570312 1524.572632,890.564148 
	C1510.321533,875.280579 1492.482178,865.227539 1473.680054,856.801270 
	C1438.761719,841.152344 1402.043457,830.662964 1365.579590,819.447144 
	C1349.824219,814.601074 1333.976807,810.024841 1318.685425,803.755859 
	C1303.395020,797.487366 1297.591553,783.858826 1299.039917,767.611511 
	C1300.330322,753.134521 1305.857422,739.854675 1310.985107,726.490173 
	C1316.475464,712.180115 1322.541626,698.053589 1325.325928,682.878662 
	C1329.990601,657.455811 1323.468140,635.125366 1306.680176,615.532410 
	C1290.605591,596.771729 1270.512939,583.156067 1249.617798,570.633972 
	C1218.954346,552.257996 1186.307251,537.955933 1153.241089,524.545227 
	C1120.493042,511.263550 1087.270142,499.285645 1053.658936,488.418732 
	C1008.482056,473.812469 963.115417,459.837555 917.377014,447.037079 
	C884.181091,437.746826 851.150757,427.858551 818.369690,417.100922 
	C782.733765,405.406372 747.458740,392.766815 712.521118,379.192596 
	C684.106506,368.152771 656.205505,355.863831 628.524048,343.071777 
	C588.119385,324.400116 548.850525,303.618500 510.738678,280.636627 
	C469.436157,255.730682 430.252228,227.838715 393.234985,196.931320 
	C373.931793,180.814224 355.333832,163.858109 337.521484,146.137695 
	C320.308472,129.013565 303.636169,111.326378 287.691772,92.963905 
	C278.741180,82.655914 269.834503,72.313583 260.996643,61.910046 
	C260.022736,60.763596 259.085693,59.598110 258.856049,59.137497 
	C262.575287,68.035728 265.870972,78.167252 270.167358,87.908745 
	C282.998779,117.002472 298.846436,144.290771 318.361053,169.442902 
	C338.032806,194.797577 360.323425,217.585541 384.365143,238.817200 
	C404.486481,256.586731 425.410248,273.339478 446.764496,289.536407 
	C468.394501,305.942505 490.190186,322.139526 511.990997,338.324127 
	C538.601624,358.079468 564.684937,378.496765 589.980225,399.928314 
	C608.295166,415.445709 625.919800,431.687500 642.699036,448.835510 
	C672.440369,479.230347 698.153992,512.638245 718.414246,550.156494 
	C729.575073,570.824524 739.599670,592.103394 751.377380,612.423584 
	C764.072388,634.326416 777.641724,655.715210 790.964539,677.244446 
	C806.829651,702.881653 822.748535,728.492065 840.308594,753.026062 
	C858.023132,777.775818 878.128845,800.298584 901.526550,819.906616 
	C921.082031,836.294678 940.874634,852.300903 962.915100,865.280090 
	C978.524292,874.472046 995.337585,880.741272 1012.740723,885.624817 
	C1033.533203,891.459412 1054.773071,894.168701 1076.248291,895.681763 
	C1102.551147,897.534912 1128.883301,896.688721 1155.177490,896.261597 
	C1167.475220,896.061829 1179.851685,896.448547 1192.103027,895.393066 
	C1206.931030,894.115662 1221.747681,894.410339 1236.545776,894.679993 
	C1266.003174,895.216675 1295.359741,897.078735 1324.486572,902.139709 
	C1359.377686,908.202454 1392.593750,919.268494 1424.641724,934.071960 
	C1464.473877,952.471252 1501.286743,975.742371 1535.154907,1003.597656 
	C1556.410156,1021.079224 1576.445190,1039.853027 1593.384399,1061.697632 
	C1594.466187,1063.092651 1595.270386,1065.292114 1597.417358,1064.971802 
	C1599.811035,1064.614502 1599.770142,1062.080933 1600.586914,1060.325684 
	C1601.670166,1057.997192 1601.103027,1054.219971 1605.698364,1054.771973 
	C1606.000000,1121.943359 1605.956055,1188.886963 1606.114990,1255.829956 
	C1606.124023,1259.645752 1605.072510,1260.083496 1601.676880,1260.080200 
	C1499.097046,1259.981689 1396.517212,1260.000000 1293.468628,1260.000000 
	C1292.041748,1258.633911 1290.431519,1258.376587 1288.772705,1257.536255 
	C1286.730103,1256.012695 1284.576660,1256.077759 1282.199707,1255.590088 
	C1281.134399,1255.249512 1280.487183,1254.873657 1279.498291,1254.308350 
	C1271.132812,1247.945923 1262.287964,1242.916382 1255.327515,1235.288940 
	C1241.577393,1220.221558 1238.322632,1199.323486 1248.043823,1183.745483 
	C1254.578857,1173.273193 1263.905518,1165.633057 1275.107910,1160.878174 
	C1294.603394,1152.603516 1314.934082,1149.193481 1336.096924,1152.959229 
	C1353.710083,1156.093262 1366.490845,1165.695312 1374.566040,1181.622925 
	C1375.017456,1182.513306 1375.460205,1183.409546 1376.163086,1184.615234 
	C1376.445068,1187.808594 1377.015869,1190.501221 1378.872314,1193.181396 
	C1379.928101,1199.201904 1381.666138,1204.770508 1381.464600,1211.576172 
	C1383.296997,1209.537109 1383.803589,1207.856201 1384.381714,1206.265503 
	C1388.695923,1194.395874 1392.426270,1182.375732 1392.946777,1169.627441 
	C1393.385254,1158.889282 1390.124023,1147.070190 1379.286133,1142.205811 
	C1376.960693,1141.276001 1375.299561,1139.699219 1372.634766,1139.472168 
	C1357.466919,1133.703491 1341.880249,1132.518921 1326.340332,1131.605347 
	C1308.597900,1130.562378 1291.068237,1128.031128 1273.117065,1125.387207 
	C1271.640259,1125.214722 1270.575684,1125.081665 1269.201904,1124.590332 
	C1266.931152,1123.360962 1264.911743,1122.510254 1262.503662,1121.649536 
	C1260.791260,1120.818237 1259.805176,1119.389893 1257.743774,1119.316406 
	C1255.826660,1118.938843 1254.511475,1117.822388 1252.498657,1117.663574 
	C1251.495972,1117.363525 1250.880493,1117.038452 1249.915894,1116.622803 
	C1240.796143,1111.516846 1232.303589,1106.118042 1224.421631,1099.166504 
	C1223.752197,1098.577026 1223.378418,1098.222046 1222.729126,1097.574463 
	C1218.300781,1092.302734 1213.746216,1087.633301 1210.605103,1081.870605 
	C1209.569214,1079.969849 1208.114502,1078.117310 1209.487793,1075.864258 
	C1210.969360,1073.433472 1213.451172,1073.790161 1215.776978,1073.971924 
	C1234.644043,1075.447021 1253.351440,1074.919922 1271.811890,1070.144775 
	C1292.220703,1064.865356 1311.627686,1057.000488 1330.667603,1048.079590 
	C1351.313477,1038.406250 1371.427734,1027.500977 1393.232422,1020.467041 
	C1419.072632,1012.131226 1445.489868,1007.396667 1472.742920,1007.493042 
	C1488.238525,1007.547852 1503.694214,1007.796875 1519.400879,1010.175476 
	C1520.185303,1010.463379 1520.630859,1010.595520 1521.378784,1010.798767 
	C1521.842896,1010.973694 1522.012329,1011.050842 1521.919434,1011.009277 
	C1521.462402,1010.825073 1521.267822,1010.759521 1520.760742,1010.614990 
	C1509.143188,1003.182007 1498.301514,995.155273 1487.111816,987.628174 
	C1472.587158,977.857788 1457.604614,968.874268 1442.304565,960.402405 
	C1433.428345,955.487610 1424.635010,950.389526 1414.706787,946.808472 
	C1413.689941,946.524597 1413.071777,946.196960 1412.107178,945.791870 
	C1408.850464,943.462036 1405.660645,941.775208 1401.795898,940.697388 
	C1400.873657,940.384155 1400.315674,940.064575 1399.407715,939.754272 
	C1398.339233,939.312439 1397.642090,938.827087 1396.546875,938.455200 
	C1395.726196,938.092407 1395.224365,937.777405 1394.356201,937.545532 
	C1393.291260,937.189087 1392.578857,936.773132 1391.512939,936.405518 
	C1390.694580,936.054321 1390.190186,935.750000 1389.321289,935.526855 
	C1388.244873,935.170898 1387.506836,934.784485 1386.404541,934.458008 
	C1385.516235,934.136719 1384.957031,933.846375 1384.029785,933.577026 
	C1382.874634,933.082153 1382.029907,932.707886 1380.863281,932.161499 
	C1374.907349,928.532837 1368.880737,926.302979 1361.821289,926.105957 
	C1360.220581,925.845886 1359.052979,925.338074 1357.406006,925.277222 
	C1356.030151,925.099976 1355.019897,924.997498 1353.762329,924.351562 
	C1349.931885,922.560242 1346.216553,921.786987 1342.038086,921.228760 
	C1340.549438,921.043884 1339.510132,920.743469 1338.210571,919.925049 
	C1327.044800,916.140747 1315.831909,914.472046 1304.636963,912.917236 
	C1288.302734,910.648560 1271.844727,909.726685 1255.355103,909.466064 
	C1253.856812,909.442322 1252.353516,909.440613 1250.441650,909.844849 
	C1249.136597,909.906006 1248.264160,909.875427 1246.992432,910.265564 
	C1239.775757,910.610657 1232.969971,910.185120 1225.748047,910.775391 
	C1224.467773,910.914062 1223.610107,910.790222 1222.357300,911.067444 
	C1218.939819,911.746338 1215.860718,911.131287 1212.440674,911.761780 
	C1211.225464,911.803894 1210.417114,911.768860 1209.231689,912.051636 
	C1206.205078,912.705139 1203.501343,912.182068 1200.462646,912.703308 
	C1199.293213,912.744995 1198.515747,912.702515 1197.375732,912.961914 
	C1195.277222,913.704529 1193.434204,913.202698 1191.304199,913.646484 
	C1190.179565,913.665222 1189.433838,913.661621 1188.340576,913.925293 
	C1186.563721,914.650452 1185.016479,914.247559 1183.191772,914.615479 
	C1182.087891,914.632568 1181.356201,914.653076 1180.283081,914.921753 
	C1178.523560,915.639160 1176.990479,915.252258 1175.180664,915.612915 
	C1174.083862,915.628967 1173.356934,915.650024 1172.291016,915.917725 
	C1170.544434,916.638550 1169.024414,916.254272 1167.226562,916.592834 
	C1166.141602,916.610413 1165.422241,916.624939 1164.367554,916.884766 
	C1162.891113,917.551697 1161.633057,917.307129 1160.091797,917.577026 
	C1159.013916,917.599854 1158.300171,917.638916 1157.254761,917.910645 
	C1155.536743,918.628174 1154.042725,918.259521 1152.271240,918.570923 
	C1151.206177,918.590881 1150.499512,918.602112 1149.464355,918.854797 
	C1148.255371,919.442749 1147.275879,919.383423 1145.979004,919.537109 
	C1144.909424,919.574707 1144.201660,919.636780 1143.163818,919.922119 
	C1141.431519,920.610535 1139.924927,920.265381 1138.138916,920.613037 
	C1137.048340,920.627686 1136.325195,920.653992 1135.262939,920.923096 
	C1133.509766,921.635803 1131.981934,921.254089 1130.177002,921.613037 
	C1129.081299,921.628906 1128.354980,921.650024 1127.289551,921.917908 
	C1125.542114,922.638611 1124.020996,922.253967 1122.221680,922.594360 
	C1121.133667,922.611755 1120.411987,922.627625 1119.353149,922.890381 
	C1117.864746,923.557007 1116.591797,923.305481 1115.038818,923.607544 
	C1113.940186,923.632324 1113.212524,923.677551 1112.145752,923.968628 
	C1110.104248,924.647888 1108.314941,924.230957 1106.233887,924.649658 
	C1105.117554,924.660828 1104.376465,924.667786 1103.285889,924.934814 
	C1101.486328,925.641052 1099.909546,925.241760 1098.062012,925.685364 
	C1096.915161,925.699219 1096.154785,925.733643 1095.041260,926.063965 
	C1092.327393,926.651184 1089.909912,926.166382 1087.171631,926.790405 
	C1085.963135,926.796936 1085.161133,926.812927 1083.987061,927.181091 
	C1079.974487,927.665344 1076.312500,927.100769 1072.277832,927.856079 
	C1070.994629,927.879700 1070.139771,927.875610 1068.885132,928.262329 
	C1035.427002,929.550781 1002.919800,925.449341 970.282837,918.435913 
	C968.782471,918.277100 967.715393,918.094482 966.319458,917.664673 
	C964.907715,916.942566 963.808105,916.470581 962.242126,916.284424 
	C960.956970,916.086731 960.016357,915.958252 958.835205,915.371155 
	C957.465881,914.636047 956.321167,914.347717 954.799072,914.051025 
	C951.202454,912.112854 948.419495,909.251953 943.931763,909.331421 
	C941.899719,909.074768 940.572449,907.869263 938.567017,907.487366 
	C936.928284,906.603516 935.871582,905.348572 933.865173,905.321716 
	C932.615173,905.279480 931.800903,904.855286 930.616455,904.535522 
	C929.710510,904.203247 929.156067,903.887695 928.250244,903.575928 
	C926.682434,902.690369 925.434448,901.875854 923.631226,901.515503 
	C922.781921,901.178162 922.263245,900.869141 921.390381,900.609009 
	C920.321167,900.231018 919.615723,899.783936 918.539062,899.401184 
	C917.713867,899.013733 917.200623,898.697327 916.311401,898.449890 
	C915.796448,898.308716 915.591858,898.239624 915.090454,898.037048 
	C913.886047,897.370483 913.004639,896.786133 911.672729,896.326233 
	C896.477173,888.463318 881.561096,880.802002 867.208618,872.111755 
	C845.608704,859.033386 824.646790,844.980591 803.589722,830.473877 
	C802.509338,830.001099 801.910278,829.498291 801.616089,828.429688 
	C801.493042,828.239502 801.683655,828.472412 801.746094,828.664307 
	C802.083496,829.988953 803.054443,830.268799 804.279419,830.769348 
	C815.064209,839.156860 824.569153,848.497742 834.263184,857.583923 
	C849.671448,872.025818 864.941284,886.627991 880.270203,901.154053 
	C905.047974,924.634277 928.949341,948.981018 952.914612,973.256714 
	C969.379883,989.935242 985.490479,1007.004211 1001.131165,1024.470093 
	C1011.882812,1036.476440 1022.813904,1048.350952 1032.834351,1061.003418 
	C1034.091064,1062.590332 1035.565308,1064.028076 1034.270752,1066.606201 
	C1033.799805,1067.041138 1033.576904,1067.180054 1032.982178,1067.464355 
	C1027.552979,1069.421631 1022.889893,1066.924805 1017.669434,1066.211426 
	C1014.239746,1065.781006 1012.743469,1062.226685 1009.094604,1062.387207 
	C1007.734009,1062.398193 1006.847778,1061.919800 1005.537048,1061.671509 
	C1004.507324,1061.365479 1003.877014,1061.032349 1002.895630,1060.604248 
	C992.485352,1054.359985 981.395325,1050.127686 971.563965,1043.553711 
	C962.609314,1037.565918 953.307251,1032.081299 944.917847,1024.709229 
	C943.990479,1023.417603 943.122864,1022.595764 941.913086,1022.243042 
	C942.441162,1022.570496 943.083801,1022.617554 943.751831,1023.329956 
	C954.379150,1037.154541 965.225464,1050.336182 977.557983,1062.697632 
	C978.119141,1063.275513 978.431519,1063.612305 978.962463,1064.212891 
	C982.867554,1069.364014 987.140320,1073.670532 992.262451,1077.611694 
	C992.878418,1078.116333 993.219727,1078.417847 993.804688,1078.960693 
	C997.733643,1082.607422 1000.893311,1086.576782 1005.336548,1089.679688 
	C1005.965698,1090.203125 1006.315613,1090.516235 1006.920044,1091.080566 
	C1026.795044,1109.712646 1048.529175,1125.266113 1071.311157,1139.439209 
	C1077.954712,1143.572144 1084.804932,1147.322510 1091.628784,1151.131226 
	C1093.608643,1152.236328 1096.087524,1153.083618 1095.124756,1156.535156 
	C1094.664551,1156.999756 1094.441650,1157.149902 1093.839966,1157.457764 
	C1088.181030,1159.263794 1082.896606,1158.274536 1077.672974,1157.431641 
	C1069.998535,1156.193359 1062.101929,1156.153198 1054.357178,1153.179932 
	C1052.259277,1152.546387 1051.011475,1151.136841 1049.530151,1150.557983 
	C1050.781982,1150.847412 1051.638672,1152.201782 1053.355957,1152.780396 
	C1063.757568,1158.736694 1073.370361,1165.302368 1083.946045,1170.276733 
	C1096.901855,1176.370605 1110.489624,1180.463013 1124.650024,1181.246826 
	C1138.513916,1182.014160 1152.057861,1178.930176 1165.039429,1173.733276 
	C1169.031372,1172.135254 1172.783447,1169.838379 1177.552734,1169.307129 
	C1178.746948,1169.445435 1179.547241,1169.512085 1180.744629,1169.661987 
	C1182.259399,1170.043701 1182.872803,1170.934692 1183.769287,1172.080078 
	C1184.433594,1172.985718 1184.711304,1173.669678 1185.217285,1174.632324 
	C1185.808228,1175.748779 1185.851440,1176.694214 1186.462891,1177.781006 
	C1186.857422,1178.660522 1187.023682,1179.277344 1187.457520,1180.140015 
	C1188.088135,1182.608887 1188.797363,1184.685059 1190.443970,1186.717285 
	C1190.979248,1187.595703 1191.214111,1188.240723 1191.652832,1189.183228 
	C1192.658569,1194.782715 1196.192749,1198.783936 1198.520142,1203.342163 
	C1203.688477,1213.464722 1210.549927,1222.494263 1218.011963,1231.002563 
	C1227.749512,1242.105225 1239.864990,1249.801880 1253.734497,1254.836304 
	C1255.845093,1255.602295 1259.062134,1255.687378 1258.227051,1259.718018 
z"/>
<path fill="#FF3B1A" opacity="1.000000" stroke="none" 
	d="
M1606.000000,1054.531372 
	C1604.480469,1054.838989 1604.219238,1055.647095 1603.939941,1057.020996 
	C1602.874390,1062.262085 1601.118896,1067.279907 1598.123901,1072.389160 
	C1587.937622,1057.817383 1576.610229,1044.622192 1564.013062,1032.642334 
	C1545.027832,1014.587341 1525.031616,997.749329 1503.503784,982.678650 
	C1480.448853,966.538818 1456.401855,952.143860 1431.198608,939.752930 
	C1403.084839,925.930969 1373.673462,915.330688 1343.162964,908.262207 
	C1328.087036,904.769531 1312.739014,902.278748 1297.227051,900.866089 
	C1282.272461,899.504028 1267.325073,898.570740 1252.336792,897.727295 
	C1235.872681,896.800720 1219.425537,896.716980 1203.029907,897.248962 
	C1189.589722,897.685120 1176.117554,897.207336 1162.730103,898.127441 
	C1135.959106,899.967529 1109.148804,899.528198 1082.434204,898.665039 
	C1057.489380,897.859009 1032.697998,894.203552 1008.501038,887.115845 
	C982.682556,879.553284 958.990906,867.905334 937.630615,851.751770 
	C925.092346,842.269775 912.533936,832.793884 900.617432,822.442322 
	C889.703613,812.961670 879.288330,803.029358 869.297241,792.655212 
	C860.532166,783.553955 852.649658,773.650024 844.997070,763.566284 
	C833.249084,748.086426 822.502136,731.924622 812.120544,715.531372 
	C797.560547,692.540222 783.301270,669.357178 769.060791,646.165710 
	C760.533508,632.278687 751.418396,618.744263 744.003418,604.181824 
	C736.767822,589.971497 729.399231,575.826965 721.927795,561.739075 
	C708.599365,536.607422 693.622253,512.562805 675.874939,490.230408 
	C659.934265,470.171387 642.725281,451.295105 624.106873,433.776001 
	C604.157715,415.004517 583.385376,397.172546 561.914062,380.082367 
	C537.972839,361.026306 513.554077,342.647064 488.986450,324.435150 
	C471.661682,311.592316 454.225128,298.881439 437.283203,285.546631 
	C422.339294,273.784485 407.504486,261.870941 392.941254,249.612885 
	C375.276855,234.744568 358.736755,218.733734 342.776764,202.124969 
	C332.875977,191.821747 323.775909,180.754730 315.080383,169.386078 
	C297.451355,146.337723 282.865417,121.466408 270.635895,95.187172 
	C264.316254,81.607292 259.550690,67.407440 254.156937,53.459068 
	C253.824188,52.598560 254.113708,51.497425 254.113708,49.632469 
	C258.005310,54.303207 261.423187,58.414425 264.850922,62.517368 
	C271.374390,70.325775 277.678589,78.331757 284.477997,85.892227 
	C297.853546,100.764923 311.252716,115.632019 325.110016,130.051773 
	C340.825989,146.405716 357.264374,162.047195 374.285828,177.056854 
	C385.631378,187.061432 396.870636,197.188293 408.886261,206.407242 
	C417.973114,213.379166 426.917725,220.537048 436.029266,227.476105 
	C450.053375,238.156418 464.534882,248.192703 479.303680,257.816986 
	C500.203979,271.436890 521.346863,284.656097 543.229248,296.658173 
	C557.394775,304.427673 571.294617,312.745026 585.805115,319.806732 
	C606.541931,329.898590 627.277405,340.005035 648.394226,349.342407 
	C669.248779,358.563873 690.177612,367.581909 711.357788,375.997131 
	C728.875793,382.957306 746.529358,389.604797 764.292419,395.913208 
	C788.186951,404.399170 812.118103,412.821625 836.267822,420.538055 
	C860.102966,428.153900 884.207336,434.933899 908.236389,441.933746 
	C925.865417,447.069153 943.609985,451.810028 961.220215,457.007385 
	C989.594910,465.381714 1017.755981,474.447754 1045.964600,483.366058 
	C1080.248169,494.204956 1114.088745,506.276886 1147.519287,519.422424 
	C1167.811768,527.401855 1187.802734,536.196533 1207.529419,545.618713 
	C1230.858398,556.761414 1253.383667,569.111206 1274.583252,583.895569 
	C1292.371460,596.300842 1308.643311,610.376465 1319.566772,629.362427 
	C1331.066406,649.349915 1331.478394,670.830811 1325.670532,692.712830 
	C1322.490967,704.692993 1317.585083,716.044312 1313.155884,727.574829 
	C1307.906738,741.239563 1302.055176,754.906250 1301.230347,769.647827 
	C1300.538696,782.007812 1304.032959,795.042603 1319.321533,801.200317 
	C1342.602783,810.577087 1366.842285,816.851379 1390.708252,824.344421 
	C1415.839478,832.234863 1441.050171,840.017639 1465.312866,850.283386 
	C1487.825928,859.808899 1509.749634,870.705872 1526.653687,889.208496 
	C1533.497559,896.699585 1538.322632,905.242126 1539.058594,915.703186 
	C1539.260254,918.568970 1540.708008,921.286255 1539.119019,924.281433 
	C1538.415405,925.607666 1540.088623,926.580322 1541.013916,927.481628 
	C1553.670044,939.809204 1564.939697,953.370972 1575.075439,967.765747 
	C1587.576782,985.520203 1598.367188,1004.250488 1603.493896,1025.728516 
	C1603.954102,1027.656860 1602.964111,1030.245605 1605.665283,1031.314453 
	C1606.000000,1038.687622 1606.000000,1046.375122 1606.000000,1054.531372 
z"/>
<path fill="#FF3B1A" opacity="1.000000" stroke="none" 
	d="
M1248.795776,907.404907 
	C1279.479126,906.716553 1309.588135,909.735352 1339.634033,916.974365 
	C1340.762817,917.731384 1341.406372,918.482361 1342.658447,918.454163 
	C1346.891235,918.216858 1350.531616,919.669189 1354.625977,920.967285 
	C1355.762817,921.731384 1356.406372,922.482361 1357.658447,922.454163 
	C1359.147827,921.950378 1360.364380,921.727966 1361.668213,923.001831 
	C1368.170288,926.204956 1374.812866,927.889954 1381.689697,929.902710 
	C1382.923462,929.995972 1383.822266,930.060181 1384.699219,931.026062 
	C1385.449219,931.503906 1385.899658,931.838684 1386.763184,931.898071 
	C1387.923706,931.995728 1388.822266,932.060425 1389.699219,933.026062 
	C1390.449219,933.503906 1390.899658,933.838684 1391.763184,933.898071 
	C1392.923706,933.995728 1393.822266,934.060425 1394.699219,935.026062 
	C1395.449219,935.503906 1395.899658,935.838684 1396.763184,935.898071 
	C1397.923706,935.995728 1398.822266,936.060425 1399.699219,937.026062 
	C1400.449219,937.503906 1400.899658,937.838684 1401.763184,937.898071 
	C1405.751465,938.977051 1408.986084,941.049561 1412.676025,943.007935 
	C1413.449219,943.503906 1413.899658,943.838684 1414.763184,943.898071 
	C1425.434570,948.204651 1435.277100,953.621277 1445.104126,959.046875 
	C1459.194336,966.826233 1472.998657,975.115234 1486.399536,984.017090 
	C1498.722900,992.203125 1510.696533,1000.915527 1522.968262,1009.719604 
	C1522.967529,1010.553711 1522.822876,1011.064453 1522.189941,1012.204163 
	C1517.703369,1010.868835 1513.252563,1011.734375 1509.088867,1011.258606 
	C1492.594727,1009.373596 1475.914551,1009.212585 1459.381348,1010.179565 
	C1430.740601,1011.854675 1402.932007,1018.166077 1376.471436,1029.364014 
	C1361.488159,1035.704834 1347.061279,1043.348389 1332.275146,1050.169800 
	C1308.930298,1060.939697 1285.229736,1070.522583 1259.686646,1075.199585 
	C1245.793457,1077.743286 1231.973511,1076.460693 1218.124023,1076.928589 
	C1215.733887,1077.009399 1213.430542,1075.289917 1210.548340,1076.423584 
	C1213.549316,1083.964966 1219.379639,1089.637085 1224.705933,1096.018555 
	C1225.182373,1096.278809 1225.342529,1096.391113 1225.667969,1096.745605 
	C1233.219360,1103.753418 1241.442139,1109.302246 1250.676514,1114.008545 
	C1251.449219,1114.503906 1251.899536,1114.838989 1252.763184,1114.898193 
	C1254.699219,1115.078613 1256.040283,1115.958252 1257.685059,1117.014893 
	C1259.280518,1118.184082 1260.750000,1118.731323 1262.703369,1118.904541 
	C1265.132446,1119.529907 1267.221191,1120.172852 1269.655029,1120.991211 
	C1270.762817,1121.731323 1271.406494,1122.481934 1272.658447,1122.454102 
	C1281.236328,1123.617920 1289.540039,1125.075439 1297.863525,1126.411255 
	C1301.893188,1127.058105 1305.945923,1127.646484 1310.011475,1127.971191 
	C1329.710693,1129.545044 1349.554443,1129.828857 1368.846680,1134.927124 
	C1370.469849,1135.356201 1371.914917,1135.911133 1373.643066,1136.980713 
	C1375.602051,1138.535889 1377.709839,1138.752197 1379.827881,1139.777832 
	C1388.882812,1142.785156 1394.036743,1152.844849 1395.009399,1161.201172 
	C1396.951294,1177.888062 1391.722656,1193.219727 1386.149658,1208.487427 
	C1384.810913,1212.154907 1383.333984,1215.771851 1381.955688,1219.425293 
	C1381.653809,1220.225342 1381.383789,1220.995117 1380.362915,1220.976807 
	C1378.866577,1220.949951 1379.039185,1219.678833 1379.086182,1218.858643 
	C1379.550415,1210.763550 1378.373291,1202.822510 1376.937500,1194.472412 
	C1376.783447,1191.335693 1375.725464,1188.915527 1374.369263,1186.262329 
	C1369.927124,1177.149292 1364.424316,1169.366821 1356.245483,1163.609741 
	C1346.942261,1157.060913 1336.325439,1154.790039 1325.349976,1154.072021 
	C1309.072388,1153.007324 1293.164185,1155.812744 1278.315674,1162.211792 
	C1262.767944,1168.912598 1249.577637,1178.737915 1245.668823,1196.789673 
	C1243.320801,1207.632935 1246.181885,1217.307861 1251.975708,1226.613770 
	C1258.463257,1237.033569 1268.140747,1243.588745 1278.058716,1250.025879 
	C1278.879761,1250.558716 1279.601929,1251.243530 1280.685059,1252.012207 
	C1281.449219,1252.503906 1281.899536,1252.838989 1282.763184,1252.898193 
	C1284.933472,1253.683594 1286.822998,1254.479858 1288.877441,1255.580811 
	C1290.581665,1258.680908 1287.965332,1258.673218 1286.299194,1259.754150 
	C1276.979126,1260.000000 1267.958130,1260.000000 1258.468628,1260.000000 
	C1258.827271,1258.446289 1257.699951,1258.314331 1256.627930,1258.016846 
	C1236.897583,1252.542603 1221.916138,1240.709717 1209.610962,1224.512695 
	C1201.546753,1213.897949 1195.054932,1202.518677 1188.945679,1190.413330 
	C1188.946289,1189.471558 1188.845703,1188.932373 1188.333252,1188.226685 
	C1187.110229,1185.920410 1186.053711,1183.841064 1184.944824,1181.405273 
	C1184.946289,1180.471558 1184.845703,1179.932373 1184.333252,1179.226685 
	C1183.775757,1178.234497 1183.384766,1177.469360 1182.943237,1176.376465 
	C1182.946289,1175.471558 1182.845703,1174.932373 1182.333252,1174.226685 
	C1181.779541,1173.254028 1181.392456,1172.508423 1180.981689,1171.438965 
	C1180.312134,1170.178833 1179.498291,1169.909180 1178.235107,1170.660889 
	C1164.284546,1176.942627 1150.441895,1181.911743 1135.131104,1183.271240 
	C1117.166504,1184.866333 1100.934692,1180.098267 1084.911987,1173.382202 
	C1073.293579,1168.512085 1062.830322,1161.508789 1052.113647,1154.410767 
	C1051.547363,1152.902222 1051.618896,1151.777466 1052.819824,1150.477417 
	C1066.284180,1153.269531 1079.452026,1156.234009 1093.542725,1156.096924 
	C1094.174316,1156.238403 1094.348022,1156.310181 1094.705444,1156.168091 
	C1080.554688,1147.707275 1066.036133,1139.766602 1052.513306,1130.180054 
	C1039.324219,1120.829834 1025.963135,1111.729126 1014.044373,1100.693726 
	C1011.282593,1098.136597 1008.282593,1095.797974 1005.289307,1092.977539 
	C1004.817566,1092.721191 1004.657410,1092.608887 1004.331970,1092.254395 
	C999.833740,1088.888550 996.465149,1084.740845 992.288757,1080.977051 
	C991.817566,1080.721191 991.657410,1080.608887 991.331970,1080.254395 
	C986.193848,1075.835083 981.284912,1071.595459 977.288452,1065.995605 
	C976.817566,1065.721191 976.657410,1065.608887 976.331970,1065.254395 
	C965.342957,1054.038330 955.695862,1042.034546 945.790039,1030.258545 
	C944.437256,1028.650269 943.310730,1026.851807 942.101685,1024.763916 
	C942.454041,1023.384338 943.235046,1022.973633 944.655151,1022.878906 
	C952.727417,1028.116699 960.310608,1033.329224 967.968811,1038.429321 
	C979.204407,1045.911865 991.420410,1051.623779 1003.675659,1058.007568 
	C1004.449219,1058.504150 1004.899780,1058.838623 1005.763184,1058.898071 
	C1006.923645,1058.995972 1007.822327,1059.060181 1008.699219,1060.026123 
	C1011.546753,1062.002319 1014.805847,1062.204956 1017.690918,1063.551025 
	C1022.899170,1063.017578 1027.242310,1065.905884 1032.563477,1066.096680 
	C1033.174316,1066.238403 1033.348022,1066.310181 1033.705444,1066.168091 
	C1026.196655,1057.198975 1018.869324,1048.138916 1011.092834,1039.442505 
	C992.903076,1019.101257 974.096191,999.359375 955.318054,979.566711 
	C931.970215,954.957520 907.758118,931.225464 883.605347,907.444580 
	C874.270691,898.253662 864.813049,889.100098 855.011047,880.330322 
	C838.995300,866.001221 823.550598,851.034241 807.835632,836.367859 
	C806.411255,835.038513 804.773254,833.938049 803.096069,832.422974 
	C802.428528,830.918884 801.988342,829.708435 802.580017,827.766968 
	C817.141174,836.762939 831.334229,846.551575 845.805359,855.910278 
	C867.271240,869.792542 889.397705,882.555725 912.675537,894.007568 
	C913.762207,894.844360 914.696838,895.218018 915.858398,895.800110 
	C916.114380,895.957520 916.567139,896.020264 916.783630,896.093445 
	C917.449158,896.504089 917.899597,896.838745 918.763123,896.898010 
	C919.923523,896.995972 920.822266,897.060303 921.699219,898.026062 
	C922.449158,898.504089 922.899597,898.838745 923.763123,898.898010 
	C925.698975,899.078857 927.040161,899.958069 928.684814,901.014893 
	C929.449158,901.504089 929.899597,901.838745 930.763123,901.898010 
	C931.923523,901.995972 932.822266,902.060303 933.699219,903.026062 
	C935.280457,904.184082 936.750122,904.731018 938.703369,904.904480 
	C940.698853,905.078857 942.040161,905.957947 943.684814,907.014893 
	C947.499084,909.471130 951.836243,909.725830 955.680420,911.545166 
	C957.167664,910.916626 958.361511,910.742004 959.668823,912.002441 
	C960.763000,912.731140 961.406433,913.482239 962.658508,913.454102 
	C964.147766,912.950439 965.364258,912.727844 966.668091,914.001831 
	C967.763000,914.731140 968.406433,915.482239 969.658508,915.454102 
	C976.539673,916.596924 983.125427,918.148804 989.776855,919.332214 
	C1000.188354,921.184570 1010.571777,923.064148 1021.135559,924.179688 
	C1036.775757,925.831299 1052.405273,926.001770 1068.536865,926.096924 
	C1069.694092,926.487488 1070.180298,926.180054 1070.795776,925.404907 
	C1075.028198,925.120239 1079.055908,925.073792 1083.542236,925.097046 
	C1084.694092,925.487488 1085.180298,925.180054 1085.795776,924.404907 
	C1088.703613,924.120239 1091.406494,924.073792 1094.555298,924.097046 
	C1095.694092,924.487488 1096.180298,924.180054 1096.795776,923.404907 
	C1098.717773,923.120178 1100.434814,923.073792 1102.576538,923.097046 
	C1103.694092,923.487488 1104.180298,923.180054 1104.795776,922.404907 
	C1107.045166,922.120239 1109.089722,922.073853 1111.567627,922.097046 
	C1112.694092,922.487488 1113.180298,922.180054 1113.795776,921.404907 
	C1115.392212,921.120178 1116.783691,921.073792 1118.588135,921.097046 
	C1119.694092,921.487488 1120.180298,921.180054 1120.795776,920.404907 
	C1122.717773,920.120239 1124.434814,920.073853 1126.576538,920.097046 
	C1127.694092,920.487488 1128.180298,920.180054 1128.795776,919.404907 
	C1130.717773,919.120239 1132.434814,919.073853 1134.576538,919.097046 
	C1135.694092,919.487488 1136.180298,919.180054 1136.795776,918.404907 
	C1138.717773,918.120239 1140.434814,918.073853 1142.576538,918.097046 
	C1143.694092,918.487488 1144.180298,918.180054 1144.795776,917.404907 
	C1146.069824,917.120239 1147.138916,917.073914 1148.604614,917.097046 
	C1149.694092,917.487488 1150.180298,917.180054 1150.795776,916.404907 
	C1152.717773,916.120239 1154.434814,916.073853 1156.576538,916.097046 
	C1157.694092,916.487488 1158.180298,916.180054 1158.795776,915.404907 
	C1160.392212,915.120239 1161.783691,915.073792 1163.588135,915.097046 
	C1164.694092,915.487488 1165.180298,915.180054 1165.795776,914.404907 
	C1167.717773,914.120239 1169.434814,914.073853 1171.576538,914.097046 
	C1172.694092,914.487488 1173.180298,914.180054 1173.795776,913.404907 
	C1175.717773,913.120239 1177.434814,913.073853 1179.576538,913.097046 
	C1180.694092,913.487488 1181.180298,913.180054 1181.795776,912.404907 
	C1183.717773,912.120239 1185.434814,912.073853 1187.576538,912.097046 
	C1188.694092,912.487488 1189.180298,912.180054 1189.795776,911.404907 
	C1192.045166,911.120239 1194.089722,911.073853 1196.567627,911.097046 
	C1197.694092,911.487488 1198.180298,911.180054 1198.795776,910.404907 
	C1202.034180,910.120178 1205.067871,910.073792 1208.551270,910.097046 
	C1209.694092,910.487488 1210.180298,910.180054 1210.795776,909.404907 
	C1214.364868,909.120239 1217.729248,909.073853 1221.547363,909.097046 
	C1222.694092,909.487488 1223.180298,909.180054 1223.795776,908.404907 
	C1231.358032,908.120178 1238.715454,908.073669 1246.536987,908.096924 
	C1247.694092,908.487488 1248.180298,908.180054 1248.795776,907.404907 
z"/>
<path fill="#FF3B1A" opacity="1.000000" stroke="none" 
	d="
M1.000000,3.449979 
	C5.472849,4.255299 8.031845,8.063163 10.543213,11.294355 
	C16.463133,18.911083 23.651043,25.296865 30.142117,32.321518 
	C45.886578,49.360214 62.280235,65.814766 78.763596,82.150223 
	C93.183334,96.440582 107.897324,110.447891 122.820129,124.212929 
	C138.160858,138.363464 153.546707,152.507019 169.567871,165.868179 
	C194.349686,186.535400 219.153595,207.176071 244.918076,226.666306 
	C269.667572,245.388748 294.631866,263.769257 320.385803,281.072601 
	C340.685669,294.711548 361.007874,308.319244 381.437714,321.762115 
	C412.073547,341.920593 443.359833,361.079620 473.587219,381.869934 
	C496.469666,397.608429 519.063843,413.702850 540.757446,431.085480 
	C556.941772,444.053680 572.689636,457.467194 588.081726,471.364380 
	C597.720398,480.066925 607.067688,489.060394 615.826172,498.560059 
	C631.382385,515.432800 646.292786,532.865784 659.137512,552.025574 
	C667.880127,565.066467 675.979675,578.445740 682.961243,592.446777 
	C689.050232,604.657654 694.632935,617.154297 699.016479,630.517090 
	C699.197571,632.833008 697.919617,632.605652 696.287109,632.245972 
	C687.818726,621.950134 679.870789,611.772888 671.578186,601.849243 
	C661.605957,589.915527 650.528931,579.120850 639.622925,568.122864 
	C627.186401,555.581482 613.660767,544.312134 599.920349,533.222595 
	C583.617615,520.065063 566.555115,508.047943 549.099121,496.521271 
	C529.776367,483.761963 509.842407,472.012634 489.823792,460.407257 
	C451.615631,438.256744 412.849792,417.102783 375.895386,392.770844 
	C355.211456,379.151917 334.116669,366.126251 313.599243,352.226837 
	C287.641235,334.641815 262.244873,316.285980 237.489395,297.036987 
	C220.914810,284.149139 204.582886,270.984406 188.669098,257.277863 
	C173.640457,244.333664 159.208298,230.760147 144.570190,217.396988 
	C131.428970,205.400360 119.508904,192.277695 107.302162,179.456604 
	C93.860489,165.338425 81.745659,149.975464 69.684273,134.592239 
	C55.534504,116.545486 42.915802,97.526398 31.501287,77.741402 
	C20.023949,57.847527 10.499064,36.962223 4.070359,14.812179 
	C3.595081,13.174614 2.726546,12.252369 1.277285,11.668394 
	C1.000000,9.299986 1.000000,6.599972 1.000000,3.449979 
z"/>
<path fill="#FF3B1A" opacity="1.000000" stroke="none" 
	d="
M1286.437500,1260.000000 
	C1286.927368,1258.827515 1287.854614,1257.654907 1288.912109,1256.183838 
	C1289.990723,1257.255859 1295.119995,1254.952759 1292.660400,1259.808228 
	C1290.958374,1260.000000 1288.916626,1260.000000 1286.437500,1260.000000 
z"/>
<path fill="#FF3B1A" opacity="1.000000" stroke="none" 
	d="
M712.738525,736.180420 
	C702.204041,724.232910 691.596558,712.844299 680.475342,701.918213 
	C662.848816,684.601013 643.669495,669.218445 623.606262,654.836609 
	C597.156555,635.876587 569.232239,619.458557 540.302795,604.598999 
	C517.664978,592.971130 494.706573,582.008667 471.732422,571.102173 
	C452.258362,561.857361 433.071930,552.072998 413.745209,542.554932 
	C386.673737,529.222900 360.723663,513.936584 334.721680,498.765472 
	C309.111328,483.822876 284.112000,467.792145 259.780334,450.834412 
	C239.804626,436.912476 220.131119,422.542236 201.318604,407.005463 
	C189.002426,396.833832 177.018127,386.324890 165.061707,375.745972 
	C153.583374,365.590057 142.745056,354.788483 132.348175,343.625763 
	C108.053215,317.541199 86.444679,289.431030 71.385490,256.805145 
	C67.221039,247.782822 64.006615,238.404968 61.351612,228.830399 
	C61.076923,227.839813 60.641270,226.744278 61.675705,226.265259 
	C62.771919,225.757614 63.309578,226.965775 63.950840,227.706268 
	C72.721916,237.834702 82.428574,247.062134 91.996956,256.403809 
	C103.560249,267.693115 115.198631,278.932800 127.279510,289.658936 
	C151.689026,311.331299 176.860825,332.072327 202.978867,351.707031 
	C222.830246,366.630646 243.157867,380.836334 263.606567,394.892120 
	C289.941315,412.993805 317.419189,429.305084 344.757965,445.794586 
	C364.432007,457.661102 384.970490,468.084351 404.920807,479.505188 
	C435.354401,496.927368 466.709656,512.672546 496.759613,530.812439 
	C519.230408,544.377136 541.831848,557.711853 563.322876,572.789978 
	C582.197083,586.032104 600.821899,599.583252 618.392639,614.619080 
	C631.943787,626.215271 645.172668,638.100708 657.402649,651.028381 
	C673.415100,667.954285 687.565308,686.346191 699.296448,706.573669 
	C704.229675,715.079651 708.200439,724.051636 712.876221,732.672913 
	C713.439819,733.712036 714.590454,734.848206 713.792786,736.325623 
	C713.740051,736.423157 713.598083,736.529419 713.496399,736.530640 
	C713.336365,736.532593 713.175232,736.448730 712.738525,736.180420 
z"/>
<path fill="#FF3B1A" opacity="1.000000" stroke="none" 
	d="
M742.663513,843.280029 
	C756.907898,853.447205 771.124023,863.045471 784.713501,873.461304 
	C798.772949,884.237366 812.347778,895.644348 825.831360,907.165405 
	C848.998779,926.961182 871.351868,947.592346 892.790588,969.235901 
	C895.602905,972.075073 898.779846,974.553101 902.223999,977.581970 
	C897.443237,978.806641 894.402222,975.860046 891.276367,974.474243 
	C869.548645,964.841431 847.589355,955.775940 825.546265,946.907776 
	C800.041321,936.646729 773.809570,928.588379 747.422119,920.937866 
	C722.124634,913.603333 696.568604,907.270813 671.086304,900.667786 
	C651.863098,895.686584 632.844482,890.111023 614.137146,883.519958 
	C593.102783,876.109070 572.537964,867.578552 552.243713,858.238037 
	C523.233459,844.885925 495.830383,828.924500 469.403656,811.122314 
	C452.406281,799.672058 436.415009,786.990906 420.897980,773.597534 
	C408.443787,762.847778 396.665070,751.447998 385.278564,739.639648 
	C377.741791,731.823547 370.859070,723.375305 363.731445,715.168518 
	C363.067688,714.404358 362.749603,713.340027 362.923981,711.751953 
	C367.784424,715.173218 372.700317,718.518738 377.495331,722.029358 
	C395.270569,735.043030 413.581299,747.237976 432.325867,758.820129 
	C445.240051,766.799744 458.427429,774.300354 471.904846,781.209167 
	C488.709259,789.823486 506.020630,797.408691 523.771118,803.953491 
	C541.216431,810.385742 559.146912,815.042725 577.344604,818.624207 
	C598.109619,822.711060 619.115173,823.873474 641.077332,822.707275 
	C618.822693,792.687927 586.800842,776.578125 556.247498,758.450439 
	C571.138916,761.094421 585.399353,765.447144 599.513855,770.247681 
	C628.268799,780.027527 655.794128,792.651367 682.557312,806.940063 
	C703.124756,817.920898 722.962036,830.139038 742.663513,843.280029 
z"/>
<path fill="#FF3B1A" opacity="1.000000" stroke="none" 
	d="
M1381.849854,929.565796 
	C1374.838745,929.883667 1368.545898,926.950500 1362.167969,923.459290 
	C1368.552124,925.192627 1375.104126,927.218628 1381.849854,929.565796 
z"/>
<path fill="#FF3B1A" opacity="1.000000" stroke="none" 
	d="
M1052.800415,1150.092285 
	C1052.845703,1151.225342 1052.554688,1152.284058 1052.106934,1153.724365 
	C1049.532593,1152.293823 1047.114990,1150.481567 1044.287720,1148.362061 
	C1047.643311,1147.341431 1049.885376,1149.590332 1052.800415,1150.092285 
z"/>
<path fill="#FF3B1A" opacity="1.000000" stroke="none" 
	d="
M944.965454,1022.641724 
	C944.365906,1023.316162 943.621033,1023.678040 942.500122,1024.213135 
	C940.416992,1022.856995 938.379211,1021.608276 937.512756,1018.934448 
	C937.222534,1018.335205 937.135864,1017.994385 937.560059,1017.784912 
	C940.901001,1018.499695 942.393127,1021.129395 944.965454,1022.641724 
z"/>
<path fill="#FF3B1A" opacity="1.000000" stroke="none" 
	d="
M696.029297,632.353333 
	C696.753723,631.790222 697.621887,631.537903 698.770508,631.090454 
	C700.114868,633.393127 701.956299,635.629456 701.837280,638.660339 
	C698.762695,637.588989 698.241821,634.412598 696.029297,632.353333 
z"/>
<path fill="#FF3B1A" opacity="1.000000" stroke="none" 
	d="
M955.624878,911.045410 
	C951.611755,911.626648 947.804199,910.253418 944.168457,907.459961 
	C947.949951,907.828918 951.631226,909.318909 955.624878,911.045410 
z"/>
<path fill="#FF3B1A" opacity="1.000000" stroke="none" 
	d="
M789.560059,818.784912 
	C792.877441,819.556641 794.696655,821.863403 797.143799,823.096924 
	C798.248840,823.654053 798.676941,824.703369 798.204895,825.480957 
	C797.674316,826.355225 796.328308,826.319031 795.535522,825.630676 
	C793.544495,823.902100 791.685730,822.021240 789.541504,819.938721 
	C789.222534,819.335205 789.135864,818.994385 789.560059,818.784912 
z"/>
<path fill="#FF3B1A" opacity="1.000000" stroke="none" 
	d="
M1017.627319,1063.046631 
	C1014.696472,1063.737427 1011.803162,1062.995361 1009.171692,1060.463013 
	C1011.942810,1060.519897 1014.634094,1061.654663 1017.627319,1063.046631 
z"/>
<path fill="#FF3B1A" opacity="1.000000" stroke="none" 
	d="
M1374.105225,1186.373047 
	C1376.762207,1187.856445 1377.388916,1190.507324 1377.040527,1193.770142 
	C1375.942993,1191.614502 1374.993408,1189.180298 1374.105225,1186.373047 
z"/>
<path fill="#FF3B1A" opacity="1.000000" stroke="none" 
	d="
M802.647461,827.067017 
	C802.870972,828.403381 802.918274,829.640015 802.961609,831.495605 
	C802.051819,831.328125 801.145996,830.541687 800.180176,829.556152 
	C800.140259,828.722229 800.160278,828.087341 800.322571,826.510437 
	C801.133606,826.034729 801.802429,826.501038 802.647461,827.067017 
z"/>
<path fill="#FF3B1A" opacity="1.000000" stroke="none" 
	d="
M1379.958252,1139.633667 
	C1377.983032,1139.759033 1375.834473,1139.604614 1374.167480,1137.458984 
	C1376.124756,1137.365112 1378.183105,1137.742554 1379.958252,1139.633667 
z"/>
<path fill="#FF3B1A" opacity="1.000000" stroke="none" 
	d="
M938.867798,904.577026 
	C937.098511,905.948425 935.583252,905.273926 934.144287,903.437988 
	C935.564087,903.533508 937.127991,903.900330 938.867798,904.577026 
z"/>
<path fill="#FF3B1A" opacity="1.000000" stroke="none" 
	d="
M1262.867920,1118.577148 
	C1261.098511,1119.948364 1259.583374,1119.273926 1258.144409,1117.437988 
	C1259.564209,1117.533447 1261.128174,1117.900269 1262.867920,1118.577148 
z"/>
<path fill="#FF3B1A" opacity="1.000000" stroke="none" 
	d="
M799.535339,827.628906 
	C798.467041,827.760071 797.847595,827.441711 797.434448,826.949951 
	C796.488342,825.823975 793.523132,825.375305 794.890320,823.574524 
	C796.278687,821.745728 798.083740,823.602295 799.735352,825.244629 
	C800.088867,826.091064 800.083313,826.595825 799.535339,827.628906 
z"/>
<path fill="#FF3B1A" opacity="1.000000" stroke="none" 
	d="
M1522.877441,1010.738220 
	C1523.945312,1010.980225 1526.027100,1010.560913 1525.778564,1012.247009 
	C1525.603882,1013.432129 1524.215820,1012.860901 1522.983521,1012.902588 
	C1522.604492,1012.351624 1522.582153,1011.869934 1522.877441,1010.738220 
z"/>
<path fill="#FF3B1A" opacity="1.000000" stroke="none" 
	d="
M1178.365479,1170.903198 
	C1178.801025,1169.416626 1179.679321,1168.864990 1180.859009,1170.851562 
	C1180.215820,1171.067749 1179.473511,1171.020386 1178.365479,1170.903198 
z"/>
<path fill="#FF3B1A" opacity="1.000000" stroke="none" 
	d="
M1120.707764,920.161255 
	C1120.753052,921.077209 1121.069458,922.703552 1119.107788,921.370178 
	C1119.472412,920.829712 1119.943726,920.492798 1120.707764,920.161255 
z"/>
<path fill="#FF3B1A" opacity="1.000000" stroke="none" 
	d="
M1128.707764,919.161255 
	C1128.753052,920.077209 1129.069458,921.703552 1127.107788,920.370117 
	C1127.472412,919.829651 1127.943726,919.492737 1128.707764,919.161255 
z"/>
<path fill="#FF3B1A" opacity="1.000000" stroke="none" 
	d="
M1113.707764,921.161255 
	C1113.753052,922.077209 1114.069458,923.703552 1112.107788,922.370178 
	C1112.472412,921.829712 1112.943726,921.492798 1113.707764,921.161255 
z"/>
<path fill="#FF3B1A" opacity="1.000000" stroke="none" 
	d="
M1104.707764,922.161255 
	C1104.753052,923.077209 1105.069458,924.703552 1103.107788,923.370117 
	C1103.472412,922.829651 1103.943726,922.492737 1104.707764,922.161255 
z"/>
<path fill="#FF3B1A" opacity="1.000000" stroke="none" 
	d="
M1096.707764,923.161255 
	C1096.753052,924.077209 1097.069458,925.703552 1095.107788,924.370239 
	C1095.472412,923.829773 1095.943726,923.492859 1096.707764,923.161255 
z"/>
<path fill="#FF3B1A" opacity="1.000000" stroke="none" 
	d="
M1085.707764,924.161255 
	C1085.753052,925.077209 1086.069458,926.703552 1084.107788,925.370178 
	C1084.472412,924.829712 1084.943726,924.492798 1085.707764,924.161255 
z"/>
<path fill="#FF3B1A" opacity="1.000000" stroke="none" 
	d="
M1070.707764,925.161255 
	C1070.753052,926.077209 1071.069458,927.703552 1069.107788,926.370178 
	C1069.472412,925.829712 1069.943726,925.492798 1070.707764,925.161255 
z"/>
<path fill="#FF3B1A" opacity="1.000000" stroke="none" 
	d="
M915.976807,895.653931 
	C915.026184,895.894897 913.988586,895.718384 913.158813,894.441284 
	C914.316895,893.672791 915.065369,894.541870 915.976807,895.653931 
z"/>
<path fill="#FF3B1A" opacity="1.000000" stroke="none" 
	d="
M1136.707764,918.161255 
	C1136.753052,919.077209 1137.069458,920.703552 1135.107788,919.370239 
	C1135.472412,918.829773 1135.943726,918.492859 1136.707764,918.161255 
z"/>
<path fill="#FF3B1A" opacity="1.000000" stroke="none" 
	d="
M1144.707764,917.161255 
	C1144.753052,918.077209 1145.069458,919.703552 1143.107788,918.370178 
	C1143.472412,917.829712 1143.943726,917.492798 1144.707764,917.161255 
z"/>
<path fill="#FF3B1A" opacity="1.000000" stroke="none" 
	d="
M1150.707764,916.161255 
	C1150.753052,917.077209 1151.069458,918.703552 1149.107788,917.370178 
	C1149.472412,916.829712 1149.943726,916.492798 1150.707764,916.161255 
z"/>
<path fill="#FF3B1A" opacity="1.000000" stroke="none" 
	d="
M1158.707764,915.161255 
	C1158.753052,916.077209 1159.069458,917.703552 1157.107788,916.370239 
	C1157.472412,915.829773 1157.943726,915.492859 1158.707764,915.161255 
z"/>
<path fill="#FF3B1A" opacity="1.000000" stroke="none" 
	d="
M1165.707764,914.161255 
	C1165.753052,915.077209 1166.069458,916.703552 1164.107788,915.370178 
	C1164.472412,914.829712 1164.943726,914.492798 1165.707764,914.161255 
z"/>
<path fill="#FF3B1A" opacity="1.000000" stroke="none" 
	d="
M1173.707764,913.161255 
	C1173.753052,914.077209 1174.069458,915.703552 1172.107788,914.370178 
	C1172.472412,913.829712 1172.943726,913.492798 1173.707764,913.161255 
z"/>
<path fill="#FF3B1A" opacity="1.000000" stroke="none" 
	d="
M1181.707764,912.161255 
	C1181.753052,913.077209 1182.069458,914.703552 1180.107788,913.370239 
	C1180.472412,912.829773 1180.943726,912.492859 1181.707764,912.161255 
z"/>
<path fill="#FF3B1A" opacity="1.000000" stroke="none" 
	d="
M1189.707764,911.161255 
	C1189.753052,912.077209 1190.069458,913.703552 1188.107788,912.370117 
	C1188.472412,911.829651 1188.943726,911.492737 1189.707764,911.161255 
z"/>
<path fill="#FF3B1A" opacity="1.000000" stroke="none" 
	d="
M1248.707764,907.161255 
	C1248.753052,908.077209 1249.069458,909.703552 1247.107788,908.370117 
	C1247.472412,907.829651 1247.943726,907.492737 1248.707764,907.161255 
z"/>
<path fill="#FF3B1A" opacity="1.000000" stroke="none" 
	d="
M1198.707764,910.161255 
	C1198.753052,911.077209 1199.069458,912.703552 1197.107788,911.370178 
	C1197.472412,910.829712 1197.943726,910.492798 1198.707764,910.161255 
z"/>
<path fill="#FF3B1A" opacity="1.000000" stroke="none" 
	d="
M1210.707764,909.161255 
	C1210.753052,910.077209 1211.069458,911.703552 1209.107788,910.370178 
	C1209.472412,909.829712 1209.943726,909.492798 1210.707764,909.161255 
z"/>
<path fill="#FF3B1A" opacity="1.000000" stroke="none" 
	d="
M1223.707764,908.161255 
	C1223.753052,909.077209 1224.069458,910.703552 1222.107788,909.370178 
	C1222.472412,908.829712 1222.943726,908.492798 1223.707764,908.161255 
z"/>
<path fill="#FF3B1A" opacity="1.000000" stroke="none" 
	d="
M1033.662109,1065.987061 
	C1033.957153,1066.320557 1034.025024,1066.686890 1034.092896,1067.053101 
	C1033.779907,1066.879639 1033.467041,1066.706177 1033.077271,1066.349731 
	C1033.000488,1066.166626 1033.435059,1066.019653 1033.662109,1065.987061 
z"/>
<path fill="#FF3B1A" opacity="1.000000" stroke="none" 
	d="
M1282.911621,1252.607666 
	C1282.323608,1253.409424 1281.680298,1253.459351 1281.093750,1252.375732 
	C1281.593140,1252.220459 1282.186401,1252.274292 1282.911621,1252.607666 
z"/>
<path fill="#FF3B1A" opacity="1.000000" stroke="none" 
	d="
M1252.911621,1114.607666 
	C1252.323608,1115.409424 1251.680298,1115.459351 1251.093750,1114.375732 
	C1251.593140,1114.220459 1252.186401,1114.274292 1252.911621,1114.607666 
z"/>
<path fill="#FF3B1A" opacity="1.000000" stroke="none" 
	d="
M1380.290894,1221.510986 
	C1378.869385,1220.401001 1378.958130,1219.129272 1379.739868,1217.967407 
	C1379.888916,1217.745972 1380.915649,1217.744385 1381.102905,1217.982666 
	C1381.986938,1219.107910 1382.244873,1220.320068 1380.290894,1221.510986 
z"/>
<path fill="#FF3B1A" opacity="1.000000" stroke="none" 
	d="
M1272.637573,1122.038330 
	C1272.003784,1122.445679 1271.124756,1122.474976 1270.203857,1121.434570 
	C1270.934082,1120.894531 1271.740601,1121.050659 1272.637573,1122.038330 
z"/>
<path fill="#FF3B1A" opacity="1.000000" stroke="none" 
	d="
M1094.662109,1155.987061 
	C1094.957031,1156.320557 1095.024902,1156.686890 1095.092773,1157.053101 
	C1094.779907,1156.879639 1094.467041,1156.706299 1094.077271,1156.349731 
	C1094.000488,1156.166626 1094.435059,1156.019653 1094.662109,1155.987061 
z"/>
<path fill="#FF3B1A" opacity="1.000000" stroke="none" 
	d="
M1188.101440,1188.302979 
	C1188.902588,1188.316406 1189.546265,1188.686401 1189.012695,1189.858643 
	C1188.188477,1189.816406 1188.022705,1189.264526 1188.101440,1188.302979 
z"/>
<path fill="#FF3B1A" opacity="1.000000" stroke="none" 
	d="
M1182.101440,1174.302979 
	C1182.902588,1174.316406 1183.546265,1174.686401 1183.012695,1175.858643 
	C1182.188477,1175.816406 1182.022705,1175.264526 1182.101440,1174.302979 
z"/>
<path fill="#FF3B1A" opacity="1.000000" stroke="none" 
	d="
M1184.101440,1179.302979 
	C1184.902588,1179.316406 1185.546265,1179.686401 1185.012695,1180.858643 
	C1184.188477,1180.816406 1184.022705,1180.264526 1184.101440,1179.302979 
z"/>
<path fill="#FF3B1A" opacity="1.000000" stroke="none" 
	d="
M1391.911621,933.607666 
	C1391.323608,934.409119 1390.680298,934.459351 1390.093750,933.375732 
	C1390.593140,933.220459 1391.186401,933.274353 1391.911621,933.607666 
z"/>
<path fill="#FF3B1A" opacity="1.000000" stroke="none" 
	d="
M1386.911621,931.607666 
	C1386.323608,932.409119 1385.680298,932.459351 1385.093750,931.375732 
	C1385.593140,931.220520 1386.186401,931.274414 1386.911621,931.607666 
z"/>
<path fill="#FF3B1A" opacity="1.000000" stroke="none" 
	d="
M918.911621,896.607544 
	C918.323669,897.409363 917.680481,897.458984 917.093933,896.375732 
	C917.593201,896.220459 918.186340,896.274292 918.911621,896.607544 
z"/>
<path fill="#FF3B1A" opacity="1.000000" stroke="none" 
	d="
M923.911621,898.607544 
	C923.323669,899.409363 922.680481,899.458984 922.093933,898.375732 
	C922.593201,898.220459 923.186340,898.274292 923.911621,898.607544 
z"/>
<path fill="#FF3B1A" opacity="1.000000" stroke="none" 
	d="
M930.911621,901.607544 
	C930.323669,902.409363 929.680481,902.458984 929.093933,901.375732 
	C929.593201,901.220459 930.186340,901.274292 930.911621,901.607544 
z"/>
<path fill="#FF3B1A" opacity="1.000000" stroke="none" 
	d="
M962.637573,913.038330 
	C962.003906,913.445496 961.124817,913.474976 960.203857,912.434570 
	C960.934143,911.894470 961.740601,912.050537 962.637573,913.038330 
z"/>
<path fill="#FF3B1A" opacity="1.000000" stroke="none" 
	d="
M969.637573,915.038330 
	C969.003906,915.445496 968.124817,915.474976 967.203857,914.434570 
	C967.934143,913.894470 968.740601,914.050537 969.637573,915.038330 
z"/>
<path fill="#FF3B1A" opacity="1.000000" stroke="none" 
	d="
M1342.637573,918.038330 
	C1342.003906,918.445374 1341.124756,918.474915 1340.203857,917.434509 
	C1340.934082,916.894592 1341.740601,917.050720 1342.637573,918.038330 
z"/>
<path fill="#FF3B1A" opacity="1.000000" stroke="none" 
	d="
M1357.637573,922.038330 
	C1357.003906,922.445374 1356.124756,922.474915 1355.203857,921.434509 
	C1355.934082,920.894592 1356.740601,921.050720 1357.637573,922.038330 
z"/>
<path fill="#FF3B1A" opacity="1.000000" stroke="none" 
	d="
M1396.911621,935.607666 
	C1396.323608,936.409119 1395.680298,936.459351 1395.093750,935.375732 
	C1395.593140,935.220520 1396.186401,935.274414 1396.911621,935.607666 
z"/>
<path fill="#FF3B1A" opacity="1.000000" stroke="none" 
	d="
M1401.911621,937.607666 
	C1401.323608,938.409119 1400.680298,938.459351 1400.093750,937.375732 
	C1400.593140,937.220520 1401.186401,937.274353 1401.911621,937.607666 
z"/>
<path fill="#FF3B1A" opacity="1.000000" stroke="none" 
	d="
M1414.911621,943.607666 
	C1414.323608,944.409119 1413.680298,944.459351 1413.093750,943.375732 
	C1413.593140,943.220520 1414.186401,943.274353 1414.911621,943.607666 
z"/>
<path fill="#FF3B1A" opacity="1.000000" stroke="none" 
	d="
M1005.911621,1058.607666 
	C1005.323730,1059.409424 1004.680542,1059.459351 1004.093994,1058.375732 
	C1004.593201,1058.220459 1005.186279,1058.274292 1005.911621,1058.607666 
z"/>
<path fill="#FF3B1A" opacity="1.000000" stroke="none" 
	d="
M799.095886,828.422974 
	C799.171387,827.729980 799.349915,827.302795 799.811401,826.230957 
	C800.094299,825.586243 800.322510,825.587036 800.393677,825.577698 
	C800.411316,826.199890 800.357788,826.831360 800.212280,828.410034 
	C799.813110,829.134338 799.505981,828.911560 799.095886,828.422974 
z"/>
<path fill="#FF3B1A" opacity="1.000000" stroke="none" 
	d="
M937.500549,1018.487000 
	C936.986267,1018.224365 936.056458,1018.041992 936.540100,1017.267517 
	C936.644592,1017.100281 937.389282,1017.332886 937.955017,1017.648804 
	C937.944580,1018.043518 937.818237,1018.170715 937.500549,1018.487000 
z"/>
<path fill="#FF3B1A" opacity="1.000000" stroke="none" 
	d="
M789.500549,819.487000 
	C788.986267,819.224365 788.056458,819.041992 788.540100,818.267517 
	C788.644531,818.100281 789.389282,818.332886 789.955017,818.648804 
	C789.944580,819.043518 789.818237,819.170715 789.500549,819.487000 
z"/>
<path fill="#FF3B1A" opacity="1.000000" stroke="none" 
	d="
M976.140015,1065.265137 
	C976.366760,1065.174072 976.553894,1065.349976 976.852905,1065.686523 
	C976.689575,1065.728271 976.401489,1065.623169 976.140015,1065.265137 
z"/>
<path fill="#FF3B1A" opacity="1.000000" stroke="none" 
	d="
M1523.164551,1010.094849 
	C1523.102417,1010.546204 1523.010132,1011.004272 1522.772095,1012.147827 
	C1522.436890,1012.967529 1522.228271,1013.012268 1521.851074,1012.900391 
	C1521.931274,1012.367065 1522.160767,1011.901001 1522.751343,1010.739014 
	C1523.112427,1010.043091 1523.134521,1010.101440 1523.164551,1010.094849 
z"/>
<path fill="#FF3B1A" opacity="1.000000" stroke="none" 
	d="
M1225.860107,1096.734863 
	C1225.633301,1096.825928 1225.446167,1096.650024 1225.147217,1096.313477 
	C1225.310425,1096.271729 1225.598633,1096.376831 1225.860107,1096.734863 
z"/>
<path fill="#FF3B1A" opacity="1.000000" stroke="none" 
	d="
M1004.140015,1092.265137 
	C1004.366760,1092.174072 1004.553894,1092.349976 1004.852905,1092.686523 
	C1004.689636,1092.728271 1004.401489,1092.623169 1004.140015,1092.265137 
z"/>
<path fill="#FF3B1A" opacity="1.000000" stroke="none" 
	d="
M991.140015,1080.265137 
	C991.366760,1080.174072 991.553894,1080.349976 991.852905,1080.686523 
	C991.689636,1080.728271 991.401550,1080.623169 991.140015,1080.265137 
z"/>
<path fill="#000000" opacity="1.000000" stroke="none" 
	d="
M1491.880371,897.039429 
	C1500.040649,900.005005 1507.871948,902.452454 1514.212158,908.483032 
	C1520.593384,914.552673 1522.640015,921.856201 1522.984009,930.089294 
	C1523.087646,932.569763 1523.000000,935.058228 1522.443726,938.104614 
	C1503.740967,919.170044 1483.402344,902.543152 1459.679077,890.265869 
	C1470.561157,891.511658 1481.156982,893.599304 1491.880371,897.039429 
z"/>
</svg>