<svg version="1.1" id="Layer_1" xmlns="http://www.w3.org/2000/svg" xmlns:xlink="http://www.w3.org/1999/xlink" x="0px" y="0px"
	 width="100%" viewBox="0 0 273 307" enable-background="new 0 0 273 307" xml:space="preserve">
<path fill="#2B2A3A" opacity="1.000000" stroke="none" 
	d="
M274.000000,60.000000 
	C274.000000,142.634460 274.000000,225.268921 274.000000,307.951691 
	C183.067688,307.951691 92.135345,307.951691 1.101500,307.951691 
	C1.101500,205.774292 1.101500,103.548454 1.101500,1.161309 
	C91.999779,1.161309 182.999863,1.161309 274.000000,1.161309 
	C274.000000,8.068023 274.000000,15.065228 273.616302,22.501900 
	C272.580353,22.515844 271.374420,22.109190 271.359161,21.661955 
	C271.144196,15.353104 265.926697,16.243948 262.114441,14.973104 
	C259.787384,14.197356 257.355133,13.291958 255.435471,11.832647 
	C251.541031,8.872110 247.708649,6.643829 242.330414,9.114576 
	C233.763397,7.521634 225.716431,7.230046 217.668884,11.040792 
	C216.209854,11.654888 215.082504,12.274792 213.604965,12.943455 
	C210.416428,15.288976 207.578110,17.585737 204.445663,19.977039 
	C203.414047,21.040445 202.676544,22.009310 201.662140,23.091047 
	C200.891800,24.054649 200.398361,24.905376 199.598358,25.918694 
	C198.518829,27.717695 197.745911,29.354111 196.701752,31.237766 
	C191.525909,44.047401 192.233322,56.138847 199.263870,67.804474 
	C199.868011,68.806938 199.447632,70.426865 199.196045,71.877823 
	C196.284622,74.026001 193.680328,76.056313 191.613510,77.667610 
	C180.733490,91.268135 167.032730,101.419327 155.454956,114.054306 
	C153.936813,114.072838 152.526276,114.275429 151.562500,113.712761 
	C146.981705,111.038361 142.704178,107.797081 137.988876,105.408722 
	C117.024490,94.790016 88.113007,98.150566 70.672989,113.051163 
	C68.818420,114.552094 67.274323,115.964684 65.405746,117.554230 
	C64.387901,117.819405 63.694546,117.907631 62.865746,117.693703 
	C61.335579,116.307709 59.940861,115.223854 58.335777,113.901405 
	C55.563538,111.807365 53.001659,109.951935 50.387123,108.135620 
	C50.334465,108.174728 50.224762,108.159958 50.475647,107.887863 
	C48.414490,105.411865 46.102451,103.207962 43.871574,100.655823 
	C43.278893,99.944641 42.605049,99.581696 41.943481,98.782112 
	C42.246082,94.565651 42.536407,90.785835 42.856659,86.639610 
	C40.897278,80.132126 37.758232,75.003242 30.882206,72.648964 
	C26.746138,72.210403 22.871269,72.057228 18.639641,71.880676 
	C16.456760,72.741684 14.630641,73.626068 12.501806,74.634140 
	C11.101212,75.768135 10.003332,76.778435 8.601357,77.962517 
	C1.207271,88.714958 2.583278,99.677513 12.001640,106.668808 
	C13.071644,107.407127 13.984732,107.875366 15.073363,108.574806 
	C15.814939,108.914925 16.380970,109.023842 17.180248,109.435349 
	C22.939106,111.088715 28.247610,110.605858 33.378433,108.038216 
	C34.094498,107.679878 35.130493,107.960831 36.164711,108.209183 
	C37.098900,109.033684 37.886761,109.594856 38.818203,110.457283 
	C40.651848,112.138878 42.341911,113.519226 44.174591,115.196510 
	C45.877483,116.663986 47.437756,117.834511 49.138367,119.319489 
	C51.318661,121.416733 53.358620,123.199539 55.322475,125.394882 
	C54.517208,128.539246 53.788052,131.271072 52.898193,134.316467 
	C43.167542,154.469772 42.855324,174.251114 53.127235,194.282761 
	C53.748219,195.435089 54.353767,196.270447 55.008595,197.448578 
	C56.264645,199.481567 57.471413,201.171783 58.778503,203.166367 
	C62.888889,207.390350 66.898956,211.309967 70.919609,215.532043 
	C71.278358,216.250900 71.626518,216.667282 72.091698,217.356995 
	C72.785645,217.620224 73.362579,217.610092 74.128273,217.788666 
	C74.492752,218.005447 74.668472,218.033508 75.013885,218.332901 
	C76.121170,219.072159 77.058746,219.540085 78.178902,220.297043 
	C80.910988,221.713699 83.460495,222.841324 86.184029,224.204437 
	C86.906807,224.579010 87.455559,224.718079 88.305222,225.041946 
	C89.733910,225.494781 90.861671,225.762787 92.209793,226.278687 
	C93.287567,226.656174 94.144989,226.785782 95.348236,227.119476 
	C104.772591,227.558029 113.851143,227.792511 122.993500,228.347900 
	C123.378700,229.443146 123.700081,230.217484 124.008301,231.387421 
	C126.316704,240.818939 128.638260,249.854874 130.647034,258.984283 
	C128.858231,260.311310 127.382240,261.544861 125.612289,262.892700 
	C124.606094,264.023132 123.893852,265.039246 122.909828,266.283936 
	C118.467857,273.397034 117.486702,280.559998 120.808014,288.451050 
	C121.743996,289.962524 122.883720,291.000671 123.463921,292.290558 
	C126.689209,299.460846 132.852707,301.890778 140.440613,302.909058 
	C145.604370,301.706390 150.329865,300.426727 155.372528,299.096802 
	C156.490585,298.378754 157.291458,297.710999 158.410583,296.938202 
	C160.116165,294.877045 161.503494,292.920898 163.167938,290.789948 
	C163.906265,289.409088 164.367462,288.203033 164.989838,286.614624 
	C168.742828,272.615387 160.434006,259.575104 145.754272,255.318481 
	C144.980835,250.638245 144.986954,246.036652 143.232758,242.250656 
	C139.861633,234.974869 144.044403,229.310944 146.665436,223.635452 
	C147.702698,221.389389 148.466324,219.815643 148.059753,217.309631 
	C150.511246,215.116043 152.760757,213.166901 155.312988,211.082672 
	C156.753738,209.635620 157.891785,208.323639 159.335358,206.866196 
	C163.420624,200.145004 167.200348,193.569275 171.197800,186.805115 
	C171.551758,186.076721 171.687973,185.536743 171.993866,184.647568 
	C178.051529,166.607056 175.728531,149.587692 168.212814,132.721832 
	C167.987610,126.158234 167.673767,119.942024 173.607697,115.622482 
	C175.639587,114.143387 177.415314,112.020615 179.674179,111.201714 
	C185.622726,109.045158 186.635239,101.481415 192.787231,99.754173 
	C192.057663,95.307739 195.132111,94.444580 198.415085,93.660980 
	C199.296906,93.450508 200.292664,92.978951 200.860138,92.308861 
	C204.761810,87.701622 210.191345,87.473480 215.543106,87.144424 
	C216.266220,87.099968 217.681381,88.091042 217.715179,88.665092 
	C217.996185,93.436562 221.343491,93.037178 224.566055,93.006844 
	C228.057007,92.973969 231.584854,93.297050 235.025238,92.878372 
	C236.900208,92.650215 239.439224,91.668678 240.263855,90.220978 
	C242.460175,86.365112 245.507477,85.798149 249.456085,85.917900 
	C251.859177,85.990784 254.295013,84.984100 256.984985,84.404411 
	C256.002472,81.708878 255.502136,80.336266 255.108337,78.708221 
	C255.713470,77.942184 256.212097,77.431587 256.983704,76.798676 
	C258.032837,76.066460 258.809021,75.456558 259.922607,74.991302 
	C261.571808,75.654739 262.883636,76.173523 263.560852,76.441330 
	C265.535492,74.137611 267.019867,72.313530 268.606049,70.582748 
	C270.027313,69.031937 273.085358,68.593742 271.229126,65.059471 
	C270.734558,64.117828 273.001129,61.726017 274.000000,60.000000 
z"/>
<path fill="#282833" opacity="1.000000" stroke="none" 
	d="
M274.000000,59.531425 
	C273.001129,61.726017 270.734558,64.117828 271.229126,65.059471 
	C273.085358,68.593742 270.027313,69.031937 268.606049,70.582748 
	C267.019867,72.313530 265.535492,74.137611 263.560852,76.441330 
	C262.883636,76.173523 261.571808,75.654739 260.080811,74.680595 
	C269.938934,63.509960 273.292023,51.057987 269.616455,36.452774 
	C269.129578,35.721394 268.656189,35.320553 268.162476,34.595436 
	C268.096924,33.847481 268.051666,33.423801 268.065643,32.636341 
	C265.365967,28.199640 262.607056,24.126720 259.756287,19.759281 
	C258.575134,18.574835 257.485840,17.684906 256.267456,16.556824 
	C255.811798,16.192646 255.485214,16.066626 254.981537,15.652155 
	C253.246643,14.456214 251.688812,13.548723 249.927582,12.396292 
	C248.150864,11.538865 246.577576,10.926381 244.697189,10.164371 
	C243.939270,9.975104 243.488434,9.935361 242.962250,9.700092 
	C242.886887,9.504567 242.745209,9.110150 242.745209,9.110150 
	C247.708649,6.643829 251.541031,8.872110 255.435471,11.832647 
	C257.355133,13.291958 259.787384,14.197356 262.114441,14.973104 
	C265.926697,16.243948 271.144196,15.353104 271.359161,21.661955 
	C271.374420,22.109190 272.580353,22.515844 273.616302,22.970684 
	C274.000000,24.066669 274.000000,25.133339 273.709656,26.739822 
	C269.972717,29.300913 271.245941,30.741547 274.000000,32.000000 
	C274.000000,32.444447 274.000000,32.888889 273.676270,33.757854 
	C271.384216,35.825325 271.622375,37.094082 274.000000,38.000000 
	C274.000000,45.020947 274.000000,52.041897 274.000000,59.531425 
z"/>
<path fill="#2B2A3A" opacity="1.000000" stroke="none" 
	d="
M274.000000,31.583334 
	C271.245941,30.741547 269.972717,29.300913 273.709656,27.139816 
	C274.000000,28.388889 274.000000,29.777779 274.000000,31.583334 
z"/>
<path fill="#2B2A3A" opacity="1.000000" stroke="none" 
	d="
M274.000000,37.600006 
	C271.622375,37.094082 271.384216,35.825325 273.676270,34.091187 
	C274.000000,35.066669 274.000000,36.133339 274.000000,37.600006 
z"/>
<path fill="#F7F8FA" opacity="1.000000" stroke="none" 
	d="
M170.980057,186.993530 
	C167.200348,193.569275 163.420624,200.145004 158.954742,206.877686 
	C157.182465,208.429016 156.096359,209.823380 155.010269,211.217743 
	C152.760757,213.166901 150.511246,215.116043 147.725616,217.453934 
	C146.552887,218.180740 145.916245,218.518799 145.227905,218.450409 
	C144.919418,216.672577 144.662628,215.301193 144.326721,213.507370 
	C140.198029,215.890762 137.824188,218.643997 137.895599,223.403625 
	C136.182800,224.156036 134.605011,224.583054 132.816071,225.023605 
	C132.370438,225.152145 132.135971,225.267136 131.901505,225.382126 
	C132.197281,225.590164 132.493057,225.798187 132.879074,226.329483 
	C132.985092,227.099976 133.000854,227.547180 132.788300,228.240585 
	C133.052338,229.653381 133.544724,230.819977 134.353897,232.192047 
	C136.458969,238.991852 138.276169,245.578583 140.022644,252.183990 
	C140.826599,255.224716 142.577286,256.575562 145.738663,255.765549 
	C160.434006,259.575104 168.742828,272.615387 164.671021,286.624908 
	C160.955399,287.410248 161.029602,288.893188 162.890839,290.964783 
	C161.503494,292.920898 160.116165,294.877045 158.131653,296.833221 
	C156.708099,297.604553 155.881714,298.375793 155.055344,299.147064 
	C150.329865,300.426727 145.604370,301.706390 140.354340,302.612030 
	C137.203888,300.053558 134.577988,297.869110 132.019516,295.740723 
	C133.290237,294.127502 134.158600,293.025055 135.445953,291.917114 
	C139.212479,292.193634 142.560028,292.475677 146.103577,292.990906 
	C148.241455,293.528015 150.183334,293.831970 152.722061,294.229370 
	C152.374985,292.396820 152.093323,290.909698 151.990524,289.139771 
	C153.421524,285.245636 154.673660,281.634308 156.246216,278.092163 
	C157.448166,278.904541 158.329681,279.647675 160.022278,281.074585 
	C159.309509,276.516937 159.236282,272.902435 154.240128,272.136780 
	C153.243301,271.190674 152.548859,270.265564 151.977966,269.052612 
	C152.070145,267.842773 152.038757,266.920776 151.783234,265.799316 
	C150.812485,265.791809 150.065857,265.983826 149.459991,266.569275 
	C149.344543,267.072052 149.088348,267.181427 148.806000,266.948730 
	C148.129623,266.577850 147.479416,266.549011 146.413574,266.391541 
	C143.682846,266.224548 141.367752,266.186188 138.862427,265.925903 
	C137.346024,265.846985 136.019882,265.990051 134.693726,266.133087 
	C135.134796,266.563141 135.575882,266.993225 135.759888,267.657715 
	C134.389999,268.714020 133.277206,269.535919 131.970230,270.087585 
	C131.184036,269.544922 130.592010,269.272461 130.000000,268.565765 
	C130.319962,265.051300 130.639893,261.971039 130.959839,258.890808 
	C128.638260,249.854874 126.316704,240.818939 124.220139,231.162292 
	C123.939995,229.703369 123.434845,228.865173 122.929688,228.026993 
	C113.851143,227.792511 104.772591,227.558029 95.271301,226.822662 
	C93.895523,226.224792 92.942482,226.127792 91.989441,226.030807 
	C90.861671,225.762787 89.733910,225.494781 88.252228,224.785187 
	C87.268875,224.218704 86.639442,224.093811 86.010002,223.968933 
	C83.460495,222.841324 80.910988,221.713699 78.087227,219.961700 
	C76.823380,218.912064 75.833786,218.486801 74.844185,218.061554 
	C74.668472,218.033508 74.492752,218.005447 74.007721,217.575653 
	C73.293427,216.754150 72.888443,216.334366 72.483459,215.914597 
	C72.313881,216.304291 72.144287,216.693970 71.974686,217.083649 
	C71.626518,216.667282 71.278358,216.250900 70.949493,215.194031 
	C71.925697,214.084351 72.865547,213.255920 73.842537,213.209534 
	C77.630157,213.029694 81.512680,216.923721 85.576126,212.917389 
	C87.942230,213.656586 89.953026,214.377182 92.197906,215.376999 
	C95.292656,216.390823 98.153313,217.125427 101.409523,217.986816 
	C106.905762,218.152496 112.006454,218.191391 117.500092,218.280426 
	C118.929176,218.143570 119.965302,217.956589 121.379944,217.770386 
	C125.208405,216.530304 128.658340,215.289413 132.343445,214.062317 
	C132.578613,214.076080 132.973587,213.819260 133.215851,213.841522 
	C133.814804,213.772400 134.023056,213.545013 134.405945,213.166595 
	C135.883057,212.633728 137.037048,212.115921 138.528656,211.698303 
	C139.743088,211.843262 140.619904,211.888062 141.496719,211.932846 
	C141.302536,211.277924 141.108337,210.623001 141.109497,209.680939 
	C142.097549,208.933716 142.890259,208.473633 143.830872,208.328094 
	C145.584549,207.953796 147.190323,207.264984 148.796097,206.576172 
	C148.365570,205.980789 147.935043,205.385437 147.696594,204.503021 
	C151.535950,199.458908 155.183228,194.701859 159.067215,189.800568 
	C159.534546,189.168213 159.765167,188.680084 160.046204,187.821167 
	C161.169662,184.635681 162.242722,181.820984 163.559219,178.942444 
	C163.872269,178.253616 163.941864,177.628632 163.979431,176.585602 
	C164.370071,170.445999 164.792770,164.724457 165.411285,158.972137 
	C165.462341,158.626694 165.317566,158.312042 165.071564,157.637299 
	C164.938492,156.533539 164.906677,155.789856 165.104874,154.841278 
	C164.932388,153.756851 164.529877,152.877335 163.962219,151.655502 
	C162.191360,146.892334 160.585678,142.471481 159.136780,137.766663 
	C159.850464,135.918121 160.407349,134.353546 160.959335,132.802750 
	C162.540894,132.238510 164.309082,131.607681 166.326721,131.125519 
	C167.039719,131.853928 167.503250,132.433655 167.966782,133.013382 
	C175.728531,149.587692 178.051529,166.607056 171.740082,184.703735 
	C171.204437,185.737259 171.092239,186.365402 170.980057,186.993530 
M160.527374,196.082413 
	C161.150024,195.932037 161.772690,195.781662 162.395340,195.631271 
	C162.231735,195.262604 162.068130,194.893921 161.904510,194.525253 
	C161.432266,194.867691 160.960007,195.210114 160.527374,196.082413 
M75.876137,216.089722 
	C76.260605,216.224136 76.645081,216.358551 77.029564,216.492966 
	C77.006638,216.231598 77.032898,215.763458 76.952347,215.744293 
	C76.584328,215.656769 76.186348,215.695190 75.876137,216.089722 
M133.146622,239.465622 
	C133.089630,239.163849 133.032623,238.862076 132.975616,238.560303 
	C132.906784,238.859589 132.837952,239.158859 133.146622,239.465622 
M166.331604,178.112167 
	C166.423203,178.031555 166.514816,177.950928 166.606415,177.870316 
	C166.515137,177.882645 166.423843,177.894958 166.331604,178.112167 
M132.492554,260.541931 
	C132.492554,260.541931 132.466721,260.484589 132.492554,260.541931 
z"/>
<path fill="#F6F7F9" opacity="1.000000" stroke="none" 
	d="
M255.158615,15.940605 
	C255.485214,16.066626 255.811798,16.192646 256.014069,16.759922 
	C255.270325,20.842514 256.812500,21.484346 259.848145,20.053801 
	C262.607056,24.126720 265.365967,28.199640 267.762634,32.704941 
	C267.266907,34.091827 267.133453,35.046341 267.276825,36.225258 
	C268.245728,36.560879 268.937836,36.672096 269.629913,36.783310 
	C273.292023,51.057987 269.938934,63.509960 259.743439,74.535934 
	C258.809021,75.456558 258.032837,76.066460 256.663879,76.823067 
	C255.375336,77.630531 254.679565,78.291298 253.798553,79.236923 
	C251.771530,80.426254 249.929733,81.330711 247.799622,81.950752 
	C244.736099,81.207771 241.168701,79.073662 240.882507,84.782356 
	C235.288467,84.913574 230.050125,84.894569 225.033539,84.601425 
	C224.503510,83.884727 223.751755,83.442169 222.815079,82.819885 
	C222.086624,83.067383 221.543106,83.494598 220.597290,83.950317 
	C218.836151,83.474083 217.511658,82.691841 216.111740,82.518349 
	C212.386734,82.056694 210.237946,75.520027 205.188980,79.369324 
	C203.188065,76.592125 201.345612,74.176041 199.503159,71.759956 
	C199.447632,70.426865 199.868011,68.806938 199.263870,67.804474 
	C192.233322,56.138847 191.525909,44.047401 197.049896,31.151131 
	C198.414490,29.130205 199.159714,27.443155 199.904938,25.756104 
	C200.398361,24.905376 200.891800,24.054649 202.015228,23.086483 
	C204.216019,22.532368 206.717148,22.727018 204.739777,19.882500 
	C207.578110,17.585737 210.416428,15.288976 213.830200,13.178247 
	C215.603958,12.591721 216.802277,11.819160 218.000595,11.046600 
	C225.716431,7.230046 233.763397,7.521634 242.330414,9.114576 
	C242.745209,9.110150 242.886887,9.504567 242.998779,9.966525 
	C243.741867,10.390288 244.373062,10.352094 245.004272,10.313898 
	C246.577576,10.926381 248.150864,11.538865 249.965363,12.765808 
	C251.857239,14.233714 253.507919,15.087160 255.158615,15.940605 
M202.877579,46.116474 
	C203.018066,46.749542 203.158554,47.382607 203.605408,48.715961 
	C203.630890,49.475746 203.656372,50.235535 203.198318,51.141171 
	C203.410858,51.761505 203.623413,52.381840 204.079163,53.667450 
	C204.371399,54.783146 204.663635,55.898842 204.607132,57.396095 
	C205.056793,57.935432 205.506470,58.474770 206.427902,59.478798 
	C207.691208,61.315624 208.954514,63.152451 210.422607,65.614250 
	C213.309616,67.951790 216.196625,70.289330 218.485947,72.910042 
	C218.865967,74.014664 219.380859,76.097198 219.604263,76.066376 
	C221.140350,75.854515 222.615479,75.200684 224.946732,74.805153 
	C227.095825,75.036774 229.243835,75.456055 231.394211,75.468658 
	C242.840302,75.535820 251.697281,70.750069 257.179596,60.651588 
	C262.391846,51.050636 262.479218,41.360062 256.052490,31.343651 
	C254.402817,29.550011 252.753143,27.756369 250.864166,25.361994 
	C249.197144,24.117588 247.530106,22.873180 245.819473,20.877661 
	C243.870193,20.280243 241.920898,19.682825 239.139908,19.108782 
	C233.173157,19.440861 227.206421,19.772940 220.648499,19.853006 
	C219.764175,20.495241 218.879868,21.137478 217.513687,22.241310 
	C216.379364,22.917017 215.245041,23.592724 213.670425,23.752504 
	C209.735718,23.017550 209.080292,24.843712 210.011566,28.763557 
	C208.380096,31.843853 206.748627,34.924149 204.886932,38.756344 
	C204.571747,40.505657 204.256546,42.254974 203.651947,44.597614 
	C203.717682,45.024773 203.783401,45.451931 203.550415,45.976192 
	C203.550415,45.976192 203.247467,45.893284 202.877579,46.116474 
M199.729782,36.207996 
	C199.303177,36.362808 198.876572,36.517620 198.449951,36.672436 
	C198.585434,36.923660 198.720901,37.174881 198.856384,37.426098 
	C199.167618,37.170334 199.478867,36.914570 199.729782,36.207996 
M232.843521,12.254498 
	C232.567581,12.307997 232.291641,12.361496 232.015701,12.414992 
	C232.077164,12.533816 232.155182,12.760464 232.197403,12.753983 
	C232.472656,12.711708 232.740143,12.618870 232.843521,12.254498 
M238.885300,77.648689 
	C238.946136,77.545708 239.006973,77.442726 239.067825,77.339752 
	C238.974365,77.382660 238.880905,77.425568 238.885300,77.648689 
M247.774918,73.480370 
	C247.915909,73.473473 248.056900,73.466583 248.197891,73.459686 
	C248.103836,73.414841 248.009766,73.369987 247.774918,73.480370 
M224.116516,13.350575 
	C224.055328,13.454543 223.994141,13.558511 223.932953,13.662484 
	C224.026947,13.619069 224.120941,13.575654 224.116516,13.350575 
M204.464310,31.494282 
	C204.464310,31.494282 204.515671,31.472254 204.464310,31.494282 
M255.494171,26.535656 
	C255.494171,26.535656 255.472580,26.484932 255.494171,26.535656 
z"/>
<path fill="#F5F5F7" opacity="1.000000" stroke="none" 
	d="
M166.077255,130.976852 
	C164.309082,131.607681 162.540894,132.238510 160.959335,132.802750 
	C160.407349,134.353546 159.850464,135.918121 158.865662,137.558105 
	C155.681030,134.539658 152.400604,131.767029 150.267899,128.290359 
	C144.381500,118.694550 135.069611,114.762527 124.983368,111.858826 
	C124.986069,111.874687 125.017136,111.872162 124.840088,111.642822 
	C124.104919,111.312904 123.546791,111.212334 122.668358,110.984497 
	C121.898064,110.882538 121.448090,110.907829 120.628586,110.883461 
	C119.520844,110.851517 118.782616,110.869240 117.821136,110.508057 
	C110.066483,110.776115 102.535088,111.423080 94.642212,112.055054 
	C93.580551,112.216705 92.880379,112.393341 91.983139,112.271469 
	C90.014191,112.284386 88.242310,112.595825 86.470436,112.907265 
	C86.859413,113.369080 87.248398,113.830902 87.379837,114.544922 
	C83.414825,117.226143 79.707344,119.655144 75.790253,122.065689 
	C75.580635,122.047234 75.160416,122.070389 74.838959,121.874359 
	C73.339493,118.773155 72.161484,115.867989 70.983475,112.962830 
	C88.113007,98.150566 117.024490,94.790016 137.988876,105.408722 
	C142.704178,107.797081 146.981705,111.038361 151.562500,113.712761 
	C152.526276,114.275429 153.936813,114.072838 155.734116,114.266525 
	C158.611984,116.227448 160.897247,118.144699 163.062881,120.368912 
	C161.188828,122.246658 161.161652,123.749344 162.709808,125.620132 
	C164.043091,127.231270 164.970428,129.178314 166.077255,130.976852 
z"/>
<path fill="#F7F9F9" opacity="1.000000" stroke="none" 
	d="
M63.001186,117.995850 
	C63.694546,117.907631 64.387901,117.819405 65.516388,117.874924 
	C65.649704,119.989380 65.347893,121.960098 64.983910,124.336800 
	C66.455688,124.092712 67.413521,123.933868 68.640884,123.730316 
	C68.035698,126.646965 67.511787,129.171906 66.673828,131.862030 
	C58.939682,142.491699 54.811127,154.120193 56.089031,166.936508 
	C56.798309,174.049988 59.305546,180.984207 60.768787,188.130310 
	C61.010151,188.845215 61.485126,189.429047 62.219177,190.217697 
	C63.122684,191.567825 63.767117,192.713135 64.043427,193.951477 
	C62.009598,196.983688 60.343891,199.922852 58.678185,202.862000 
	C57.471413,201.171783 56.264645,199.481567 55.012299,197.104111 
	C54.348419,195.599838 53.730110,194.782822 53.111805,193.965790 
	C42.855324,174.251114 43.167542,154.469772 53.251221,134.248077 
	C56.492798,131.306351 58.811600,128.671356 55.398582,124.982338 
	C53.358620,123.199539 51.318661,121.416733 49.308098,119.097275 
	C49.970734,113.859703 47.241787,114.031204 44.031975,114.899567 
	C42.341911,113.519226 40.651848,112.138878 39.154942,110.284561 
	C42.098354,107.401550 44.699013,107.766975 47.404392,110.011024 
	C47.917099,110.436310 49.119106,110.030594 50.189316,109.728783 
	C50.396976,108.998337 50.418377,108.547424 50.439781,108.096504 
	C53.001659,109.951935 55.563538,111.807365 58.226135,114.273895 
	C57.388195,119.673546 60.462864,118.431747 63.001186,117.995850 
M58.861874,193.949860 
	C59.158104,193.397064 59.454330,192.844284 59.750568,192.291489 
	C59.374355,192.126175 58.998138,191.960846 58.621918,191.795532 
	C58.575085,192.389587 58.528248,192.983627 58.861874,193.949860 
M58.347507,135.881683 
	C58.409233,135.847839 58.470963,135.813980 58.347507,135.881683 
M52.465630,112.493927 
	C52.465630,112.493927 52.515873,112.472847 52.465630,112.493927 
z"/>
<path fill="#F0F2F3" opacity="1.000000" stroke="none" 
	d="
M163.182495,120.061951 
	C160.897247,118.144699 158.611984,116.227448 156.047577,114.097969 
	C167.032730,101.419327 180.733490,91.268135 191.613510,77.667610 
	C193.680328,76.056313 196.284622,74.026001 199.196045,71.877823 
	C201.345612,74.176041 203.188065,76.592125 205.031586,79.641785 
	C196.487503,88.571518 187.991486,96.919144 179.378983,105.144821 
	C174.072037,110.213402 168.587372,115.095909 163.182495,120.061951 
z"/>
<path fill="#2B2C32" opacity="1.000000" stroke="none" 
	d="
M163.062881,120.368904 
	C168.587372,115.095909 174.072037,110.213402 179.378983,105.144821 
	C187.991486,96.919144 196.487503,88.571518 205.190063,80.002899 
	C210.237946,75.520027 212.386734,82.056694 216.111740,82.518349 
	C217.511658,82.691841 218.836151,83.474083 220.888641,84.093491 
	C221.999023,84.315125 222.415817,84.422081 222.959381,84.665688 
	C223.661362,84.826744 224.236588,84.851151 224.811798,84.875565 
	C230.050125,84.894569 235.288467,84.913574 241.258759,84.749191 
	C244.023132,83.788940 246.055527,83.012054 248.087936,82.235168 
	C249.929733,81.330711 251.771530,80.426254 254.053070,79.239868 
	C254.662476,78.959854 254.832153,78.961754 255.001816,78.963646 
	C255.502136,80.336266 256.002472,81.708878 256.984985,84.404411 
	C254.295013,84.984100 251.859177,85.990784 249.456085,85.917900 
	C245.507477,85.798149 242.460175,86.365112 240.263855,90.220978 
	C239.439224,91.668678 236.900208,92.650215 235.025238,92.878372 
	C231.584854,93.297050 228.057007,92.973969 224.566055,93.006844 
	C221.343491,93.037178 217.996185,93.436562 217.715179,88.665092 
	C217.681381,88.091042 216.266220,87.099968 215.543106,87.144424 
	C210.191345,87.473480 204.761810,87.701622 200.860138,92.308861 
	C200.292664,92.978951 199.296906,93.450508 198.415085,93.660980 
	C195.132111,94.444580 192.057663,95.307739 192.787231,99.754173 
	C186.635239,101.481415 185.622726,109.045158 179.674179,111.201714 
	C177.415314,112.020615 175.639587,114.143387 173.607697,115.622482 
	C167.673767,119.942024 167.987610,126.158234 168.212814,132.721832 
	C167.503250,132.433655 167.039719,131.853928 166.326721,131.125519 
	C164.970428,129.178314 164.043091,127.231270 162.709808,125.620132 
	C161.161652,123.749344 161.188828,122.246658 163.062881,120.368904 
z"/>
<path fill="#F7F9F9" opacity="1.000000" stroke="none" 
	d="
M14.897819,108.343597 
	C13.984732,107.875366 13.071644,107.407127 12.096622,106.314087 
	C13.712061,104.119011 15.389435,102.548744 17.336792,101.060501 
	C18.092829,101.367813 18.578882,101.593094 19.411041,101.975235 
	C22.208784,102.234444 24.660419,102.336792 27.540489,102.567764 
	C30.289228,101.880997 32.649765,101.152023 34.868763,100.119003 
	C35.095280,100.013557 34.472519,98.083801 34.268356,96.662430 
	C34.810627,95.099365 35.328392,93.874481 35.891838,92.980896 
	C35.975796,93.531860 36.014065,93.751511 36.137146,94.111374 
	C36.221954,94.251587 36.664490,94.329552 36.664490,94.329552 
	C36.664490,94.329552 37.024197,94.013062 37.376022,93.888817 
	C37.719822,91.039650 37.711800,88.314720 37.703781,85.589798 
	C36.808113,85.706924 35.912453,85.824051 34.750877,85.760040 
	C34.100597,84.815559 33.716232,84.052216 33.611343,83.118958 
	C35.101692,78.279602 31.884539,79.983772 29.397129,80.031693 
	C27.011318,79.679932 25.005280,79.387390 22.628223,79.022011 
	C20.493872,79.628532 18.730534,80.307892 16.735264,80.988823 
	C16.503330,80.990395 16.040115,81.015114 15.677643,80.953209 
	C13.178598,79.857117 11.042027,78.822922 8.905453,77.788734 
	C10.003332,76.778435 11.101212,75.768135 12.707991,74.945267 
	C17.980469,79.135048 18.130117,74.878136 18.996403,71.904053 
	C22.871269,72.057228 26.746138,72.210403 30.524563,72.803528 
	C28.371664,73.642601 26.315208,74.041710 23.868475,74.516571 
	C24.610001,75.011475 25.109451,75.634163 25.611256,75.636055 
	C32.441078,75.661926 36.678814,79.705505 40.299377,84.845436 
	C40.917820,85.723419 41.973202,86.293625 42.826729,87.006020 
	C42.536407,90.785835 42.246082,94.565651 41.935677,99.062683 
	C41.912708,100.152992 41.909824,100.526070 41.605888,101.074738 
	C39.542686,103.482170 37.780540,105.714012 36.018387,107.945847 
	C35.130493,107.960831 34.094498,107.679878 33.378433,108.038216 
	C28.247610,110.605858 22.939106,111.088715 17.180353,109.105087 
	C16.723097,107.899002 16.498983,107.325775 16.274870,106.752556 
	C15.815853,107.282906 15.356835,107.813248 14.897819,108.343597 
z"/>
<path fill="#F8F9FC" opacity="1.000000" stroke="none" 
	d="
M130.647034,258.984283 
	C130.639893,261.971039 130.319962,265.051300 129.903320,268.814606 
	C130.200684,270.330719 130.594757,271.163757 130.932526,272.377136 
	C127.530403,278.487274 128.905380,283.742645 132.135025,288.875671 
	C130.800156,290.110931 129.816208,291.246887 128.832275,292.382874 
	C128.887482,291.903137 128.942703,291.423401 128.997910,290.943695 
	C126.249756,289.993774 123.501595,289.043854 120.753433,288.093933 
	C117.486702,280.559998 118.467857,273.397034 123.269196,266.249451 
	C124.568977,264.917084 125.237617,263.847748 125.906250,262.778442 
	C127.382240,261.544861 128.858231,260.311310 130.647034,258.984283 
M126.479271,269.228821 
	C126.426315,269.181000 126.373367,269.133148 126.479271,269.228821 
z"/>
<path fill="#292831" opacity="1.000000" stroke="none" 
	d="
M133.027222,225.010071 
	C134.605011,224.583054 136.182800,224.156036 138.199707,223.246216 
	C140.852432,221.461227 143.066025,220.159042 145.279617,218.856873 
	C145.916245,218.518799 146.552887,218.180740 147.523651,217.698395 
	C148.466324,219.815643 147.702698,221.389389 146.665436,223.635452 
	C144.044403,229.310944 139.861633,234.974869 143.232758,242.250656 
	C144.986954,246.036652 144.980835,250.638245 145.754272,255.318481 
	C142.577286,256.575562 140.826599,255.224716 140.022644,252.183990 
	C138.276169,245.578583 136.458969,238.991852 134.337616,231.827332 
	C133.675232,230.169571 133.345932,229.081985 133.016632,227.994400 
	C133.000854,227.547180 132.985092,227.099976 132.953461,226.083984 
	C132.967484,225.346848 132.997360,225.178452 133.027222,225.010071 
z"/>
<path fill="#F2F3F5" opacity="1.000000" stroke="none" 
	d="
M58.778503,203.166367 
	C60.343891,199.922852 62.009598,196.983688 64.311722,194.196503 
	C65.880463,195.466583 66.812782,196.584702 67.829147,197.946106 
	C72.566780,202.239136 77.220390,206.288879 82.058990,210.582489 
	C83.236252,211.517166 84.228531,212.207962 85.220810,212.898773 
	C81.512680,216.923721 77.630157,213.029694 73.842537,213.209534 
	C72.865547,213.255920 71.925697,214.084351 70.938904,214.891556 
	C66.898956,211.309967 62.888889,207.390350 58.778503,203.166367 
M64.499496,203.902817 
	C64.795456,203.580444 65.093414,203.259720 65.372231,202.923157 
	C65.377480,202.916840 65.156281,202.722885 65.040741,202.616486 
	C64.693222,203.077209 64.345703,203.537933 63.818111,204.087051 
	C63.818111,204.087051 63.802391,204.323090 63.802391,204.323090 
	C63.802391,204.323090 64.001366,204.001831 64.499496,203.902817 
z"/>
<path fill="#F1F2F6" opacity="1.000000" stroke="none" 
	d="
M8.601357,77.962517 
	C11.042027,78.822922 13.178598,79.857117 15.625961,81.130524 
	C15.936753,81.369751 15.891161,81.736313 15.559563,81.891449 
	C14.386364,83.239273 13.372070,84.346664 12.733493,85.639610 
	C10.169052,90.831932 11.595448,96.609680 16.041971,99.404526 
	C16.443830,100.104309 16.755322,100.541397 17.066811,100.978485 
	C15.389435,102.548744 13.712061,104.119011 11.939707,106.043999 
	C2.583278,99.677513 1.207271,88.714958 8.601357,77.962517 
z"/>
<path fill="#F5F6F8" opacity="1.000000" stroke="none" 
	d="
M120.808014,288.451019 
	C123.501595,289.043854 126.249756,289.993774 128.997910,290.943695 
	C128.942703,291.423401 128.887482,291.903137 128.832275,292.382874 
	C129.816208,291.246887 130.800156,290.110931 132.421539,288.998596 
	C133.714966,289.989014 134.370956,290.955841 135.026947,291.922638 
	C134.158600,293.025055 133.290237,294.127502 132.019516,295.740723 
	C134.577988,297.869110 137.203888,300.053558 139.916061,302.535034 
	C132.852707,301.890778 126.689209,299.460846 123.463921,292.290558 
	C122.883720,291.000671 121.743996,289.962524 120.808014,288.451019 
M131.992935,291.593231 
	C131.998474,291.344940 132.021561,291.094452 131.990631,290.850769 
	C131.985992,290.814209 131.728394,290.809753 131.587830,290.790466 
	C131.612213,291.043304 131.636581,291.296112 131.992935,291.593231 
z"/>
<path fill="#EFF1F2" opacity="1.000000" stroke="none" 
	d="
M66.987877,131.696838 
	C67.511787,129.171906 68.035698,126.646965 68.640884,123.730316 
	C67.413521,123.933868 66.455688,124.092712 64.983910,124.336800 
	C65.347893,121.960098 65.649704,119.989380 65.840866,117.697968 
	C67.274323,115.964684 68.818420,114.552094 70.672997,113.051163 
	C72.161484,115.867989 73.339493,118.773155 74.681938,122.183998 
	C72.845772,125.643753 70.845169,128.597839 68.535210,131.614380 
	C67.813187,131.683502 67.400536,131.690170 66.987877,131.696838 
z"/>
<path fill="#F1F2F6" opacity="1.000000" stroke="none" 
	d="
M36.164715,108.209183 
	C37.780540,105.714012 39.542686,103.482170 41.919895,101.110115 
	C42.953438,100.981285 43.371925,100.992668 43.790413,101.004059 
	C46.102451,103.207962 48.414490,105.411865 50.409828,108.352661 
	C50.063103,109.395798 50.033081,109.702057 50.003059,110.008308 
	C49.119106,110.030594 47.917099,110.436310 47.404392,110.011024 
	C44.699013,107.766975 42.098354,107.401550 39.011360,109.983307 
	C37.886761,109.594856 37.098900,109.033684 36.164715,108.209183 
z"/>
<path fill="#F1F2F6" opacity="1.000000" stroke="none" 
	d="
M42.856659,86.639610 
	C41.973202,86.293625 40.917820,85.723419 40.299377,84.845436 
	C36.678814,79.705505 32.441078,75.661926 25.611256,75.636055 
	C25.109451,75.634163 24.610001,75.011475 23.868475,74.516571 
	C26.315208,74.041710 28.371664,73.642601 30.785763,73.088921 
	C37.758232,75.003242 40.897278,80.132126 42.856659,86.639610 
z"/>
<path fill="#F1F2F6" opacity="1.000000" stroke="none" 
	d="
M18.639641,71.880676 
	C18.130117,74.878136 17.980469,79.135048 13.010706,74.821579 
	C14.630641,73.626068 16.456760,72.741684 18.639641,71.880676 
z"/>
<path fill="#EFF1F2" opacity="1.000000" stroke="none" 
	d="
M55.322475,125.394882 
	C58.811600,128.671356 56.492798,131.306351 53.411919,133.934509 
	C53.788052,131.271072 54.517208,128.539246 55.322475,125.394882 
z"/>
<path fill="#F1F2F6" opacity="1.000000" stroke="none" 
	d="
M44.174591,115.196510 
	C47.241787,114.031204 49.970734,113.859703 49.167763,118.782822 
	C47.437756,117.834511 45.877483,116.663986 44.174591,115.196510 
z"/>
<path fill="#EFF1F2" opacity="1.000000" stroke="none" 
	d="
M62.865746,117.693703 
	C60.462864,118.431747 57.388195,119.673546 58.436493,114.512497 
	C59.940861,115.223854 61.335579,116.307709 62.865746,117.693703 
z"/>
<path fill="#F5F6F8" opacity="1.000000" stroke="none" 
	d="
M163.167938,290.789948 
	C161.029602,288.893188 160.955399,287.410248 164.509857,287.007263 
	C164.367462,288.203033 163.906265,289.409088 163.167938,290.789948 
z"/>
<path fill="#F4F5F7" opacity="1.000000" stroke="none" 
	d="
M217.668884,11.040792 
	C216.802277,11.819160 215.603958,12.591721 214.180405,13.129488 
	C215.082504,12.274792 216.209854,11.654888 217.668884,11.040792 
z"/>
<path fill="#F4F5F7" opacity="1.000000" stroke="none" 
	d="
M204.445663,19.977041 
	C206.717148,22.727018 204.216019,22.532368 202.292130,22.973608 
	C202.676544,22.009310 203.414047,21.040445 204.445663,19.977041 
z"/>
<path fill="#F4F5F7" opacity="1.000000" stroke="none" 
	d="
M199.598358,25.918694 
	C199.159714,27.443155 198.414490,29.130205 197.321136,30.903891 
	C197.745911,29.354111 198.518829,27.717695 199.598358,25.918694 
z"/>
<path fill="#F2F3F5" opacity="1.000000" stroke="none" 
	d="
M155.312988,211.082672 
	C156.096359,209.823380 157.182465,208.429016 158.649200,207.023163 
	C157.891785,208.323639 156.753738,209.635620 155.312988,211.082672 
z"/>
<path fill="#F1F2F4" opacity="1.000000" stroke="none" 
	d="
M125.612297,262.892731 
	C125.237617,263.847748 124.568977,264.917084 123.540970,266.020874 
	C123.893852,265.039246 124.606094,264.023132 125.612297,262.892731 
z"/>
<path fill="#EFF1F2" opacity="1.000000" stroke="none" 
	d="
M15.073363,108.574806 
	C15.356835,107.813248 15.815853,107.282906 16.274870,106.752556 
	C16.498983,107.325775 16.723097,107.899002 16.947105,108.802490 
	C16.380970,109.023842 15.814939,108.914925 15.073363,108.574806 
z"/>
<path fill="#F2F3F5" opacity="1.000000" stroke="none" 
	d="
M92.209793,226.278687 
	C92.942482,226.127792 93.895523,226.224792 94.925491,226.618591 
	C94.144989,226.785782 93.287567,226.656174 92.209793,226.278687 
z"/>
<path fill="#F5F6F8" opacity="1.000000" stroke="none" 
	d="
M155.372528,299.096802 
	C155.881714,298.375793 156.708099,297.604553 157.813400,296.938263 
	C157.291458,297.710999 156.490585,298.378754 155.372528,299.096802 
z"/>
<path fill="#F2F3F5" opacity="1.000000" stroke="none" 
	d="
M122.993507,228.347900 
	C123.434845,228.865173 123.939995,229.703369 124.233307,230.766693 
	C123.700081,230.217484 123.378700,229.443146 122.993507,228.347900 
z"/>
<path fill="#F2F3F5" opacity="1.000000" stroke="none" 
	d="
M75.013885,218.332901 
	C75.833786,218.486801 76.823380,218.912064 77.904648,219.672668 
	C77.058746,219.540085 76.121170,219.072159 75.013885,218.332901 
z"/>
<path fill="#F2F3F5" opacity="1.000000" stroke="none" 
	d="
M53.127235,194.282761 
	C53.730110,194.782822 54.348419,195.599838 54.963020,196.761337 
	C54.353767,196.270447 53.748219,195.435089 53.127235,194.282761 
z"/>
<path fill="#F0F2F3" opacity="1.000000" stroke="none" 
	d="
M255.108337,78.708221 
	C254.832153,78.961754 254.662476,78.959854 254.238281,78.955002 
	C254.679565,78.291298 255.375336,77.630531 256.390930,76.945374 
	C256.212097,77.431587 255.713470,77.942184 255.108337,78.708221 
z"/>
<path fill="#F5F5F7" opacity="1.000000" stroke="none" 
	d="
M171.197800,186.805115 
	C171.092239,186.365402 171.204437,185.737259 171.570419,185.052948 
	C171.687973,185.536743 171.551758,186.076721 171.197800,186.805115 
z"/>
<path fill="#F2F3F5" opacity="1.000000" stroke="none" 
	d="
M86.184029,224.204437 
	C86.639442,224.093811 87.268875,224.218704 87.951309,224.600372 
	C87.455559,224.718079 86.906807,224.579010 86.184029,224.204437 
z"/>
<path fill="#EFF1F2" opacity="1.000000" stroke="none" 
	d="
M43.871574,100.655823 
	C43.371925,100.992668 42.953438,100.981285 42.220947,100.934525 
	C41.909824,100.526070 41.912708,100.152992 41.923401,99.499329 
	C42.605049,99.581696 43.278893,99.944641 43.871574,100.655823 
z"/>
<path fill="#F2F3F5" opacity="1.000000" stroke="none" 
	d="
M72.091705,217.356995 
	C72.144287,216.693970 72.313881,216.304291 72.483459,215.914597 
	C72.888443,216.334366 73.293427,216.754150 73.818954,217.386963 
	C73.362579,217.610092 72.785645,217.620224 72.091705,217.356995 
z"/>
<path fill="#EFF1F2" opacity="1.000000" stroke="none" 
	d="
M50.189316,109.728783 
	C50.033081,109.702057 50.063103,109.395798 50.158943,108.624756 
	C50.224762,108.159958 50.334465,108.174728 50.387123,108.135620 
	C50.418377,108.547424 50.396976,108.998337 50.189316,109.728783 
z"/>
<path fill="#F4F5F7" opacity="1.000000" stroke="none" 
	d="
M259.756287,19.759281 
	C256.812500,21.484346 255.270325,20.842514 256.143127,16.998077 
	C257.485840,17.684906 258.575134,18.574835 259.756287,19.759281 
z"/>
<path fill="#F4F5F7" opacity="1.000000" stroke="none" 
	d="
M254.981537,15.652155 
	C253.507919,15.087160 251.857239,14.233714 250.168762,13.010751 
	C251.688812,13.548723 253.246643,14.456214 254.981537,15.652155 
z"/>
<path fill="#F1F2F4" opacity="1.000000" stroke="none" 
	d="
M267.000000,36.000854 
	C267.133453,35.046341 267.266907,34.091827 267.703369,33.068718 
	C268.051666,33.423801 268.096924,33.847481 267.932251,34.737343 
	C267.481598,35.469299 267.240784,35.735077 267.000000,36.000854 
z"/>
<path fill="#F4F5F7" opacity="1.000000" stroke="none" 
	d="
M244.697189,10.164373 
	C244.373062,10.352094 243.741867,10.390288 243.074127,10.162050 
	C243.488434,9.935361 243.939270,9.975104 244.697189,10.164373 
z"/>
<path fill="#F4F5F7" opacity="1.000000" stroke="none" 
	d="
M267.276825,36.225258 
	C267.240784,35.735077 267.481598,35.469299 267.952576,35.061615 
	C268.656189,35.320553 269.129578,35.721394 269.616455,36.452774 
	C268.937836,36.672096 268.245728,36.560879 267.276825,36.225258 
z"/>
<path fill="#302D39" opacity="1.000000" stroke="none" 
	d="
M124.980667,111.842957 
	C135.069611,114.762527 144.381500,118.694550 150.267899,128.290359 
	C152.400604,131.767029 155.681030,134.539658 158.708893,137.842072 
	C160.585678,142.471481 162.191360,146.892334 163.919373,151.980530 
	C164.319427,153.447296 164.597137,154.246735 164.874847,155.046173 
	C164.906677,155.789856 164.938492,156.533539 165.016510,157.891464 
	C165.113617,158.671432 165.164551,158.837173 165.215485,159.002914 
	C164.792770,164.724457 164.370071,170.445999 163.800659,176.796356 
	C163.541229,177.952209 163.428497,178.479248 163.315765,179.006302 
	C162.242722,181.820984 161.169662,184.635681 159.794403,187.969452 
	C159.271637,188.973953 159.051071,189.459381 158.830505,189.944809 
	C155.183228,194.701859 151.535950,199.458908 147.438171,204.621033 
	C145.886093,206.021912 144.784531,207.017746 143.682968,208.013565 
	C142.890259,208.473633 142.097549,208.933716 140.788849,209.736694 
	C139.578918,210.585770 138.884995,211.091934 138.191055,211.598114 
	C137.037048,212.115921 135.883057,212.633728 134.207092,212.932465 
	C132.940582,212.200226 132.196014,211.687057 130.991913,210.857162 
	C132.535645,210.553131 133.457748,210.371521 135.873260,209.895782 
	C132.958893,208.956833 131.481888,208.480988 130.002441,208.002563 
	C130.000000,208.000000 129.995117,207.995117 130.019501,207.627380 
	C131.071945,206.432419 132.153000,205.662018 133.115189,204.764252 
	C134.445068,203.523468 135.685394,202.186691 137.179184,200.645569 
	C140.280258,197.269348 143.166214,194.138626 146.406830,190.992203 
	C148.170105,189.656784 149.578751,188.337051 151.036102,187.107117 
	C151.084778,187.196884 151.336426,187.205475 151.336426,187.205475 
	C151.336426,187.205475 151.017975,186.986847 151.028046,186.624390 
	C151.350113,184.166245 151.662094,182.070526 151.977997,179.642685 
	C152.007187,178.868408 152.032440,178.426270 152.249741,177.850571 
	C152.681061,177.506042 152.861099,177.252914 152.985168,176.632507 
	C153.016953,175.874832 153.045486,175.442291 153.334839,174.955109 
	C153.719543,174.258026 153.843414,173.615555 153.966156,172.602127 
	C153.991745,171.489746 154.018448,170.748352 154.410522,169.868530 
	C157.423874,162.676651 155.952942,155.940002 153.001068,149.407150 
	C152.659119,148.650360 151.096786,148.445038 150.067963,147.587631 
	C150.007202,146.131699 149.978729,145.072174 150.205673,143.710236 
	C150.861557,140.446701 152.391998,137.338928 148.700027,135.131973 
	C146.226089,133.653122 144.041412,131.697174 141.606552,130.143997 
	C139.746765,128.957672 137.402130,128.397171 135.806671,126.964272 
	C133.757401,125.123795 129.118179,127.892220 129.326492,122.847702 
	C131.881989,121.855423 134.110382,121.019531 135.284363,120.579163 
	C131.965073,117.764839 128.472870,114.803894 124.980667,111.842957 
z"/>
<path fill="#35353E" opacity="1.000000" stroke="none" 
	d="
M135.445938,291.917114 
	C134.370956,290.955841 133.714966,289.989014 132.772461,288.899292 
	C128.905380,283.742645 127.530403,278.487274 131.180954,272.271790 
	C131.711929,271.309998 131.938171,270.833923 132.164413,270.357819 
	C133.277206,269.535919 134.389999,268.714020 136.031189,267.581787 
	C137.390594,266.896912 138.221634,266.522369 139.052658,266.147827 
	C141.367752,266.186188 143.682846,266.224548 146.570450,266.547638 
	C147.706024,266.985168 148.269104,267.137970 148.832169,267.290802 
	C149.088348,267.181427 149.344543,267.072052 149.484924,266.587494 
	C149.369110,266.212311 149.355316,266.271790 149.132446,266.706421 
	C149.891190,267.874207 150.872803,268.607330 151.854416,269.340454 
	C152.548859,270.265564 153.243301,271.190674 154.251129,272.535278 
	C155.018265,274.644196 155.472015,276.333557 155.925781,278.022949 
	C154.673660,281.634308 153.421524,285.245636 151.680725,289.297455 
	C149.430573,290.744507 147.669067,291.751129 145.907578,292.757751 
	C142.560028,292.475677 139.212479,292.193634 135.445938,291.917114 
M149.655289,285.127472 
	C153.198257,278.068329 151.555893,272.641998 145.293747,270.716949 
	C141.078262,269.421112 136.624756,271.160095 134.625107,274.882812 
	C132.665024,278.531860 133.505997,283.752350 136.464355,286.300079 
	C139.911835,289.269043 144.635361,289.044739 149.655289,285.127472 
z"/>
<path fill="#302D39" opacity="1.000000" stroke="none" 
	d="
M121.001427,217.769608 
	C119.965302,217.956589 118.929176,218.143570 117.198074,217.994507 
	C111.340050,217.725677 106.177010,217.792862 101.013969,217.860046 
	C98.153313,217.125427 95.292656,216.390823 92.189247,215.014221 
	C90.300247,212.250702 88.653992,210.129196 87.384712,207.990799 
	C90.844681,206.677963 93.292053,207.882248 95.992363,209.472183 
	C98.280197,210.819260 101.124832,211.823059 103.749374,211.886261 
	C112.682640,212.101334 121.842216,213.239899 129.995117,207.995117 
	C129.995117,207.995117 130.000000,208.000000 129.997803,208.393005 
	C128.950790,210.195648 128.067886,211.772949 126.822708,212.975006 
	C125.019737,214.715576 122.954681,216.184692 121.001427,217.769608 
z"/>
<path fill="#2F2B33" opacity="1.000000" stroke="none" 
	d="
M121.379944,217.770386 
	C122.954681,216.184692 125.019737,214.715576 126.822708,212.975006 
	C128.067886,211.772949 128.950790,210.195648 130.000244,208.395569 
	C131.481888,208.480988 132.958893,208.956833 135.873260,209.895782 
	C133.457748,210.371521 132.535645,210.553131 130.991913,210.857162 
	C132.196014,211.687057 132.940582,212.200226 133.884003,212.947525 
	C134.023056,213.545013 133.814804,213.772400 133.087158,213.704620 
	C132.459167,213.489395 132.202118,213.433350 131.945068,213.377289 
	C131.999481,213.601044 132.053894,213.824783 132.108292,214.048538 
	C128.658340,215.289413 125.208405,216.530304 121.379944,217.770386 
z"/>
<path fill="#F2F3F5" opacity="1.000000" stroke="none" 
	d="
M145.227905,218.450409 
	C143.066025,220.159042 140.852432,221.461227 138.334732,222.920822 
	C137.824188,218.643997 140.198029,215.890762 144.326721,213.507370 
	C144.662628,215.301193 144.919418,216.672577 145.227905,218.450409 
z"/>
<path fill="#2F2B33" opacity="1.000000" stroke="none" 
	d="
M101.409523,217.986816 
	C106.177010,217.792862 111.340050,217.725677 116.805115,217.944397 
	C112.006454,218.191391 106.905762,218.152496 101.409523,217.986816 
z"/>
<path fill="#2F2B33" opacity="1.000000" stroke="none" 
	d="
M87.007736,208.007690 
	C88.653992,210.129196 90.300247,212.250702 91.955154,214.735001 
	C89.953026,214.377182 87.942230,213.656586 85.576126,212.917389 
	C84.228531,212.207962 83.236252,211.517166 82.285110,210.305283 
	C83.880470,209.188126 85.434685,208.592041 86.993744,207.997742 
	C86.998596,207.999512 87.007736,208.007690 87.007736,208.007690 
z"/>
<path fill="#F5F6F8" opacity="1.000000" stroke="none" 
	d="
M156.246216,278.092163 
	C155.472015,276.333557 155.018265,274.644196 154.553497,272.556305 
	C159.236282,272.902435 159.309509,276.516937 160.022278,281.074585 
	C158.329681,279.647675 157.448166,278.904541 156.246216,278.092163 
z"/>
<path fill="#F5F6F8" opacity="1.000000" stroke="none" 
	d="
M146.103577,292.990906 
	C147.669067,291.751129 149.430573,290.744507 151.501862,289.580231 
	C152.093323,290.909698 152.374985,292.396820 152.722061,294.229370 
	C150.183334,293.831970 148.241455,293.528015 146.103577,292.990906 
z"/>
<path fill="#F2F3F5" opacity="1.000000" stroke="none" 
	d="
M143.830872,208.328094 
	C144.784531,207.017746 145.886093,206.021912 147.246094,204.908081 
	C147.935043,205.385437 148.365570,205.980789 148.796097,206.576172 
	C147.190323,207.264984 145.584549,207.953796 143.830872,208.328094 
z"/>
<path fill="#F1F2F4" opacity="1.000000" stroke="none" 
	d="
M138.862427,265.925903 
	C138.221634,266.522369 137.390594,266.896912 136.288254,267.347351 
	C135.575882,266.993225 135.134796,266.563141 134.693726,266.133087 
	C136.019882,265.990051 137.346024,265.846985 138.862427,265.925903 
z"/>
<path fill="#F2F3F5" opacity="1.000000" stroke="none" 
	d="
M132.788300,228.240585 
	C133.345932,229.081985 133.675232,230.169571 134.020813,231.621872 
	C133.544724,230.819977 133.052338,229.653381 132.788300,228.240585 
z"/>
<path fill="#F1F2F4" opacity="1.000000" stroke="none" 
	d="
M131.970230,270.087585 
	C131.938171,270.833923 131.711929,271.309998 131.237274,271.891449 
	C130.594757,271.163757 130.200684,270.330719 129.903305,269.248840 
	C130.592010,269.272461 131.184036,269.544922 131.970230,270.087585 
z"/>
<path fill="#F5F5F7" opacity="1.000000" stroke="none" 
	d="
M160.507568,195.817474 
	C160.960007,195.210114 161.432266,194.867691 161.904510,194.525253 
	C162.068130,194.893921 162.231735,195.262604 162.395340,195.631271 
	C161.772690,195.781662 161.150024,195.932037 160.507568,195.817474 
z"/>
<path fill="#F5F5F7" opacity="1.000000" stroke="none" 
	d="
M165.104889,154.841278 
	C164.597137,154.246735 164.319427,153.447296 164.084534,152.322830 
	C164.529877,152.877335 164.932388,153.756851 165.104889,154.841278 
z"/>
<path fill="#F2F3F5" opacity="1.000000" stroke="none" 
	d="
M138.528656,211.698303 
	C138.884995,211.091934 139.578918,210.585770 140.593506,210.023834 
	C141.108337,210.623001 141.302536,211.277924 141.496719,211.932846 
	C140.619904,211.888062 139.743088,211.843262 138.528656,211.698303 
z"/>
<path fill="#F5F6F8" opacity="1.000000" stroke="none" 
	d="
M151.977966,269.052612 
	C150.872803,268.607330 149.891190,267.874207 149.796539,266.636292 
	C151.124802,266.087250 151.566086,266.043030 152.007385,265.998779 
	C152.038757,266.920776 152.070145,267.842773 151.977966,269.052612 
z"/>
<path fill="#F2F3F5" opacity="1.000000" stroke="none" 
	d="
M75.837631,215.889038 
	C76.186348,215.695190 76.584328,215.656769 76.952347,215.744293 
	C77.032898,215.763458 77.006638,216.231598 77.029556,216.492966 
	C76.645081,216.358551 76.260605,216.224136 75.837631,215.889038 
z"/>
<path fill="#F2F3F5" opacity="1.000000" stroke="none" 
	d="
M132.957870,239.461884 
	C132.837952,239.158859 132.906784,238.859589 132.975616,238.560303 
	C133.032623,238.862076 133.089630,239.163849 132.957870,239.461884 
z"/>
<path fill="#F5F5F7" opacity="1.000000" stroke="none" 
	d="
M163.559219,178.942444 
	C163.428497,178.479248 163.541229,177.952209 163.832703,177.214401 
	C163.941864,177.628632 163.872269,178.253616 163.559219,178.942444 
z"/>
<path fill="#F1F2F4" opacity="1.000000" stroke="none" 
	d="
M148.806000,266.948730 
	C148.269104,267.137970 147.706024,266.985168 146.986084,266.676270 
	C147.479416,266.549011 148.129623,266.577850 148.806000,266.948730 
z"/>
<path fill="#F1F2F4" opacity="1.000000" stroke="none" 
	d="
M151.783234,265.799316 
	C151.566086,266.043030 151.124802,266.087250 150.019409,266.201660 
	C149.355316,266.271790 149.369110,266.212311 149.344177,266.194092 
	C150.065857,265.983826 150.812485,265.791809 151.783234,265.799316 
z"/>
<path fill="#302D39" opacity="1.000000" stroke="none" 
	d="
M132.343445,214.062317 
	C132.053894,213.824783 131.999481,213.601044 131.945068,213.377289 
	C132.202118,213.433350 132.459167,213.489395 132.844910,213.682358 
	C132.973587,213.819260 132.578613,214.076080 132.343445,214.062317 
z"/>
<path fill="#F2F3F5" opacity="1.000000" stroke="none" 
	d="
M132.816071,225.023605 
	C132.997360,225.178452 132.967484,225.346848 132.863220,225.760712 
	C132.493057,225.798187 132.197281,225.590164 131.901505,225.382126 
	C132.135971,225.267136 132.370438,225.152145 132.816071,225.023605 
z"/>
<path fill="#F5F5F7" opacity="1.000000" stroke="none" 
	d="
M159.067215,189.800568 
	C159.051071,189.459381 159.271637,188.973953 159.744003,188.340240 
	C159.765167,188.680084 159.534546,189.168213 159.067215,189.800568 
z"/>
<path fill="#F5F5F7" opacity="1.000000" stroke="none" 
	d="
M166.332092,178.009735 
	C166.423843,177.894958 166.515137,177.882645 166.606415,177.870316 
	C166.514816,177.950928 166.423203,178.031555 166.332092,178.009735 
z"/>
<path fill="#F5F5F7" opacity="1.000000" stroke="none" 
	d="
M165.411285,158.972137 
	C165.164551,158.837173 165.113617,158.671432 165.117752,158.251541 
	C165.317566,158.312042 165.462341,158.626694 165.411285,158.972137 
z"/>
<path fill="#F1F2F4" opacity="1.000000" stroke="none" 
	d="
M132.479645,260.513245 
	C132.466721,260.484589 132.492554,260.541931 132.479645,260.513245 
z"/>
<path fill="#30303B" opacity="1.000000" stroke="none" 
	d="
M221.239670,20.105021 
	C227.206421,19.772940 233.173157,19.440861 239.811005,19.343273 
	C242.275757,20.261433 244.069412,20.945103 245.863083,21.628775 
	C247.530106,22.873180 249.197144,24.117588 250.660690,25.710358 
	C249.644043,26.364218 248.830872,26.669712 247.902435,26.765522 
	C247.433060,26.305866 247.078979,26.055899 246.724884,25.805927 
	C246.648209,25.931124 246.571548,26.056324 246.494888,26.181526 
	C246.987045,26.463419 247.479187,26.745312 247.976807,27.413898 
	C248.654877,29.200512 249.327484,30.600430 250.000046,32.000175 
	C250.000000,32.000000 249.999390,31.999619 249.991745,32.348114 
	C249.655975,33.797764 249.327850,34.898918 248.728455,35.804276 
	C245.468689,32.014961 242.214630,29.441835 237.227219,28.286520 
	C227.907700,26.127699 218.501740,29.674370 214.348816,38.209015 
	C210.304138,46.521202 213.082657,57.761600 220.441467,62.856667 
	C228.596161,68.502785 239.653305,67.783371 245.989517,61.145138 
	C252.796677,54.013515 253.205811,45.837074 250.153290,37.044647 
	C251.547318,35.793064 252.508698,34.476219 253.676437,33.378967 
	C254.355255,32.741112 255.365173,32.455631 256.226105,32.011589 
	C262.479218,41.360062 262.391846,51.050636 257.179596,60.651588 
	C251.697281,70.750069 242.840302,75.535820 231.394211,75.468658 
	C229.243835,75.456055 227.095825,75.036774 224.320984,74.512581 
	C222.158020,73.688965 220.620834,73.157913 219.083633,72.626862 
	C216.196625,70.289330 213.309616,67.951790 210.574951,65.216736 
	C209.903458,62.337936 208.869141,59.902252 208.318893,57.361717 
	C207.832733,55.117191 207.067352,52.416996 207.856308,50.510086 
	C210.140915,44.988293 209.981033,42.974159 205.117172,38.004444 
	C206.748627,34.924149 208.380096,31.843853 210.424728,28.321852 
	C211.928833,26.676243 213.019775,25.472340 214.110718,24.268433 
	C215.245041,23.592724 216.379364,22.917017 218.065964,21.970139 
	C219.492050,21.167652 220.365860,20.636337 221.239670,20.105021 
z"/>
<path fill="#292A32" opacity="1.000000" stroke="none" 
	d="
M205.002045,38.380394 
	C209.981033,42.974159 210.140915,44.988293 207.856308,50.510086 
	C207.067352,52.416996 207.832733,55.117191 208.318893,57.361717 
	C208.869141,59.902252 209.903458,62.337936 210.472549,64.904243 
	C208.954514,63.152451 207.691208,61.315624 206.196320,58.947605 
	C205.628464,57.949120 205.292175,57.481831 204.955872,57.014538 
	C204.663635,55.898842 204.371399,54.783146 204.022598,52.997025 
	C203.871307,51.882835 203.776581,51.439079 203.681854,50.995319 
	C203.656372,50.235535 203.630890,49.475746 203.584641,48.018314 
	C203.458405,46.844872 203.352936,46.369080 203.247467,45.893284 
	C203.247467,45.893284 203.550415,45.976192 203.995163,46.060638 
	C205.187332,45.913219 205.934738,45.681358 206.682159,45.449493 
	C205.768555,44.967758 204.854965,44.486023 203.941360,44.004288 
	C204.256546,42.254974 204.571747,40.505657 205.002045,38.380394 
z"/>
<path fill="#292934" opacity="1.000000" stroke="none" 
	d="
M248.999741,36.000076 
	C249.327850,34.898918 249.655975,33.797764 250.187653,32.331253 
	C250.587753,31.827059 250.784302,31.688219 250.980835,31.549374 
	C250.867310,31.506708 250.704742,31.394230 250.648773,31.433533 
	C250.415100,31.597633 250.213470,31.807354 250.000092,32.000343 
	C249.327484,30.600430 248.654877,29.200512 247.989349,27.401636 
	C247.996460,27.002676 248.017700,26.975206 248.017700,26.975208 
	C248.830872,26.669712 249.644043,26.364218 250.780334,26.010727 
	C252.753143,27.756369 254.402817,29.550011 256.139282,31.677620 
	C255.365173,32.455631 254.355255,32.741112 253.676437,33.378967 
	C252.508698,34.476219 251.547318,35.793064 249.945801,36.930656 
	C249.153778,36.612503 249.022934,36.331337 248.999741,36.000076 
z"/>
<path fill="#F0F2F3" opacity="1.000000" stroke="none" 
	d="
M218.784790,72.768456 
	C220.620834,73.157913 222.158020,73.688965 223.902725,74.454544 
	C222.615479,75.200684 221.140350,75.854515 219.604263,76.066376 
	C219.380859,76.097198 218.865967,74.014664 218.784790,72.768456 
z"/>
<path fill="#F0F2F3" opacity="1.000000" stroke="none" 
	d="
M247.799622,81.950752 
	C246.055527,83.012054 244.023132,83.788940 241.614471,84.598984 
	C241.168701,79.073662 244.736099,81.207771 247.799622,81.950752 
z"/>
<path fill="#F4F5F7" opacity="1.000000" stroke="none" 
	d="
M213.890564,24.010469 
	C213.019775,25.472340 211.928833,26.676243 210.552856,27.994686 
	C209.080292,24.843712 209.735718,23.017550 213.890564,24.010469 
z"/>
<path fill="#F4F5F7" opacity="1.000000" stroke="none" 
	d="
M245.841278,21.253218 
	C244.069412,20.945103 242.275757,20.261433 240.226852,19.331585 
	C241.920898,19.682825 243.870193,20.280243 245.841278,21.253218 
z"/>
<path fill="#30303B" opacity="1.000000" stroke="none" 
	d="
M203.796661,44.300949 
	C204.854965,44.486023 205.768555,44.967758 206.682159,45.449493 
	C205.934738,45.681358 205.187332,45.913219 204.144516,46.012085 
	C203.783401,45.451931 203.717682,45.024773 203.796661,44.300949 
z"/>
<path fill="#F4F5F7" opacity="1.000000" stroke="none" 
	d="
M220.944092,19.979015 
	C220.365860,20.636337 219.492050,21.167652 218.306885,21.739340 
	C218.879868,21.137478 219.764175,20.495241 220.944092,19.979015 
z"/>
<path fill="#F0F2F3" opacity="1.000000" stroke="none" 
	d="
M225.033539,84.601425 
	C224.236588,84.851151 223.661362,84.826744 223.001434,84.283356 
	C222.944473,83.509453 222.972244,83.254539 223.000000,82.999619 
	C223.751755,83.442169 224.503510,83.884727 225.033539,84.601425 
z"/>
<path fill="#F4F5F7" opacity="1.000000" stroke="none" 
	d="
M199.759949,36.433399 
	C199.478867,36.914570 199.167618,37.170334 198.856384,37.426102 
	C198.720901,37.174881 198.585434,36.923660 198.449951,36.672432 
	C198.876572,36.517620 199.303177,36.362808 199.759949,36.433399 
z"/>
<path fill="#F4F5F7" opacity="1.000000" stroke="none" 
	d="
M204.781494,57.205315 
	C205.292175,57.481831 205.628464,57.949120 205.960449,58.715263 
	C205.506470,58.474770 205.056793,57.935432 204.781494,57.205315 
z"/>
<path fill="#F4F5F7" opacity="1.000000" stroke="none" 
	d="
M203.440094,51.068245 
	C203.776581,51.439079 203.871307,51.882835 203.901001,52.664383 
	C203.623413,52.381840 203.410858,51.761505 203.440094,51.068245 
z"/>
<path fill="#F4F5F7" opacity="1.000000" stroke="none" 
	d="
M203.062531,46.004879 
	C203.352936,46.369080 203.458405,46.844872 203.431458,47.668167 
	C203.158554,47.382607 203.018066,46.749542 203.062531,46.004879 
z"/>
<path fill="#F4F5F7" opacity="1.000000" stroke="none" 
	d="
M222.815079,82.819885 
	C222.972244,83.254539 222.944473,83.509453 222.874664,84.146706 
	C222.415817,84.422081 221.999023,84.315125 221.290909,84.064995 
	C221.543106,83.494598 222.086624,83.067383 222.815079,82.819885 
z"/>
<path fill="#F4F5F7" opacity="1.000000" stroke="none" 
	d="
M232.926849,12.398535 
	C232.740143,12.618870 232.472656,12.711708 232.197403,12.753983 
	C232.155182,12.760464 232.077164,12.533816 232.015701,12.414993 
	C232.291641,12.361496 232.567581,12.307997 232.926849,12.398535 
z"/>
<path fill="#F0F2F3" opacity="1.000000" stroke="none" 
	d="
M238.836365,77.558578 
	C238.880905,77.425568 238.974365,77.382660 239.067825,77.339752 
	C239.006973,77.442726 238.946136,77.545708 238.836365,77.558578 
z"/>
<path fill="#F0F2F3" opacity="1.000000" stroke="none" 
	d="
M247.845306,73.402756 
	C248.009766,73.369987 248.103836,73.414841 248.197891,73.459686 
	C248.056900,73.466583 247.915909,73.473473 247.845306,73.402756 
z"/>
<path fill="#F4F5F7" opacity="1.000000" stroke="none" 
	d="
M224.165726,13.441406 
	C224.120941,13.575654 224.026947,13.619069 223.932953,13.662481 
	C223.994141,13.558511 224.055328,13.454543 224.165726,13.441406 
z"/>
<path fill="#F4F5F7" opacity="1.000000" stroke="none" 
	d="
M204.489990,31.483269 
	C204.515671,31.472254 204.464310,31.494282 204.489990,31.483269 
z"/>
<path fill="#F4F5F7" opacity="1.000000" stroke="none" 
	d="
M255.483368,26.510294 
	C255.472580,26.484932 255.494171,26.535656 255.483368,26.510294 
z"/>
<path fill="#2E2D3A" opacity="1.000000" stroke="none" 
	d="
M124.983368,111.858826 
	C128.472870,114.803894 131.965073,117.764839 135.284363,120.579163 
	C134.110382,121.019531 131.881989,121.855423 129.038986,122.805710 
	C127.948875,122.613953 127.473366,122.307800 126.985413,121.643127 
	C126.549286,118.958961 125.860832,117.093254 122.557854,118.998703 
	C116.742516,119.331688 111.370918,119.664360 105.942070,119.728943 
	C105.256935,119.639618 104.629051,119.818390 103.691048,120.173668 
	C101.563423,120.629753 99.732460,120.842651 97.931740,121.205536 
	C95.596886,121.676079 92.967773,121.739151 91.028938,122.910522 
	C86.505089,125.643654 82.318077,128.934311 78.006714,131.637222 
	C77.345825,128.211594 76.672844,125.147865 75.999863,122.084145 
	C79.707344,119.655144 83.414825,117.226143 87.682266,114.497452 
	C89.554886,113.655182 90.867554,113.112579 92.180214,112.569977 
	C92.880379,112.393341 93.580551,112.216705 94.639648,112.406853 
	C94.998589,114.048210 94.998589,115.322784 94.998589,116.381226 
	C96.785789,116.151817 98.440460,115.993988 100.074265,115.714310 
	C101.694405,115.436966 103.343933,115.184235 104.889832,114.655457 
	C107.107903,113.896751 109.188744,112.709114 111.430435,112.055176 
	C113.566872,111.431938 115.834465,111.258278 118.044395,110.886971 
	C118.782616,110.869240 119.520844,110.851517 120.667679,111.179276 
	C121.385590,112.015732 121.694885,112.506714 122.537872,112.902542 
	C123.720093,112.495651 124.368614,112.183907 125.017136,111.872162 
	C125.017136,111.872162 124.986069,111.874687 124.983368,111.858826 
z"/>
<path fill="#323142" opacity="1.000000" stroke="none" 
	d="
M75.790253,122.065689 
	C76.672844,125.147865 77.345825,128.211594 77.862854,131.936188 
	C76.322983,133.887085 74.939072,135.177109 73.334671,136.672668 
	C71.617081,134.713837 70.230827,133.132889 68.844574,131.551926 
	C70.845169,128.597839 72.845772,125.643753 75.003395,122.380035 
	C75.160416,122.070389 75.580635,122.047234 75.790253,122.065689 
z"/>
<path fill="#2F2B33" opacity="1.000000" stroke="none" 
	d="
M117.821136,110.508057 
	C115.834465,111.258278 113.566872,111.431938 111.430435,112.055176 
	C109.188744,112.709114 107.107903,113.896751 104.889832,114.655457 
	C103.343933,115.184235 101.694405,115.436966 100.074265,115.714310 
	C98.440460,115.993988 96.785789,116.151817 94.998589,116.381226 
	C94.998589,115.322784 94.998589,114.048210 95.001144,112.421844 
	C102.535088,111.423080 110.066483,110.776115 117.821136,110.508057 
z"/>
<path fill="#EFF1F2" opacity="1.000000" stroke="none" 
	d="
M91.983139,112.271469 
	C90.867554,113.112579 89.554886,113.655182 87.939804,114.245247 
	C87.248398,113.830902 86.859413,113.369080 86.470436,112.907265 
	C88.242310,112.595825 90.014191,112.284386 91.983139,112.271469 
z"/>
<path fill="#302D39" opacity="1.000000" stroke="none" 
	d="
M124.840088,111.642822 
	C124.368614,112.183907 123.720093,112.495651 122.649033,112.660919 
	C122.480560,112.046890 122.734619,111.579323 122.988678,111.111755 
	C123.546791,111.212334 124.104919,111.312904 124.840088,111.642822 
z"/>
<path fill="#2F2B33" opacity="1.000000" stroke="none" 
	d="
M122.668365,110.984497 
	C122.734619,111.579323 122.480560,112.046890 122.115349,112.756073 
	C121.694885,112.506714 121.385590,112.015732 121.037201,111.228943 
	C121.448090,110.907829 121.898064,110.882538 122.668365,110.984497 
z"/>
<path fill="#2F2B33" opacity="1.000000" stroke="none" 
	d="
M68.535210,131.614380 
	C70.230827,133.132889 71.617081,134.713837 73.334671,136.672668 
	C74.939072,135.177109 76.322983,133.887085 77.850761,132.298096 
	C82.318077,128.934311 86.505089,125.643654 91.028938,122.910522 
	C92.967773,121.739151 95.596886,121.676079 97.931740,121.205536 
	C99.732460,120.842651 101.563423,120.629753 104.024055,120.174278 
	C105.111221,119.997932 105.555267,119.997482 105.999313,119.997032 
	C111.370918,119.664360 116.742516,119.331688 122.717712,119.284164 
	C124.546829,120.380089 125.772346,121.190865 126.997864,122.001640 
	C127.473366,122.307800 127.948875,122.613953 128.711884,122.962105 
	C129.118179,127.892220 133.757401,125.123795 135.806671,126.964272 
	C137.402130,128.397171 139.746765,128.957672 141.606552,130.143997 
	C144.041412,131.697174 146.226089,133.653122 148.700027,135.131973 
	C152.391998,137.338928 150.861557,140.446701 149.918671,143.540741 
	C147.949020,141.864670 146.624695,139.961395 145.072235,138.267166 
	C142.219025,135.153427 140.842636,129.863678 134.929047,131.099106 
	C134.950623,131.090393 134.920593,131.111053 134.894577,130.800873 
	C134.272766,130.052231 133.676956,129.613770 132.715942,129.075806 
	C120.565308,123.472992 108.427139,121.465515 95.919212,126.086456 
	C88.575172,128.799652 81.338898,131.959686 77.597595,139.978729 
	C76.136185,141.650818 75.028526,143.288437 73.597794,145.052597 
	C72.827988,146.439651 72.381241,147.700165 71.722153,149.197098 
	C71.289703,150.243408 71.069595,151.053299 70.566025,152.108154 
	C69.900055,153.075928 69.347389,153.757309 69.160011,154.527557 
	C64.888191,172.087280 71.858925,192.692001 90.577667,202.570206 
	C102.149239,208.676758 113.688736,209.965790 125.877899,205.180222 
	C129.566101,203.732193 133.268295,202.319763 136.964081,200.891037 
	C135.685394,202.186691 134.445068,203.523468 133.115189,204.764252 
	C132.153000,205.662018 131.071945,206.432419 130.019501,207.627380 
	C121.842216,213.239899 112.682640,212.101334 103.749374,211.886261 
	C101.124832,211.823059 98.280197,210.819260 95.992363,209.472183 
	C93.292053,207.882248 90.844681,206.677963 87.384712,207.990799 
	C87.007736,208.007690 86.998596,207.999512 86.770256,207.727509 
	C82.086205,203.731247 77.664154,199.965073 73.138252,196.328140 
	C72.464272,195.786560 71.190376,195.488098 70.393219,195.730972 
	C69.402245,196.032883 68.618401,197.014664 67.745102,197.702820 
	C66.812782,196.584702 65.880463,195.466583 64.679840,194.103455 
	C63.767117,192.713135 63.122684,191.567825 62.235359,189.918884 
	C61.662441,188.943237 61.332420,188.471222 61.002403,187.999222 
	C59.305546,180.984207 56.798309,174.049988 56.089031,166.936508 
	C54.811127,154.120193 58.939682,142.491699 66.673828,131.862030 
	C67.400536,131.690170 67.813187,131.683502 68.535210,131.614380 
z"/>
<path fill="#F2F3F5" opacity="1.000000" stroke="none" 
	d="
M58.671642,193.763763 
	C58.528248,192.983627 58.575085,192.389587 58.621922,191.795532 
	C58.998138,191.960846 59.374355,192.126175 59.750565,192.291504 
	C59.454330,192.844284 59.158104,193.397064 58.671642,193.763763 
z"/>
<path fill="#F2F3F5" opacity="1.000000" stroke="none" 
	d="
M60.768784,188.130310 
	C61.332420,188.471222 61.662441,188.943237 61.976280,189.714050 
	C61.485126,189.429047 61.010151,188.845215 60.768784,188.130310 
z"/>
<path fill="#EFF1F2" opacity="1.000000" stroke="none" 
	d="
M58.440102,135.830902 
	C58.470963,135.813980 58.409233,135.847839 58.440102,135.830902 
z"/>
<path fill="#F1F2F6" opacity="1.000000" stroke="none" 
	d="
M52.490753,112.483383 
	C52.515873,112.472847 52.465630,112.493927 52.490753,112.483383 
z"/>
<path fill="#2F3037" opacity="1.000000" stroke="none" 
	d="
M15.951601,99.141838 
	C11.595448,96.609680 10.169052,90.831932 12.733493,85.639610 
	C13.372070,84.346664 14.386364,83.239273 15.609171,82.151154 
	C16.567770,82.498650 17.145163,82.741585 17.722557,82.984512 
	C17.470770,82.318756 17.218983,81.653000 16.967197,80.987244 
	C18.730534,80.307892 20.493872,79.628532 22.713833,79.345886 
	C23.783331,81.146828 24.396204,82.551079 24.608418,83.976562 
	C20.612844,83.928001 17.563280,85.441277 17.283615,89.017792 
	C17.070368,91.744942 17.807316,95.753296 19.643459,97.071007 
	C21.257545,98.229347 24.988836,96.469154 27.772776,95.933998 
	C28.227699,95.846542 28.619057,95.428406 29.183022,95.333038 
	C30.906912,97.591713 30.434137,99.077705 27.987392,99.796280 
	C27.825026,99.408020 27.684261,99.214088 27.543495,99.020164 
	C27.501839,99.134148 27.390837,99.295944 27.430685,99.353729 
	C27.592461,99.588333 27.800550,99.791000 28.090614,100.464539 
	C28.260347,101.228638 28.331022,101.533661 28.179749,101.934174 
	C27.609171,102.028351 27.327257,102.164841 27.112055,102.439140 
	C24.660419,102.336792 22.208784,102.234444 19.492462,101.726761 
	C18.448915,100.124115 18.798241,97.231018 15.951601,99.141838 
z"/>
<path fill="#313139" opacity="1.000000" stroke="none" 
	d="
M25.009079,83.955322 
	C24.396204,82.551079 23.783331,81.146828 23.084848,79.418716 
	C25.005280,79.387390 27.011318,79.679932 29.569778,80.314407 
	C31.192089,81.533852 32.261974,82.411362 33.331863,83.288864 
	C33.716232,84.052216 34.100597,84.815559 34.764469,86.138542 
	C35.311363,88.681976 35.578758,90.665787 35.846153,92.649590 
	C35.328392,93.874481 34.810627,95.099365 33.994713,96.878868 
	C31.931608,98.901878 30.166655,100.370277 28.401699,101.838676 
	C28.331022,101.533661 28.260347,101.228638 28.095047,100.461609 
	C28.000422,99.999588 28.008997,99.990623 28.008997,99.990623 
	C30.434137,99.077705 30.906912,97.591713 29.264267,94.936142 
	C31.294607,89.492699 29.751614,86.079857 25.009079,83.955322 
z"/>
<path fill="#F1F2F6" opacity="1.000000" stroke="none" 
	d="
M35.891838,92.980896 
	C35.578758,90.665787 35.311363,88.681976 35.030380,86.319672 
	C35.912453,85.824051 36.808113,85.706924 37.703781,85.589798 
	C37.711800,88.314720 37.719822,91.039650 37.132904,93.878922 
	C36.537964,93.993271 36.052334,93.971161 36.052334,93.971161 
	C36.014065,93.751511 35.975796,93.531860 35.891838,92.980896 
z"/>
<path fill="#F1F2F6" opacity="1.000000" stroke="none" 
	d="
M28.179749,101.934174 
	C30.166655,100.370277 31.931608,98.901878 33.970207,97.217041 
	C34.472519,98.083801 35.095280,100.013557 34.868763,100.119003 
	C32.649765,101.152023 30.289228,101.880997 27.540489,102.567764 
	C27.327257,102.164841 27.609171,102.028351 28.179749,101.934174 
z"/>
<path fill="#F1F2F6" opacity="1.000000" stroke="none" 
	d="
M33.611343,83.118958 
	C32.261974,82.411362 31.192089,81.533852 29.949551,80.373634 
	C31.884539,79.983772 35.101692,78.279602 33.611343,83.118958 
z"/>
<path fill="#313139" opacity="1.000000" stroke="none" 
	d="
M16.041971,99.404526 
	C18.798241,97.231018 18.448915,100.124115 19.146355,101.569901 
	C18.578882,101.593094 18.092829,101.367813 17.336796,101.060501 
	C16.755322,100.541397 16.443830,100.104309 16.041971,99.404526 
z"/>
<path fill="#313139" opacity="1.000000" stroke="none" 
	d="
M16.735264,80.988815 
	C17.218983,81.653000 17.470770,82.318756 17.722557,82.984512 
	C17.145163,82.741585 16.567770,82.498650 15.940769,81.996017 
	C15.891161,81.736313 15.936753,81.369751 15.988434,81.192429 
	C16.040115,81.015114 16.503330,80.990395 16.735264,80.988815 
z"/>
<path fill="#EFF1F2" opacity="1.000000" stroke="none" 
	d="
M36.137146,94.111374 
	C36.052334,93.971161 36.537964,93.993271 36.781082,94.003166 
	C37.024197,94.013062 36.664490,94.329552 36.664490,94.329552 
	C36.664490,94.329552 36.221954,94.251587 36.137146,94.111374 
z"/>
<path fill="#F1F2F4" opacity="1.000000" stroke="none" 
	d="
M126.399841,269.157043 
	C126.373367,269.133148 126.426315,269.181000 126.399841,269.157043 
z"/>
<path fill="#302D39" opacity="1.000000" stroke="none" 
	d="
M67.829140,197.946106 
	C68.618401,197.014664 69.402245,196.032883 70.393219,195.730972 
	C71.190376,195.488098 72.464272,195.786560 73.138252,196.328140 
	C77.664154,199.965073 82.086205,203.731247 86.765411,207.725739 
	C85.434685,208.592041 83.880470,209.188126 82.100128,210.061417 
	C77.220390,206.288879 72.566780,202.239136 67.829140,197.946106 
z"/>
<path fill="#F1F3F2" opacity="1.000000" stroke="none" 
	d="
M63.998192,203.998657 
	C64.345703,203.537933 64.693222,203.077209 65.040741,202.616486 
	C65.156281,202.722885 65.377480,202.916840 65.372231,202.923157 
	C65.093414,203.259720 64.795456,203.580444 64.249748,203.951416 
	C64.000000,204.000000 63.998192,203.998657 63.998192,203.998657 
z"/>
<path fill="#F1F3F2" opacity="1.000000" stroke="none" 
	d="
M64.000687,204.000916 
	C64.001366,204.001831 63.802391,204.323090 63.802391,204.323090 
	C63.802391,204.323090 63.818111,204.087051 63.908150,204.042847 
	C63.998192,203.998657 64.000000,204.000000 64.000687,204.000916 
z"/>
<path fill="#F8F9FC" opacity="1.000000" stroke="none" 
	d="
M131.826950,291.571106 
	C131.636581,291.296112 131.612213,291.043304 131.587830,290.790466 
	C131.728394,290.809753 131.985992,290.814209 131.990631,290.850769 
	C132.021561,291.094452 131.998474,291.344940 131.826950,291.571106 
z"/>
<path fill="#502F0F" opacity="1.000000" stroke="none" 
	d="
M134.907486,131.107819 
	C140.842636,129.863678 142.219025,135.153427 145.072235,138.267166 
	C146.624695,139.961395 147.949020,141.864670 149.663239,143.843170 
	C149.978729,145.072174 150.007202,146.131699 150.219543,147.908813 
	C154.606384,155.244125 153.775055,162.719345 154.045166,170.006943 
	C154.018448,170.748352 153.991745,171.489746 153.760101,172.804810 
	C153.394775,173.922211 153.234406,174.465973 153.074020,175.009735 
	C153.045486,175.442291 153.016953,175.874832 152.794678,176.769196 
	C152.363586,177.441467 152.182510,177.692505 152.057678,177.984131 
	C152.032440,178.426270 152.007187,178.868408 151.741837,179.899780 
	C149.685211,183.995316 147.868698,187.501602 146.052185,191.007889 
	C143.166214,194.138626 140.280258,197.269348 137.179184,200.645569 
	C133.268295,202.319763 129.566101,203.732193 125.877899,205.180222 
	C113.688736,209.965790 102.149239,208.676758 90.577667,202.570206 
	C71.858925,192.692001 64.888191,172.087280 69.160011,154.527557 
	C69.347389,153.757309 69.900055,153.075928 70.624916,152.156586 
	C70.967270,151.960007 71.085495,152.056290 71.081909,152.469971 
	C70.031700,159.432526 67.846451,165.973007 70.849228,172.558395 
	C70.764977,172.564484 70.763802,172.733429 70.765335,173.161041 
	C71.153915,174.579071 71.540962,175.569489 71.858887,176.557327 
	C71.789764,176.554764 71.774612,176.692261 71.777832,177.072113 
	C72.174194,178.325775 72.567329,179.199600 72.973541,180.041962 
	C72.986603,180.010498 72.919785,179.997269 72.935013,180.306732 
	C73.272758,181.115189 73.595276,181.614151 73.919395,182.073364 
	C73.920998,182.033600 73.841568,182.038696 73.857002,182.381348 
	C74.575394,183.845474 75.278343,184.966919 76.075272,186.411896 
	C90.327682,207.648087 116.457115,211.357788 137.282684,195.634888 
	C140.510910,191.747513 143.450150,188.008911 146.637512,184.015594 
	C152.376068,171.987991 153.564880,160.093323 147.829346,147.664062 
	C143.476334,141.918320 139.191910,136.513077 134.907486,131.107819 
z"/>
<path fill="#2F2B33" opacity="1.000000" stroke="none" 
	d="
M154.410522,169.868530 
	C153.775055,162.719345 154.606384,155.244125 150.251831,148.305237 
	C151.096786,148.445038 152.659119,148.650360 153.001068,149.407150 
	C155.952942,155.940002 157.423874,162.676651 154.410522,169.868530 
z"/>
<path fill="#2F2B33" opacity="1.000000" stroke="none" 
	d="
M146.406830,190.992203 
	C147.868698,187.501602 149.685211,183.995316 151.737915,180.231934 
	C151.662094,182.070526 151.350113,184.166245 151.019333,186.631012 
	C151.000534,187.000061 150.987411,187.017334 150.987411,187.017334 
	C149.578751,188.337051 148.170105,189.656784 146.406830,190.992203 
z"/>
<path fill="#2F2B33" opacity="1.000000" stroke="none" 
	d="
M153.334839,174.955109 
	C153.234406,174.465973 153.394775,173.922211 153.761215,173.175781 
	C153.843414,173.615555 153.719543,174.258026 153.334839,174.955109 
z"/>
<path fill="#2F2B33" opacity="1.000000" stroke="none" 
	d="
M152.249741,177.850571 
	C152.182510,177.692505 152.363586,177.441467 152.791412,177.094330 
	C152.861099,177.252914 152.681061,177.506042 152.249741,177.850571 
z"/>
<path fill="#2F2B33" opacity="1.000000" stroke="none" 
	d="
M151.009247,186.993454 
	C151.017975,186.986847 151.336426,187.205475 151.336426,187.205475 
	C151.336426,187.205475 151.084778,187.196884 151.036102,187.107117 
	C150.987411,187.017334 151.000534,187.000061 151.009247,186.993454 
z"/>
<path fill="#9B9BA7" opacity="1.000000" stroke="none" 
	d="
M149.382843,285.413483 
	C144.635361,289.044739 139.911835,289.269043 136.464355,286.300079 
	C133.505997,283.752350 132.665024,278.531860 134.625107,274.882812 
	C136.624756,271.160095 141.078262,269.421112 145.293747,270.716949 
	C151.555893,272.641998 153.198257,278.068329 149.382843,285.413483 
z"/>
<path fill="#A29DA8" opacity="1.000000" stroke="none" 
	d="
M248.728455,35.804276 
	C249.022934,36.331337 249.153778,36.612503 249.599762,36.957561 
	C253.205811,45.837074 252.796677,54.013515 245.989517,61.145138 
	C239.653305,67.783371 228.596161,68.502785 220.441467,62.856667 
	C213.082657,57.761600 210.304138,46.521202 214.348816,38.209015 
	C218.501740,29.674370 227.907700,26.127699 237.227219,28.286520 
	C242.214630,29.441835 245.468689,32.014961 248.728455,35.804276 
z"/>
<path fill="#292934" opacity="1.000000" stroke="none" 
	d="
M247.983902,27.014938 
	C247.479187,26.745312 246.987045,26.463419 246.494888,26.181526 
	C246.571548,26.056324 246.648209,25.931124 246.724884,25.805927 
	C247.078979,26.055899 247.433060,26.305866 247.902435,26.765520 
	C248.017700,26.975206 247.996460,27.002676 247.983902,27.014938 
z"/>
<path fill="#30303B" opacity="1.000000" stroke="none" 
	d="
M250.000046,32.000168 
	C250.213470,31.807354 250.415100,31.597633 250.648773,31.433533 
	C250.704742,31.394230 250.867310,31.506708 250.980835,31.549374 
	C250.784302,31.688219 250.587753,31.827059 250.195297,31.982759 
	C249.999390,31.999619 250.000000,32.000000 250.000046,32.000168 
z"/>
<path fill="#302D39" opacity="1.000000" stroke="none" 
	d="
M126.985413,121.643127 
	C125.772346,121.190865 124.546829,120.380089 123.161453,119.283852 
	C125.860832,117.093254 126.549286,118.958961 126.985413,121.643127 
z"/>
<path fill="#302D39" opacity="1.000000" stroke="none" 
	d="
M105.942070,119.728943 
	C105.555267,119.997482 105.111221,119.997932 104.334167,119.997772 
	C104.629051,119.818390 105.256935,119.639618 105.942070,119.728943 
z"/>
<path fill="#DE9C3A" opacity="1.000000" stroke="none" 
	d="
M71.774612,176.692261 
	C71.774612,176.692261 71.789764,176.554764 71.870728,176.142914 
	C71.555725,174.731857 71.159767,173.732651 70.763802,172.733429 
	C70.763802,172.733429 70.764977,172.564484 70.870773,172.055634 
	C71.728317,165.333603 72.310570,159.093094 73.307312,152.919479 
	C73.767151,150.071350 75.037285,147.354050 75.983398,144.254852 
	C76.668297,142.602936 77.309822,141.273590 77.951340,139.944244 
	C81.338898,131.959686 88.575172,128.799652 95.919212,126.086456 
	C108.427139,121.465515 120.565308,123.472992 132.764587,129.358978 
	C133.759155,130.198120 134.339874,130.654587 134.920593,131.111053 
	C134.920593,131.111053 134.950623,131.090393 134.929047,131.099106 
	C139.191910,136.513077 143.476334,141.918320 147.620407,147.934814 
	C147.778000,150.247406 148.128769,151.941589 148.360458,153.651917 
	C148.646286,155.761887 148.833008,157.885254 148.815948,159.730515 
	C148.123230,158.034760 147.603775,156.629639 147.242584,155.184982 
	C144.376266,143.720703 138.216522,135.346024 126.125481,132.434662 
	C125.347916,132.247406 124.531761,131.792191 123.963264,131.229523 
	C116.160812,123.507103 106.108589,125.900085 98.645081,129.057953 
	C90.396858,132.547821 80.440460,137.075775 78.778740,148.555237 
	C78.693481,149.144226 78.031769,149.638672 77.676949,150.201416 
	C73.638145,156.606979 71.612503,163.350952 74.068649,170.907700 
	C74.525772,172.314117 74.377022,173.967545 75.014229,175.256699 
	C77.822342,180.937881 79.809280,187.451935 83.949562,191.959702 
	C92.844849,201.644470 105.235809,202.238693 117.513573,201.967316 
	C118.459831,201.946396 119.428635,201.493088 120.329460,201.106689 
	C125.878258,198.726639 131.410522,196.308044 136.958984,194.215912 
	C136.977692,194.947601 136.985703,195.365631 136.993713,195.783661 
	C116.457115,211.357788 90.327682,207.648087 76.076065,186.053772 
	C75.269127,184.261002 74.555351,183.149857 73.841568,182.038696 
	C73.841568,182.038696 73.920998,182.033600 73.906250,181.764404 
	C73.567596,180.995895 73.243690,180.496582 72.919785,179.997269 
	C72.919785,179.997269 72.986603,180.010498 72.982132,179.671158 
	C72.576653,178.451965 72.175636,177.572113 71.774612,176.692261 
z"/>
<path fill="#502F0F" opacity="1.000000" stroke="none" 
	d="
M77.597595,139.978729 
	C77.309822,141.273590 76.668297,142.602936 75.668388,144.328186 
	C74.898254,144.838562 74.486496,144.953033 74.036499,145.031891 
	C73.998260,144.996262 73.920860,144.926041 73.920860,144.926041 
	C75.028526,143.288437 76.136185,141.650818 77.597595,139.978729 
z"/>
<path fill="#502F0F" opacity="1.000000" stroke="none" 
	d="
M71.934494,148.960663 
	C72.381241,147.700165 72.827988,146.439651 73.597794,145.052597 
	C73.920860,144.926041 73.998260,144.996262 73.991646,145.357117 
	C73.407707,146.878342 72.830376,148.038742 72.173950,149.138794 
	C72.094856,149.078445 71.934494,148.960663 71.934494,148.960663 
z"/>
<path fill="#502F0F" opacity="1.000000" stroke="none" 
	d="
M134.894577,130.800873 
	C134.339874,130.654587 133.759155,130.198120 133.129791,129.458481 
	C133.676956,129.613770 134.272766,130.052231 134.894577,130.800873 
z"/>
<path fill="#502F0F" opacity="1.000000" stroke="none" 
	d="
M70.908371,151.911591 
	C71.069595,151.053299 71.289703,150.243408 71.722153,149.197098 
	C71.934494,148.960663 72.094856,149.078445 72.109146,149.447662 
	C71.777451,150.563339 71.431473,151.309814 71.085495,152.056290 
	C71.085495,152.056290 70.967270,151.960007 70.908371,151.911591 
z"/>
<path fill="#9D9DA7" opacity="1.000000" stroke="none" 
	d="
M24.608419,83.976562 
	C29.751614,86.079857 31.294607,89.492699 29.121040,94.766205 
	C28.619057,95.428406 28.227699,95.846542 27.772776,95.933998 
	C24.988836,96.469154 21.257545,98.229347 19.643459,97.071007 
	C17.807316,95.753296 17.070368,91.744942 17.283615,89.017792 
	C17.563280,85.441277 20.612844,83.928001 24.608419,83.976562 
z"/>
<path fill="#313139" opacity="1.000000" stroke="none" 
	d="
M27.995991,100.002518 
	C27.800550,99.791000 27.592461,99.588333 27.430685,99.353729 
	C27.390837,99.295944 27.501839,99.134148 27.543495,99.020164 
	C27.684261,99.214088 27.825026,99.408020 27.987392,99.796280 
	C28.008997,99.990623 28.000422,99.999588 27.995991,100.002518 
z"/>
<path fill="#D49C42" opacity="1.000000" stroke="none" 
	d="
M149.062546,160.002838 
	C148.833008,157.885254 148.646286,155.761887 148.360458,153.651917 
	C148.128769,151.941589 147.778000,150.247406 147.688995,148.275299 
	C153.564880,160.093323 152.376068,171.987991 146.510986,183.931305 
	C146.136368,184.101746 145.888351,183.927094 145.916992,183.524536 
	C146.984619,175.415604 148.023575,167.709229 149.062546,160.002838 
z"/>
<path fill="#CD9A5B" opacity="1.000000" stroke="none" 
	d="
M71.081909,152.469971 
	C71.431473,151.309814 71.777451,150.563339 72.188240,149.507996 
	C72.830376,148.038742 73.407707,146.878342 74.029884,145.392731 
	C74.486496,144.953033 74.898254,144.838562 75.625023,144.650757 
	C75.037285,147.354050 73.767151,150.071350 73.307312,152.919479 
	C72.310570,159.093094 71.728317,165.333603 70.955032,172.049530 
	C67.846451,165.973007 70.031700,159.432526 71.081909,152.469971 
z"/>
<path fill="#DE973C" opacity="1.000000" stroke="none" 
	d="
M137.282684,195.634888 
	C136.985703,195.365631 136.977692,194.947601 137.035629,193.878235 
	C139.101730,189.249435 140.665329,184.859497 145.888351,183.927094 
	C145.888351,183.927094 146.136368,184.101746 146.262878,184.186035 
	C143.450150,188.008911 140.510910,191.747513 137.282684,195.634888 
z"/>
<path fill="#CD9A5B" opacity="1.000000" stroke="none" 
	d="
M73.857002,182.381348 
	C74.555351,183.149857 75.269127,184.261002 75.982101,185.730270 
	C75.278343,184.966919 74.575394,183.845474 73.857002,182.381348 
z"/>
<path fill="#CD9A5B" opacity="1.000000" stroke="none" 
	d="
M70.765335,173.161041 
	C71.159767,173.732651 71.555725,174.731857 71.939850,176.145477 
	C71.540962,175.569489 71.153915,174.579071 70.765335,173.161041 
z"/>
<path fill="#CD9A5B" opacity="1.000000" stroke="none" 
	d="
M71.777832,177.072113 
	C72.175636,177.572113 72.576653,178.451965 72.969070,179.702606 
	C72.567329,179.199600 72.174194,178.325775 71.777832,177.072113 
z"/>
<path fill="#CD9A5B" opacity="1.000000" stroke="none" 
	d="
M72.935013,180.306732 
	C73.243690,180.496582 73.567596,180.995895 73.904648,181.804169 
	C73.595276,181.614151 73.272758,181.115189 72.935013,180.306732 
z"/>
<path fill="#F69E17" opacity="1.000000" stroke="none" 
	d="
M145.916992,183.524536 
	C140.665329,184.859497 139.101730,189.249435 137.024933,193.564590 
	C131.410522,196.308044 125.878258,198.726639 120.329460,201.106689 
	C119.428635,201.493088 118.459831,201.946396 117.513573,201.967316 
	C105.235809,202.238693 92.844849,201.644470 83.949562,191.959702 
	C79.809280,187.451935 77.822342,180.937881 75.014229,175.256699 
	C74.377022,173.967545 74.525772,172.314117 74.068649,170.907700 
	C71.612503,163.350952 73.638145,156.606979 77.676949,150.201416 
	C78.031769,149.638672 78.693481,149.144226 78.778740,148.555237 
	C80.440460,137.075775 90.396858,132.547821 98.645081,129.057953 
	C106.108589,125.900085 116.160812,123.507103 123.963264,131.229523 
	C124.531761,131.792191 125.347916,132.247406 126.125481,132.434662 
	C138.216522,135.346024 144.376266,143.720703 147.242584,155.184982 
	C147.603775,156.629639 148.123230,158.034760 148.815948,159.730515 
	C148.023575,167.709229 146.984619,175.415604 145.916992,183.524536 
z"/>
</svg>