<svg version="1.1" id="Layer_1" xmlns="http://www.w3.org/2000/svg" xmlns:xlink="http://www.w3.org/1999/xlink" x="0px" y="0px"
	 width="100%" viewBox="0 0 445 510" enable-background="new 0 0 445 510" xml:space="preserve">
<path fill="#000000" opacity="1.000000" stroke="none" 
	d="
M215.000000,511.000000 
	C143.699966,511.000000 72.399925,511.000000 1.049944,511.000000 
	C1.049944,341.112671 1.049944,171.225296 1.049944,1.000000 
	C70.687737,1.000000 140.376022,1.000000 210.861832,1.243565 
	C210.778015,2.476073 210.033127,3.646362 208.995285,4.427348 
	C185.031143,22.460470 161.033798,40.449432 137.045975,58.451065 
	C129.943848,63.780849 130.111160,69.433327 137.299515,74.787308 
	C161.075241,92.495773 184.804398,110.266777 208.534958,128.035782 
	C216.853790,134.264786 226.252884,137.427292 237.518219,129.075058 
	C254.414612,116.547882 271.284363,103.984360 288.111023,91.363739 
	C296.730682,84.898682 305.359131,78.432869 313.728577,71.652542 
	C317.407990,68.671753 316.883850,62.564648 313.070160,59.645203 
	C308.693054,56.294479 304.087280,53.244141 299.672638,49.940632 
	C279.346680,34.730495 259.040894,19.493195 238.786667,4.187857 
	C237.896469,3.515174 237.582428,2.080000 237.000000,0.999999 
	C306.634064,1.000000 376.268097,1.000000 445.951080,1.000000 
	C445.951080,170.887802 445.951080,340.775635 445.951080,511.000000 
	C375.312256,511.000000 304.623993,511.000000 233.213028,510.687866 
	C234.103455,509.298523 235.774673,508.298340 237.320923,507.132477 
	C261.918243,488.586548 286.487488,470.003357 311.092316,451.467438 
	C317.991882,446.269653 318.071075,440.902802 311.048401,435.621704 
	C287.053528,417.577606 263.036987,399.562195 239.001190,381.572662 
	C228.701111,373.863617 218.504242,374.115204 208.380692,382.102722 
	C204.914780,384.837341 201.303818,387.387451 197.778748,390.047821 
	C176.866241,405.830566 155.936050,421.590027 135.070053,437.434021 
	C130.738342,440.723206 130.754913,447.252045 135.064133,450.475830 
	C159.438446,468.710754 183.874420,486.863251 208.250076,505.096405 
	C210.636719,506.881592 212.756393,509.023621 215.000000,511.000000 
M7.224532,343.290955 
	C6.492085,346.946075 7.058758,350.258301 10.189532,352.611755 
	C35.414082,371.573853 60.760952,390.374939 85.857109,409.505096 
	C94.447479,416.053375 104.160942,415.149475 110.770805,410.564758 
	C117.996010,405.553253 124.818642,399.963104 131.843002,394.659973 
	C149.791107,381.110016 167.672379,367.469391 185.748718,354.092468 
	C193.522461,348.339783 193.781769,344.343811 185.955322,338.473999 
	C161.971512,320.486145 138.001877,302.479340 113.990936,284.527771 
	C105.205849,277.959686 93.784424,277.264557 84.869087,284.342438 
	C68.566399,297.285156 51.474552,309.229889 34.821983,321.737488 
	C25.698786,328.589935 16.800779,335.742126 7.224532,343.290955 
M413.359955,370.936005 
	C421.148376,364.975311 428.575256,358.437653 436.849731,353.252625 
	C442.559418,349.674774 442.131317,343.405151 436.984924,339.527954 
	C413.044464,321.491577 389.042908,303.536316 365.058838,285.557861 
	C353.453735,276.858734 343.966919,277.202728 334.244049,284.466736 
	C309.784637,302.740540 285.401398,321.116547 261.033783,339.512756 
	C254.611755,344.360992 254.574509,348.575378 260.877686,353.319000 
	C286.202484,372.377991 311.554047,391.401550 336.941589,410.376862 
	C343.757477,415.471252 353.365173,415.368622 360.166809,410.409790 
	C364.506744,407.245728 368.920624,404.180725 373.208496,400.948151 
	C386.378326,391.019562 399.503479,381.031677 413.359955,370.936005 
M293.648041,190.920181 
	C306.492188,200.505569 319.616638,209.742828 332.091827,219.786499 
	C342.075195,227.823990 354.557251,227.961792 363.233612,221.331863 
	C387.676575,202.654037 412.301910,184.214996 436.850861,165.675797 
	C442.442169,161.453232 442.338440,156.521194 436.705444,152.307022 
	C412.863220,134.470001 388.920898,116.763077 365.272827,98.671799 
	C353.795776,89.891617 343.392426,90.381470 335.547546,96.231323 
	C310.882538,114.623772 286.310272,133.141769 261.808197,151.750916 
	C253.577881,158.001785 253.970093,160.893478 262.570587,167.276077 
	C272.827454,174.887909 282.894531,182.755524 293.648041,190.920181 
M199.958740,308.476532 
	C203.565598,311.303711 207.053101,314.301666 210.803909,316.922852 
	C218.871536,322.560852 229.402130,322.725983 237.290298,316.872650 
	C262.971863,297.815979 288.524506,278.585022 314.056030,259.327271 
	C317.251404,256.917114 316.880188,253.380035 314.845337,250.529587 
	C313.267639,248.319504 310.861420,246.636414 308.642181,244.958862 
	C289.498871,230.488129 270.308807,216.079239 251.146332,201.633820 
	C246.578217,198.190216 242.173599,194.518829 237.496567,191.232941 
	C228.817657,185.135529 218.518478,184.603394 205.394562,194.898148 
	C182.412979,212.925491 158.862473,230.228577 135.505066,247.774857 
	C130.728775,251.362869 130.198807,254.905701 134.585526,259.008728 
	C137.803726,262.018799 141.346939,264.701935 144.879486,267.351898 
	C163.013260,280.954987 181.190445,294.500153 199.958740,308.476532 
M178.951996,172.511902 
	C181.115524,170.742035 183.193436,168.853226 185.457916,167.223633 
	C193.682327,161.305115 194.017197,157.693817 186.227097,151.801620 
	C162.119461,133.567413 137.941971,115.424805 113.710899,97.354866 
	C104.768517,90.686211 94.273705,90.154099 86.817062,95.730232 
	C61.562119,114.616051 36.336578,133.541183 11.100399,152.452103 
	C5.433954,156.698288 5.252828,161.121445 11.009135,165.473587 
	C34.726509,183.405457 58.412064,201.384140 82.365417,218.997330 
	C96.419884,229.331772 103.571548,228.829346 116.635216,218.947281 
	C137.100510,203.466263 157.765656,188.249420 178.951996,172.511902 
z"/>
<path fill="#0377BB" opacity="1.000000" stroke="none" 
	d="
M215.467926,511.000000 
	C212.756393,509.023621 210.636719,506.881592 208.250076,505.096405 
	C183.874420,486.863251 159.438446,468.710754 135.064133,450.475830 
	C130.754913,447.252045 130.738342,440.723206 135.070053,437.434021 
	C155.936050,421.590027 176.866241,405.830566 197.778748,390.047821 
	C201.303818,387.387451 204.914780,384.837341 208.380692,382.102722 
	C218.504242,374.115204 228.701111,373.863617 239.001190,381.572662 
	C263.036987,399.562195 287.053528,417.577606 311.048401,435.621704 
	C318.071075,440.902802 317.991882,446.269653 311.092316,451.467438 
	C286.487488,470.003357 261.918243,488.586548 237.320923,507.132477 
	C235.774673,508.298340 234.103455,509.298523 232.745178,510.687866 
	C227.311966,511.000000 221.623917,511.000000 215.467926,511.000000 
z"/>
<path fill="#EBE719" opacity="1.000000" stroke="none" 
	d="
M236.531342,0.999999 
	C237.582428,2.080000 237.896469,3.515174 238.786667,4.187857 
	C259.040894,19.493195 279.346680,34.730495 299.672638,49.940632 
	C304.087280,53.244141 308.693054,56.294479 313.070160,59.645203 
	C316.883850,62.564648 317.407990,68.671753 313.728577,71.652542 
	C305.359131,78.432869 296.730682,84.898682 288.111023,91.363739 
	C271.284363,103.984360 254.414612,116.547882 237.518219,129.075058 
	C226.252884,137.427292 216.853790,134.264786 208.534958,128.035782 
	C184.804398,110.266777 161.075241,92.495773 137.299515,74.787308 
	C130.111160,69.433327 129.943848,63.780849 137.045975,58.451065 
	C161.033798,40.449432 185.031143,22.460470 208.995285,4.427348 
	C210.033127,3.646362 210.778015,2.476073 211.329681,1.243565 
	C219.354233,1.000000 227.708466,1.000000 236.531342,0.999999 
z"/>
<path fill="#59C9E6" opacity="1.000000" stroke="none" 
	d="
M7.512877,343.025055 
	C16.800779,335.742126 25.698786,328.589935 34.821983,321.737488 
	C51.474552,309.229889 68.566399,297.285156 84.869087,284.342438 
	C93.784424,277.264557 105.205849,277.959686 113.990936,284.527771 
	C138.001877,302.479340 161.971512,320.486145 185.955322,338.473999 
	C193.781769,344.343811 193.522461,348.339783 185.748718,354.092468 
	C167.672379,367.469391 149.791107,381.110016 131.843002,394.659973 
	C124.818642,399.963104 117.996010,405.553253 110.770805,410.564758 
	C104.160942,415.149475 94.447479,416.053375 85.857109,409.505096 
	C60.760952,390.374939 35.414082,371.573853 10.189532,352.611755 
	C7.058758,350.258301 6.492085,346.946075 7.512877,343.025055 
z"/>
<path fill="#109FDA" opacity="1.000000" stroke="none" 
	d="
M413.002960,371.001404 
	C399.503479,381.031677 386.378326,391.019562 373.208496,400.948151 
	C368.920624,404.180725 364.506744,407.245728 360.166809,410.409790 
	C353.365173,415.368622 343.757477,415.471252 336.941589,410.376862 
	C311.554047,391.401550 286.202484,372.377991 260.877686,353.319000 
	C254.574509,348.575378 254.611755,344.360992 261.033783,339.512756 
	C285.401398,321.116547 309.784637,302.740540 334.244049,284.466736 
	C343.966919,277.202728 353.453735,276.858734 365.058838,285.557861 
	C389.042908,303.536316 413.044464,321.491577 436.984924,339.527954 
	C442.131317,343.405151 442.559418,349.674774 436.849731,353.252625 
	C428.575256,358.437653 421.148376,364.975311 413.002960,371.001404 
z"/>
<path fill="#78BC43" opacity="1.000000" stroke="none" 
	d="
M293.345947,190.716248 
	C282.894531,182.755524 272.827454,174.887909 262.570587,167.276077 
	C253.970093,160.893478 253.577881,158.001785 261.808197,151.750916 
	C286.310272,133.141769 310.882538,114.623772 335.547546,96.231323 
	C343.392426,90.381470 353.795776,89.891617 365.272827,98.671799 
	C388.920898,116.763077 412.863220,134.470001 436.705444,152.307022 
	C442.338440,156.521194 442.442169,161.453232 436.850861,165.675797 
	C412.301910,184.214996 387.676575,202.654037 363.233612,221.331863 
	C354.557251,227.961792 342.075195,227.823990 332.091827,219.786499 
	C319.616638,209.742828 306.492188,200.505569 293.345947,190.716248 
z"/>
<path fill="#50C0AF" opacity="1.000000" stroke="none" 
	d="
M199.655609,308.271057 
	C181.190445,294.500153 163.013260,280.954987 144.879486,267.351898 
	C141.346939,264.701935 137.803726,262.018799 134.585526,259.008728 
	C130.198807,254.905701 130.728775,251.362869 135.505066,247.774857 
	C158.862473,230.228577 182.412979,212.925491 205.394562,194.898148 
	C218.518478,184.603394 228.817657,185.135529 237.496567,191.232941 
	C242.173599,194.518829 246.578217,198.190216 251.146332,201.633820 
	C270.308807,216.079239 289.498871,230.488129 308.642181,244.958862 
	C310.861420,246.636414 313.267639,248.319504 314.845337,250.529587 
	C316.880188,253.380035 317.251404,256.917114 314.056030,259.327271 
	C288.524506,278.585022 262.971863,297.815979 237.290298,316.872650 
	C229.402130,322.725983 218.871536,322.560852 210.803909,316.922852 
	C207.053101,314.301666 203.565598,311.303711 199.655609,308.271057 
z"/>
<path fill="#95C840" opacity="1.000000" stroke="none" 
	d="
M178.649063,172.716278 
	C157.765656,188.249420 137.100510,203.466263 116.635216,218.947281 
	C103.571548,228.829346 96.419884,229.331772 82.365417,218.997330 
	C58.412064,201.384140 34.726509,183.405457 11.009135,165.473587 
	C5.252828,161.121445 5.433954,156.698288 11.100399,152.452103 
	C36.336578,133.541183 61.562119,114.616051 86.817062,95.730232 
	C94.273705,90.154099 104.768517,90.686211 113.710899,97.354866 
	C137.941971,115.424805 162.119461,133.567413 186.227097,151.801620 
	C194.017197,157.693817 193.682327,161.305115 185.457916,167.223633 
	C183.193436,168.853226 181.115524,170.742035 178.649063,172.716278 
z"/>
</svg>