<svg version="1.1" id="Layer_1" xmlns="http://www.w3.org/2000/svg" xmlns:xlink="http://www.w3.org/1999/xlink" x="0px" y="0px"
	 width="100%" viewBox="0 0 2339 2089" enable-background="new 0 0 2339 2089" xml:space="preserve">
<path fill="#000000" opacity="1.000000" stroke="none" 
	d="
M1318.000000,2092.000000 
	C878.716003,2092.000000 440.431976,2092.000000 2.073991,2092.000000 
	C2.073991,1395.461060 2.073991,698.922119 2.073991,2.191588 
	C781.784485,2.191588 1561.568970,2.191588 2341.676758,2.191588 
	C2341.676758,698.666565 2341.676758,1395.333252 2341.676758,2092.000000 
	C2000.921265,2092.000000 1659.960571,2092.000000 1318.000000,2092.000000 
M1750.904297,2078.073730 
	C1769.390625,2082.978027 1788.214478,2084.254150 1807.288940,2084.111328 
	C1862.077148,2083.701172 1910.702881,2065.929199 1952.055542,2030.477783 
	C1974.739502,2011.031006 1995.686646,1989.396729 2016.162842,1967.572266 
	C2051.464111,1929.946289 2083.820801,1889.830811 2113.614502,1847.646973 
	C2154.429443,1789.857910 2189.987549,1729.025391 2219.574707,1664.788330 
	C2252.076660,1594.221802 2277.379150,1521.119873 2295.263184,1445.458252 
	C2313.579102,1367.970825 2324.123779,1289.435913 2326.145264,1209.889648 
	C2327.438232,1159.010986 2326.038086,1108.169067 2320.593994,1057.429199 
	C2316.126221,1015.790588 2310.150146,974.419800 2301.341064,933.545532 
	C2278.021973,825.343567 2240.530518,722.288330 2187.932373,624.748474 
	C2139.159180,534.301880 2079.439941,451.778931 2008.903931,377.206635 
	C1957.338257,322.690186 1901.136963,273.325470 1839.814087,229.854523 
	C1780.732910,187.972641 1718.666260,151.258057 1652.933472,120.901810 
	C1573.885132,84.396286 1491.791992,56.864693 1406.575195,38.707321 
	C1335.136230,23.485601 1262.903442,15.006060 1189.923462,13.251741 
	C1151.640137,12.331472 1113.398804,13.942084 1075.191650,16.984476 
	C1025.384033,20.950590 976.119568,28.357800 927.310913,38.822468 
	C833.822632,58.866558 744.337341,90.500847 658.757019,133.043106 
	C606.239075,159.149963 556.065613,189.259293 508.028595,222.970032 
	C429.192474,278.294617 358.206207,342.319611 295.259369,415.136383 
	C242.244781,476.463501 195.866928,542.515747 156.532379,613.494568 
	C123.552376,673.006714 95.735695,734.778198 73.660667,799.129883 
	C50.747120,865.925720 34.084984,934.216064 23.502813,1004.076111 
	C15.172836,1059.067993 11.255487,1114.369263 10.580663,1169.871216 
	C10.245742,1197.417236 12.550547,1224.994751 13.640761,1252.558838 
	C14.915599,1284.790649 18.961338,1316.724365 23.653082,1348.606445 
	C34.570709,1422.795654 52.761307,1495.144531 77.894432,1565.782349 
	C113.466965,1665.760620 161.707779,1759.188477 222.902481,1845.868286 
	C267.729309,1909.363647 318.205933,1967.973633 374.984283,2021.170288 
	C425.284027,2068.296875 484.936829,2088.725830 553.124939,2083.669189 
	C596.227234,2080.473145 635.136414,2064.891602 670.059937,2039.181030 
	C689.340271,2024.986938 708.902466,2011.118652 728.928528,1998.006104 
	C771.919067,1969.856812 817.698853,1946.995117 865.487488,1928.159424 
	C915.461609,1908.462402 966.869385,1893.559814 1019.853394,1884.862793 
	C1049.330444,1880.024292 1079.119385,1876.372070 1108.914429,1874.388306 
	C1137.457031,1872.487793 1166.188843,1873.318359 1194.838501,1873.163696 
	C1227.500732,1872.987305 1259.951050,1876.127686 1292.230469,1880.702515 
	C1348.066040,1888.615967 1402.476074,1902.346558 1455.403564,1921.913452 
	C1528.326538,1948.872681 1596.096924,1985.392944 1657.962891,2032.440674 
	C1685.660400,2053.503906 1715.557251,2069.289307 1750.904297,2078.073730 
z"/>
<path fill="#63B6A2" opacity="1.000000" stroke="none" 
	d="
M1750.082031,2077.966309 
	C1715.557251,2069.289307 1685.660400,2053.503906 1657.962891,2032.440674 
	C1596.096924,1985.392944 1528.326538,1948.872681 1455.403564,1921.913452 
	C1402.476074,1902.346558 1348.066040,1888.615967 1292.230469,1880.702515 
	C1259.951050,1876.127686 1227.500732,1872.987305 1194.838501,1873.163696 
	C1166.188843,1873.318359 1137.457031,1872.487793 1108.914429,1874.388306 
	C1079.119385,1876.372070 1049.330444,1880.024292 1019.853394,1884.862793 
	C966.869385,1893.559814 915.461609,1908.462402 865.487488,1928.159424 
	C817.698853,1946.995117 771.919067,1969.856812 728.928528,1998.006104 
	C708.902466,2011.118652 689.340271,2024.986938 670.059937,2039.181030 
	C635.136414,2064.891602 596.227234,2080.473145 553.124939,2083.669189 
	C484.936829,2088.725830 425.284027,2068.296875 374.984283,2021.170288 
	C318.205933,1967.973633 267.729309,1909.363647 222.902481,1845.868286 
	C161.707779,1759.188477 113.466965,1665.760620 77.894432,1565.782349 
	C52.761307,1495.144531 34.570709,1422.795654 23.653082,1348.606445 
	C18.961338,1316.724365 14.915599,1284.790649 13.640761,1252.558838 
	C12.550547,1224.994751 10.245742,1197.417236 10.580663,1169.871216 
	C11.255487,1114.369263 15.172836,1059.067993 23.502813,1004.076111 
	C34.084984,934.216064 50.747120,865.925720 73.660667,799.129883 
	C95.735695,734.778198 123.552376,673.006714 156.532379,613.494568 
	C195.866928,542.515747 242.244781,476.463501 295.259369,415.136383 
	C358.206207,342.319611 429.192474,278.294617 508.028595,222.970032 
	C556.065613,189.259293 606.239075,159.149963 658.757019,133.043106 
	C744.337341,90.500847 833.822632,58.866558 927.310913,38.822468 
	C976.119568,28.357800 1025.384033,20.950590 1075.191650,16.984476 
	C1113.398804,13.942084 1151.640137,12.331472 1189.923462,13.251741 
	C1262.903442,15.006060 1335.136230,23.485601 1406.575195,38.707321 
	C1491.791992,56.864693 1573.885132,84.396286 1652.933472,120.901810 
	C1718.666260,151.258057 1780.732910,187.972641 1839.814087,229.854523 
	C1901.136963,273.325470 1957.338257,322.690186 2008.903931,377.206635 
	C2079.439941,451.778931 2139.159180,534.301880 2187.932373,624.748474 
	C2240.530518,722.288330 2278.021973,825.343567 2301.341064,933.545532 
	C2310.150146,974.419800 2316.126221,1015.790588 2320.593994,1057.429199 
	C2326.038086,1108.169067 2327.438232,1159.010986 2326.145264,1209.889648 
	C2324.123779,1289.435913 2313.579102,1367.970825 2295.263184,1445.458252 
	C2277.379150,1521.119873 2252.076660,1594.221802 2219.574707,1664.788330 
	C2189.987549,1729.025391 2154.429443,1789.857910 2113.614502,1847.646973 
	C2083.820801,1889.830811 2051.464111,1929.946289 2016.162842,1967.572266 
	C1995.686646,1989.396729 1974.739502,2011.031006 1952.055542,2030.477783 
	C1910.702881,2065.929199 1862.077148,2083.701172 1807.288940,2084.111328 
	C1788.214478,2084.254150 1769.390625,2082.978027 1750.082031,2077.966309 
M1342.625488,618.177124 
	C1266.663574,595.960144 1189.104614,589.392700 1110.520752,596.325623 
	C1043.156128,602.268738 978.392578,618.862427 916.743835,647.316589 
	C844.312988,680.747253 782.134583,727.622253 729.959778,787.807068 
	C685.940308,838.584473 652.610107,895.734741 628.673889,958.512390 
	C607.083130,1015.138489 594.300537,1073.750977 590.620178,1134.065674 
	C587.396240,1186.899780 589.727600,1239.600098 599.461243,1291.931763 
	C610.877502,1353.309937 631.106628,1411.467285 660.717896,1466.274170 
	C691.197937,1522.689331 730.694031,1572.103638 778.640808,1614.796021 
	C819.959229,1651.586548 865.781433,1681.368652 916.083862,1704.253906 
	C990.375183,1738.052856 1068.683838,1754.743896 1149.995483,1756.838501 
	C1178.525391,1757.573364 1207.279419,1756.314575 1235.693604,1753.536255 
	C1312.637695,1746.012207 1385.590576,1724.557983 1453.964722,1687.932129 
	C1500.370117,1663.074219 1542.294556,1632.192139 1579.637207,1595.256836 
	C1626.432861,1548.971558 1663.555420,1495.749268 1691.572876,1436.119629 
	C1726.102905,1362.628784 1743.752197,1285.042725 1747.430420,1204.257080 
	C1748.805176,1174.065430 1747.696045,1143.807007 1744.563721,1113.598267 
	C1739.709473,1066.783691 1730.091187,1021.136658 1714.835083,976.638489 
	C1681.863525,880.467896 1627.807007,798.245361 1551.095947,731.434326 
	C1490.523926,678.679260 1421.202515,641.461121 1342.625488,618.177124 
z"/>
<path fill="#000000" opacity="1.000000" stroke="none" 
	d="
M1343.398193,618.411011 
	C1421.202515,641.461121 1490.523926,678.679260 1551.095947,731.434326 
	C1627.807007,798.245361 1681.863525,880.467896 1714.835083,976.638489 
	C1730.091187,1021.136658 1739.709473,1066.783691 1744.563721,1113.598267 
	C1747.696045,1143.807007 1748.805176,1174.065430 1747.430420,1204.257080 
	C1743.752197,1285.042725 1726.102905,1362.628784 1691.572876,1436.119629 
	C1663.555420,1495.749268 1626.432861,1548.971558 1579.637207,1595.256836 
	C1542.294556,1632.192139 1500.370117,1663.074219 1453.964722,1687.932129 
	C1385.590576,1724.557983 1312.637695,1746.012207 1235.693604,1753.536255 
	C1207.279419,1756.314575 1178.525391,1757.573364 1149.995483,1756.838501 
	C1068.683838,1754.743896 990.375183,1738.052856 916.083862,1704.253906 
	C865.781433,1681.368652 819.959229,1651.586548 778.640808,1614.796021 
	C730.694031,1572.103638 691.197937,1522.689331 660.717896,1466.274170 
	C631.106628,1411.467285 610.877502,1353.309937 599.461243,1291.931763 
	C589.727600,1239.600098 587.396240,1186.899780 590.620178,1134.065674 
	C594.300537,1073.750977 607.083130,1015.138489 628.673889,958.512390 
	C652.610107,895.734741 685.940308,838.584473 729.959778,787.807068 
	C782.134583,727.622253 844.312988,680.747253 916.743835,647.316589 
	C978.392578,618.862427 1043.156128,602.268738 1110.520752,596.325623 
	C1189.104614,589.392700 1266.663574,595.960144 1343.398193,618.411011 
z"/>
</svg>