<svg version="1.1" id="Layer_1" xmlns="http://www.w3.org/2000/svg" xmlns:xlink="http://www.w3.org/1999/xlink" x="0px" y="0px"
	 width="100%" viewBox="0 0 1000 1000" enable-background="new 0 0 1000 1000" xml:space="preserve">
<path fill="#F8F8F8" opacity="1.000000" stroke="none" 
	d="
M1.000000,367.000000 
	C1.000000,244.666687 1.000000,122.833359 1.000000,1.000033 
	C334.333282,1.000022 667.666565,1.000022 1000.999878,1.000011 
	C1000.999878,334.333221 1000.999878,667.666443 1000.999939,1000.999756 
	C667.666809,1000.999878 334.333588,1000.999878 1.000201,1000.999939 
	C1.000000,789.833313 1.000000,578.666687 1.000000,367.000000 
M917.000000,713.500000 
	C917.000183,555.354004 917.003418,397.207947 916.989197,239.061920 
	C916.988647,232.975632 917.448975,226.799423 916.593689,220.822647 
	C915.033875,209.921906 913.042969,199.046036 910.510803,188.330170 
	C907.029114,173.595993 900.515503,160.104126 891.832642,147.695602 
	C884.366455,137.025879 876.510437,126.604858 866.369507,118.333466 
	C854.008301,108.251015 840.395996,100.283516 825.379944,94.522079 
	C807.161987,87.532158 788.223999,84.190628 769.003113,84.161278 
	C592.693848,83.892014 416.383911,84.001381 240.074203,84.006599 
	C217.884720,84.007256 196.245361,87.065269 175.264786,94.716713 
	C159.803864,100.355186 145.883316,108.543152 133.543457,119.193466 
	C123.807022,127.596817 115.616074,137.428986 108.522964,148.373169 
	C101.799118,158.747620 96.261810,169.595154 92.322136,181.124893 
	C86.166611,199.139496 84.132790,218.039886 84.110718,236.944794 
	C83.923950,396.923157 83.964554,556.901794 84.047066,716.880371 
	C84.058472,739.004883 84.521759,761.133118 85.100777,783.251160 
	C85.268913,789.673767 85.789085,796.285461 87.516602,802.425354 
	C90.582924,813.323547 94.128853,824.168213 98.552025,834.577148 
	C102.012970,842.721619 106.236664,850.857849 111.685760,857.763306 
	C118.835350,866.823730 126.764023,875.621643 135.748947,882.788147 
	C145.876358,890.865967 157.037094,898.078247 168.709015,903.657288 
	C178.528610,908.351013 189.572418,910.958008 200.354370,913.034485 
	C211.839828,915.246582 223.651825,916.806702 235.325699,916.835266 
	C347.476654,917.109558 459.630829,917.430908 571.779419,916.845642 
	C644.356140,916.466980 716.979919,919.637146 789.500061,914.813721 
	C798.967957,914.183960 808.346680,911.383911 817.624390,909.028503 
	C823.372742,907.569092 829.115601,905.572693 834.399902,902.904236 
	C846.983521,896.549866 859.575867,889.928223 869.225830,879.343201 
	C878.350891,869.333923 888.138916,859.578674 895.336426,848.250916 
	C904.408813,833.972412 910.961182,818.103149 913.407104,801.042725 
	C914.908508,790.570251 916.509827,780.033508 916.832092,769.487915 
	C917.391846,751.174011 916.995422,732.830872 917.000000,713.500000 
z"/>
<path fill="#D9D9D9" opacity="1.000000" stroke="none" 
	d="
M917.000000,714.000000 
	C916.995422,732.830872 917.391846,751.174011 916.832092,769.487915 
	C916.509827,780.033508 914.908508,790.570251 913.407104,801.042725 
	C910.961182,818.103149 904.408813,833.972412 895.336426,848.250916 
	C888.138916,859.578674 878.350891,869.333923 869.225830,879.343201 
	C859.575867,889.928223 846.983521,896.549866 834.399902,902.904236 
	C829.115601,905.572693 823.372742,907.569092 817.624390,909.028503 
	C808.346680,911.383911 798.967957,914.183960 789.500061,914.813721 
	C716.979919,919.637146 644.356140,916.466980 571.779419,916.845642 
	C459.630829,917.430908 347.476654,917.109558 235.325699,916.835266 
	C223.651825,916.806702 211.839828,915.246582 200.354370,913.034485 
	C189.572418,910.958008 178.528610,908.351013 168.709015,903.657288 
	C157.037094,898.078247 145.876358,890.865967 135.748947,882.788147 
	C126.764023,875.621643 118.835350,866.823730 111.685760,857.763306 
	C106.236664,850.857849 102.012970,842.721619 98.552025,834.577148 
	C94.128853,824.168213 90.582924,813.323547 87.516602,802.425354 
	C85.789085,796.285461 85.268913,789.673767 85.100777,783.251160 
	C84.521759,761.133118 84.058472,739.004883 84.047066,716.880371 
	C83.964554,556.901794 83.923950,396.923157 84.110718,236.944794 
	C84.132790,218.039886 86.166611,199.139496 92.322136,181.124893 
	C96.261810,169.595154 101.799118,158.747620 108.522964,148.373169 
	C115.616074,137.428986 123.807022,127.596817 133.543457,119.193466 
	C145.883316,108.543152 159.803864,100.355186 175.264786,94.716713 
	C196.245361,87.065269 217.884720,84.007256 240.074203,84.006599 
	C416.383911,84.001381 592.693848,83.892014 769.003113,84.161278 
	C788.223999,84.190628 807.161987,87.532158 825.379944,94.522079 
	C840.395996,100.283516 854.008301,108.251015 866.369507,118.333466 
	C876.510437,126.604858 884.366455,137.025879 891.832642,147.695602 
	C900.515503,160.104126 907.029114,173.595993 910.510803,188.330170 
	C913.042969,199.046036 915.033875,209.921906 916.593689,220.822647 
	C917.448975,226.799423 916.988647,232.975632 916.989197,239.061920 
	C917.003418,397.207947 917.000183,555.354004 917.000000,714.000000 
M717.500000,87.943336 
	C577.335999,87.943336 437.171722,87.806938 297.008148,88.059433 
	C269.263519,88.109413 241.508240,86.646988 213.736511,89.680351 
	C197.159241,91.490997 181.508224,95.494408 166.492310,102.311020 
	C148.341995,110.550514 133.120163,122.829185 120.511452,138.110641 
	C109.917839,150.949844 101.042076,165.049271 96.529480,181.248825 
	C93.635620,191.637329 91.739250,202.331451 89.893173,212.974869 
	C88.532608,220.819122 87.186035,228.802109 87.178444,236.724579 
	C87.024139,397.888824 87.090324,559.053284 87.035980,720.217651 
	C87.028168,743.392090 87.184158,766.522400 89.834976,789.606323 
	C91.654045,805.447021 95.769005,820.531555 102.501259,834.894348 
	C110.872223,852.753357 123.075439,867.751831 138.021774,880.489136 
	C151.577606,892.041443 166.967926,900.509399 184.078781,905.417480 
	C194.121445,908.298096 204.195847,911.314697 214.921295,911.217773 
	C220.662003,911.165894 226.414017,912.969727 232.161469,912.972961 
	C411.325562,913.073608 590.489746,913.070496 769.653870,913.001282 
	C777.121094,912.998413 784.751831,913.031799 792.016663,911.589050 
	C802.811523,909.445190 813.601990,906.703064 823.946411,902.973267 
	C856.130249,891.368896 879.673035,869.452759 895.990540,839.750244 
	C904.872253,823.583008 910.259583,806.174377 911.323853,787.591980 
	C911.839417,778.590698 912.976807,769.596619 912.981995,760.598755 
	C913.081787,586.934570 913.068604,413.270386 913.011108,239.606186 
	C913.008606,231.891403 912.379517,224.176163 912.013855,216.462494 
	C911.882874,213.698837 912.024353,210.858871 911.424255,208.192688 
	C909.581177,200.004456 907.567322,191.849030 905.385559,183.743927 
	C901.438049,169.079010 893.851562,156.245804 885.029297,144.057587 
	C873.138184,127.629822 858.091309,114.769180 840.308899,105.202911 
	C825.069458,97.004623 808.771179,91.835358 791.502441,90.058449 
	C783.183594,89.202454 774.843384,88.203598 766.497437,88.036392 
	C750.504150,87.715950 734.499756,87.943192 717.500000,87.943336 
z"/>
<path fill="#FDFEFD" opacity="1.000000" stroke="none" 
	d="
M718.000000,87.943268 
	C734.499756,87.943192 750.504150,87.715950 766.497437,88.036392 
	C774.843384,88.203598 783.183594,89.202454 791.502441,90.058449 
	C808.771179,91.835358 825.069458,97.004623 840.308899,105.202911 
	C858.091309,114.769180 873.138184,127.629822 885.029297,144.057587 
	C893.851562,156.245804 901.438049,169.079010 905.385559,183.743927 
	C907.567322,191.849030 909.581177,200.004456 911.424255,208.192688 
	C912.024353,210.858871 911.882874,213.698837 912.013855,216.462494 
	C912.379517,224.176163 913.008606,231.891403 913.011108,239.606186 
	C913.068604,413.270386 913.081787,586.934570 912.981995,760.598755 
	C912.976807,769.596619 911.839417,778.590698 911.323853,787.591980 
	C910.259583,806.174377 904.872253,823.583008 895.990540,839.750244 
	C879.673035,869.452759 856.130249,891.368896 823.946411,902.973267 
	C813.601990,906.703064 802.811523,909.445190 792.016663,911.589050 
	C784.751831,913.031799 777.121094,912.998413 769.653870,913.001282 
	C590.489746,913.070496 411.325562,913.073608 232.161469,912.972961 
	C226.414017,912.969727 220.662003,911.165894 214.921295,911.217773 
	C204.195847,911.314697 194.121445,908.298096 184.078781,905.417480 
	C166.967926,900.509399 151.577606,892.041443 138.021774,880.489136 
	C123.075439,867.751831 110.872223,852.753357 102.501259,834.894348 
	C95.769005,820.531555 91.654045,805.447021 89.834976,789.606323 
	C87.184158,766.522400 87.028168,743.392090 87.035980,720.217651 
	C87.090324,559.053284 87.024139,397.888824 87.178444,236.724579 
	C87.186035,228.802109 88.532608,220.819122 89.893173,212.974869 
	C91.739250,202.331451 93.635620,191.637329 96.529480,181.248825 
	C101.042076,165.049271 109.917839,150.949844 120.511452,138.110641 
	C133.120163,122.829185 148.341995,110.550514 166.492310,102.311020 
	C181.508224,95.494408 197.159241,91.490997 213.736511,89.680351 
	C241.508240,86.646988 269.263519,88.109413 297.008148,88.059433 
	C437.171722,87.806938 577.335999,87.943336 718.000000,87.943268 
M278.500000,113.001122 
	C276.668335,113.001122 274.835419,112.956459 273.005188,113.007996 
	C254.045822,113.541832 234.844360,112.353027 216.172806,114.958435 
	C157.503586,123.145073 113.116791,174.768707 113.064865,233.890549 
	C112.908821,411.554260 112.960129,589.218262 113.157928,766.881836 
	C113.168213,776.116089 114.394287,785.564392 116.570976,794.545471 
	C129.942780,849.717834 178.910156,887.964966 235.759232,887.977112 
	C412.089783,888.014832 588.420410,888.082336 764.750549,887.801819 
	C776.093994,887.783752 787.745544,886.086792 798.720520,883.166748 
	C850.227295,869.462891 887.865234,821.134399 887.920227,768.380249 
	C888.106323,589.716614 887.998108,411.052734 887.950317,232.388947 
	C887.946533,218.242508 884.898743,204.590836 879.814148,191.447342 
	C861.039124,142.914124 814.405823,112.797562 763.492126,112.891907 
	C602.161926,113.190834 440.830780,113.001602 278.500000,113.001122 
z"/>
<path fill="#66A636" opacity="1.000000" stroke="none" 
	d="
M279.000000,113.001122 
	C440.830780,113.001602 602.161926,113.190834 763.492126,112.891907 
	C814.405823,112.797562 861.039124,142.914124 879.814148,191.447342 
	C884.898743,204.590836 887.946533,218.242508 887.950317,232.388947 
	C887.998108,411.052734 888.106323,589.716614 887.920227,768.380249 
	C887.865234,821.134399 850.227295,869.462891 798.720520,883.166748 
	C787.745544,886.086792 776.093994,887.783752 764.750549,887.801819 
	C588.420410,888.082336 412.089783,888.014832 235.759232,887.977112 
	C178.910156,887.964966 129.942780,849.717834 116.570976,794.545471 
	C114.394287,785.564392 113.168213,776.116089 113.157928,766.881836 
	C112.960129,589.218262 112.908821,411.554260 113.064865,233.890549 
	C113.116791,174.768707 157.503586,123.145073 216.172806,114.958435 
	C234.844360,112.353027 254.045822,113.541832 273.005188,113.007996 
	C274.835419,112.956459 276.668335,113.001122 279.000000,113.001122 
M327.060699,686.500000 
	C327.060699,696.907410 327.060699,707.314880 327.060699,718.389526 
	C329.192108,717.675842 330.468506,717.411255 331.595459,716.847778 
	C393.678040,685.805176 455.742737,654.726868 517.821045,623.675720 
	C575.579163,594.785400 633.360229,565.940857 691.061768,536.937988 
	C692.549133,536.190369 694.136597,533.844666 694.150879,532.230774 
	C694.401184,503.902618 694.449890,475.572235 694.366699,447.242859 
	C694.362610,445.848328 693.091675,443.790741 691.845947,443.163696 
	C655.700256,424.968536 619.474792,406.931915 583.277771,388.838623 
	C500.004456,347.213867 416.741028,305.569366 333.459808,263.960419 
	C331.658722,263.060577 329.692200,262.491974 327.561584,261.676483 
	C327.295624,263.098022 327.070557,263.740723 327.070221,264.383545 
	C327.055084,292.714691 327.005951,321.046204 327.198914,349.376038 
	C327.210175,351.031494 328.814911,353.371094 330.330750,354.202881 
	C337.476196,358.123901 344.845093,361.638428 352.141846,365.282837 
	C429.568359,403.953644 506.998718,442.616608 584.418335,481.301178 
	C589.681580,483.931061 594.866638,486.717285 600.880920,489.842865 
	C598.558044,491.184631 597.204224,492.064056 595.769348,492.781403 
	C507.714294,536.803040 419.661652,580.829407 331.556671,624.750916 
	C328.258820,626.394958 326.951111,628.312134 326.984924,632.004639 
	C327.148346,649.835205 327.059875,667.667969 327.060699,686.500000 
z"/>
<path fill="#FDFEFD" opacity="1.000000" stroke="none" 
	d="
M327.060730,686.000000 
	C327.059875,667.667969 327.148346,649.835205 326.984924,632.004639 
	C326.951111,628.312134 328.258820,626.394958 331.556671,624.750916 
	C419.661652,580.829407 507.714294,536.803040 595.769348,492.781403 
	C597.204224,492.064056 598.558044,491.184631 600.880920,489.842865 
	C594.866638,486.717285 589.681580,483.931061 584.418335,481.301178 
	C506.998718,442.616608 429.568359,403.953644 352.141846,365.282837 
	C344.845093,361.638428 337.476196,358.123901 330.330750,354.202881 
	C328.814911,353.371094 327.210175,351.031494 327.198914,349.376038 
	C327.005951,321.046204 327.055084,292.714691 327.070221,264.383545 
	C327.070557,263.740723 327.295624,263.098022 327.561584,261.676483 
	C329.692200,262.491974 331.658722,263.060577 333.459808,263.960419 
	C416.741028,305.569366 500.004456,347.213867 583.277771,388.838623 
	C619.474792,406.931915 655.700256,424.968536 691.845947,443.163696 
	C693.091675,443.790741 694.362610,445.848328 694.366699,447.242859 
	C694.449890,475.572235 694.401184,503.902618 694.150879,532.230774 
	C694.136597,533.844666 692.549133,536.190369 691.061768,536.937988 
	C633.360229,565.940857 575.579163,594.785400 517.821045,623.675720 
	C455.742737,654.726868 393.678040,685.805176 331.595459,716.847778 
	C330.468506,717.411255 329.192108,717.675842 327.060699,718.389526 
	C327.060699,707.314880 327.060699,696.907410 327.060730,686.000000 
z"/>
</svg>